{
classes = (
{
automatic = 1;
code = "A AE B C Ccedilla D E Eth F G H I J K L M N O OE Oslash P Q R S T Thorn U V W X Y Z";
name = Uppercase;
},
{
code = "k-deva k_ss-deva kh-deva g-deva gh-deva ng-deva c-deva ch-deva j-deva j_ny-deva jh-deva ny-deva tt-deva tt_tt-deva tth-deva dd-deva ddh-deva nn-deva t-deva t_t-deva t_r-deva th-deva d-deva d_y-deva dh-deva n-deva p-deva ph-deva b-deva bh-deva m-deva y-deva rr-deva l-deva ll-deva v-deva v_r-deva sh-deva sh_r-deva ss-deva s-deva h-deva q-deva khh-deva ghh-deva z-deva sh-deva.loclMAR sh-deva.ss02";
name = DevaHalfforms;
},
{
code = "ka-deva kha-deva ga-deva gha-deva nga-deva ca-deva cha-deva ja-deva jha-deva nya-deva tta-deva ttha-deva dda-deva ddha-deva nna-deva ta-deva tha-deva da-deva dha-deva na-deva nnna-deva pa-deva pha-deva ba-deva bha-deva ma-deva ya-deva ra-deva rra-deva la-deva lla-deva llla-deva va-deva sha-deva ssa-deva sa-deva ha-deva qa-deva khha-deva ghha-deva za-deva dddha-deva rha-deva fa-deva yya-deva zha-deva jjya-deva gga-deva jja-deva ddda-deva bba-deva ha-deva.alt ya-deva.conecta la-deva.loclMAR sha-deva.loclMAR jha-deva.loclNEP zha-deva.loclNEP";
name = DevaFullforms;
},
{

glyphs = (
{
glyphname = A;
lastChange = "2014-11-10 20:53:51 +0000";
layers = (
{
anchors = (
{
name = bottom;
position = "{333, 0}";
},
{
name = ogonek;
position = "{605, 10}";
},
{
name = top;
position = "{342, 705}";
}
);
layerId = UUID0;
name = Regular;
paths = (
{
closed = 1;
nodes = (
"670 54 LINE",
"608 64 LINE",
"569 149 LINE",
"363 715 LINE",
"305 705 LINE",
"126 160 LINE",
"83 61 LINE",
"20 44 LINE",
"24 -5 LINE",
"24 -5 OFFCURVE",
"122 0 OFFCURVE",
"159 0 CURVE SMOOTH",
"189 0 OFFCURVE",
"245 0 OFFCURVE",
"245 0 CURVE",
"250 54 LINE",
"180 64 LINE",
"190 127 LINE",
"222 232 LINE",
"442 232 LINE",
"463 172 LINE",
"490 64 LINE",
"417 44 LINE",
"421 -5 LINE",
"421 -5 OFFCURVE",
"533 0 OFFCURVE",
"564 0 CURVE SMOOTH",
"596 0 OFFCURVE",
"665 0 OFFCURVE",
"665 0 CURVE"
);
},
{
closed = 1;
nodes = (
"328 557 LINE",
"422 286 LINE",
"240 282 LINE"
);
}
);
width = 690;
},
{
anchors = (
{
name = bottom;
position = "{320, 0}";
},
{
name = ogonek;
position = "{615, 10}";
},
{
name = top;
position = "{344, 705}";
}
);
layerId = "16643525-C5DD-48EC-8E99-463BF28F5E85";
name = Bold;
paths = (
{
closed = 1;
nodes = (
"668 65 LINE",
"612 74 LINE",
"589 128 LINE",
"389 716 LINE",
"277 705 LINE",
"88 161 LINE",
"46 75 LINE",
"1 68 LINE",
"6 -5 LINE",
"6 -5 OFFCURVE",
"60 0 OFFCURVE",
"145 0 CURVE SMOOTH",
"192 0 OFFCURVE",
"251 -5 OFFCURVE",
"251 -5 CURVE",
"256 65 LINE",
"198 77 LINE",
"204 115 LINE",
"221 179 LINE",
"410 179 LINE",
"424 129 LINE",
"429 77 LINE",
"370 68 LINE",
"375 -5 LINE",
"375 -5 OFFCURVE",
"460 0 OFFCURVE",
"579 0 CURVE SMOOTH",
"614 0 OFFCURVE",
"663 -5 OFFCURVE",
"663 -5 CURVE"
);
},
{
closed = 1;
nodes = (
"320 498 LINE",
"384 263 LINE",
"248 261 LINE"
);
}
);
width = 667;
}
);
leftKerningGroup = A;
rightKerningGroup = A;
unicode = 0041;
},
{
glyphname = AE;
lastChange = "2014-11-10 20:53:51 +0000";
layers = (
{
anchors = (
{
name = top;
position = "{504, 705}";
}
);
layerId = UUID0;
name = Regular;
paths = (
{
closed = 1;
nodes = (
"820 697 LINE",
"801 715 LINE",
"801 715 OFFCURVE",
"707 705 OFFCURVE",
"687 705 CURVE SMOOTH",
"388 705 LINE SMOOTH",
"368 705 OFFCURVE",
"272 710 OFFCURVE",
"272 710 CURVE",
"267 656 LINE",
"345 644 LINE",
"111 153 LINE SMOOTH",
"104 138 OFFCURVE",
"73 93 OFFCURVE",
"50 61 CURVE",
"-10 45 LINE",
"-5 -5 LINE",
"-5 -5 OFFCURVE",
"68 0 OFFCURVE",
"88 0 CURVE SMOOTH",
"168 0 OFFCURVE",
"219 -5 OFFCURVE",
"219 -5 CURVE",
"226 54 LINE",
"144 61 LINE",
"149 77 OFFCURVE",
"152 93 OFFCURVE",
"156 102 CURVE SMOOTH",
"225 248 LINE",
"439 248 LINE",
"457 130 LINE SMOOTH",
"460 110 OFFCURVE",
"462 87 OFFCURVE",
"462 61 CURVE",
"380 45 LINE",
"385 -5 LINE",
"385 -5 OFFCURVE",
"483 0 OFFCURVE",
"503 0 CURVE SMOOTH",
"721 0 LINE SMOOTH",
"741 0 OFFCURVE",
"835 -4 OFFCURVE",
"835 -4 CURVE",
"854 14 LINE",
"869 165 LINE",
"814 170 LINE",
"812 154 OFFCURVE",
"803 118 OFFCURVE",
"799 103 CURVE SMOOTH",
"797 96 OFFCURVE",
"788 80 OFFCURVE",
"778 66 CURVE",
"756 62 OFFCURVE",
"721 57 OFFCURVE",
"691 57 CURVE SMOOTH",
"569 57 LINE",
"544 174 LINE",
"520 326 LINE",
"546 328 OFFCURVE",
"576 330 OFFCURVE",
"587 330 CURVE SMOOTH",
"615 330 LINE SMOOTH",
"635 330 OFFCURVE",
"695 324 OFFCURVE",
"695 324 CURVE",
"704 257 LINE",
"752 263 LINE",
"752 263 OFFCURVE",
"749 322 OFFCURVE",
"749 372 CURVE SMOOTH",
"749 392 OFFCURVE",
"750 452 OFFCURVE",
"750 452 CURVE",
"704 457 LINE",
"695 391 LINE",
"695 391 OFFCURVE",
"655 382 OFFCURVE",
"635 382 CURVE SMOOTH",
"587 382 LINE SMOOTH",
"575 382 OFFCURVE",
"539 384 OFFCURVE",
"511 386 CURVE",
"487 541 LINE SMOOTH",
"482 578 OFFCURVE",
"478 626 OFFCURVE",
"476 648 CURVE",
"657 648 LINE SMOOTH",
"685 648 OFFCURVE",
"716 645 OFFCURVE",
"738 643 CURVE",
"748 630 OFFCURVE",
"757 617 OFFCURVE",
"758 610 CURVE",
"762 595 OFFCURVE",
"767 572 OFFCURVE",
"769 556 CURVE",
"827 561 LINE"
);
},
{
closed = 1;
nodes = (
"250 299 LINE",
"385 584 LINE",
"392 556 LINE",
"431 302 LINE"
);
}
);
width = 907;
},
{
anchors = (
{
name = top;
position = "{536, 705}";
}
);
layerId = "16643525-C5DD-48EC-8E99-463BF28F5E85";
name = Bold;
paths = (
{
closed = 1;
nodes = (
"880 697 LINE",
"861 715 LINE",
"861 715 OFFCURVE",
"767 705 OFFCURVE",
"747 705 CURVE SMOOTH",
"416 705 LINE SMOOTH",
"369 705 OFFCURVE",
"316 710 OFFCURVE",
"316 710 CURVE",
"311 635 LINE",
"375 623 LINE",
"112 161 LINE SMOOTH",
"104 147 OFFCURVE",
"76 107 OFFCURVE",
"52 74 CURVE",
"1 65 LINE",
"6 -5 LINE",
"6 -5 OFFCURVE",
"59 0 OFFCURVE",
"106 0 CURVE SMOOTH",
"189 0 OFFCURVE",
"253 -5 OFFCURVE",
"253 -5 CURVE",
"258 71 LINE",
"189 77 LINE",
"197 95 OFFCURVE",
"203 112 OFFCURVE",
"205 115 CURVE SMOOTH",
"244 184 LINE",
"461 184 LINE",
"469 132 LINE SMOOTH",
"471 120 OFFCURVE",
"471 88 OFFCURVE",
"471 77 CURVE",
"404 65 LINE",
"409 -5 LINE",
"409 -5 OFFCURVE",
"453 0 OFFCURVE",
"490 0 CURVE SMOOTH",
"761 0 LINE SMOOTH",
"781 0 OFFCURVE",
"875 -4 OFFCURVE",
"875 -4 CURVE",
"894 14 LINE",
"909 190 LINE",
"839 195 LINE",
"837 179 OFFCURVE",
"831 153 OFFCURVE",
"827 138 CURVE SMOOTH",
"826 132 OFFCURVE",
"817 114 OFFCURVE",
"808 95 CURVE",
"788 91 OFFCURVE",
"760 87 OFFCURVE",
"731 87 CURVE SMOOTH",
"630 87 LINE",
"610 193 LINE",
"591 317 LINE",
"594 318 OFFCURVE",
"605 319 OFFCURVE",
"609 319 CURVE SMOOTH",
"665 319 LINE SMOOTH",
"685 319 OFFCURVE",
"729 313 OFFCURVE",
"729 313 CURVE",
"738 253 LINE",
"802 259 LINE",
"802 259 OFFCURVE",
"799 336 OFFCURVE",
"799 386 CURVE SMOOTH",
"799 406 OFFCURVE",
"800 466 OFFCURVE",
"800 466 CURVE",
"738 471 LINE",
"729 407 LINE",
"729 407 OFFCURVE",
"705 398 OFFCURVE",
"685 398 CURVE SMOOTH",
"604 398 LINE SMOOTH",
"598 398 OFFCURVE",
"582 399 OFFCURVE",
"578 400 CURVE",
"556 542 LINE SMOOTH",
"554 558 OFFCURVE",
"551 600 OFFCURVE",
"550 618 CURVE",
"717 618 LINE SMOOTH",
"747 618 OFFCURVE",
"777 615 OFFCURVE",
"797 613 CURVE",
"801 603 OFFCURVE",
"805 594 OFFCURVE",
"806 590 CURVE",
"810 575 OFFCURVE",
"813 547 OFFCURVE",
"815 531 CURVE",
"887 536 LINE"
);
},
{
closed = 1;
nodes = (
"290 266 LINE",
"413 487 LINE",
"415 479 LINE",
"448 268 LINE"
);
}
);
width = 912;
}
);
leftKerningGroup = A;
rightKerningGroup = E;
unicode = 00C6;
},
{
glyphname = B;
lastChange = "2014-11-10 20:53:51 +0000";
layers = (
{
layerId = UUID0;
name = Regular;
paths = (
{
closed = 1;
nodes = (
"271 715 OFFCURVE",
"217 706 OFFCURVE",
"157 705 CURVE",
"129 706 OFFCURVE",
"55 710 OFFCURVE",
"55 710 CURVE",
"50 656 LINE",
"121 644 LINE",
"123 631 OFFCURVE",
"130 585 OFFCURVE",
"130 568 CURVE SMOOTH",
"130 137 LINE SMOOTH",
"130 120 OFFCURVE",
"123 74 OFFCURVE",
"121 61 CURVE",
"48 45 LINE",
"53 -5 LINE",
"53 -5 OFFCURVE",
"128 -1 OFFCURVE",
"157 0 CURVE",
"234 -1 OFFCURVE",
"301 -5 OFFCURVE",
"349 -5 CURVE SMOOTH",
"463 -5 OFFCURVE",
"553 68 OFFCURVE",
"553 183 CURVE SMOOTH",
"553 287 OFFCURVE",
"482 348 OFFCURVE",
"383 363 CURVE",
"383 370 LINE",
"464 390 OFFCURVE",
"522 455 OFFCURVE",
"522 543 CURVE SMOOTH",
"522 653 OFFCURVE",
"435 715 OFFCURVE",
"332 715 CURVE SMOOTH"
);
},
{
closed = 1;
nodes = (
"253 658 OFFCURVE",
"282 661 OFFCURVE",
"311 661 CURVE SMOOTH",
"381 661 OFFCURVE",
"429 611 OFFCURVE",
"429 531 CURVE SMOOTH",
"429 442 OFFCURVE",
"367 394 OFFCURVE",
"287 394 CURVE SMOOTH",
"280 394 LINE",
"273 337 LINE",
"284 337 LINE SMOOTH",
"373 337 OFFCURVE",
"452 292 OFFCURVE",
"452 191 CURVE SMOOTH",
"452 101 OFFCURVE",
"397 53 OFFCURVE",
"318 53 CURVE SMOOTH",
"285 53 OFFCURVE",
"252 56 OFFCURVE",
"227 59 CURVE",
"225 71 OFFCURVE",
"221 123 OFFCURVE",
"221 167 CURVE SMOOTH",
"221 538 LINE SMOOTH",
"221 582 OFFCURVE",
"226 642 OFFCURVE",
"228 655 CURVE"
);
}
);
width = 598;
},
{
layerId = "16643525-C5DD-48EC-8E99-463BF28F5E85";
name = Bold;
paths = (
{
closed = 1;
nodes = (
"308 715 OFFCURVE",
"192 705 OFFCURVE",
"149 705 CURVE",
"102 705 OFFCURVE",
"57 710 OFFCURVE",
"57 710 CURVE",
"52 635 LINE",
"111 623 LINE",
"116 600 OFFCURVE",
"120 552 OFFCURVE",
"120 512 CURVE SMOOTH",
"120 163 LINE SMOOTH",
"120 143 OFFCURVE",
"114 91 OFFCURVE",
"111 77 CURVE",
"51 65 LINE",
"56 -5 LINE",
"56 -5 OFFCURVE",
"101 0 OFFCURVE",
"148 0 CURVE",
"206 0 OFFCURVE",
"308 -5 OFFCURVE",
"369 -5 CURVE SMOOTH",
"498 -5 OFFCURVE",
"608 56 OFFCURVE",
"608 189 CURVE SMOOTH",
"608 293 OFFCURVE",
"536 349 OFFCURVE",
"438 364 CURVE",
"438 371 LINE",
"519 391 OFFCURVE",
"577 455 OFFCURVE",
"577 543 CURVE SMOOTH",
"577 653 OFFCURVE",
"472 715 OFFCURVE",
"352 715 CURVE SMOOTH"
);
},
{
closed = 1;
nodes = (
"294 631 OFFCURVE",
"310 633 OFFCURVE",
"327 633 CURVE SMOOTH",
"389 633 OFFCURVE",
"432 588 OFFCURVE",
"432 531 CURVE SMOOTH",
"432 448 OFFCURVE",
"391 407 OFFCURVE",
"326 407 CURVE SMOOTH",
"320 407 LINE",
"313 320 LINE",
"323 320 LINE SMOOTH",
"398 320 OFFCURVE",
"455 292 OFFCURVE",
"455 203 CURVE SMOOTH",
"455 124 OFFCURVE",
"406 77 OFFCURVE",
"334 77 CURVE SMOOTH",
"315 77 OFFCURVE",
"296 78 OFFCURVE",
"278 80 CURVE",
"277 94 OFFCURVE",
"275 149 OFFCURVE",
"275 193 CURVE SMOOTH",
"275 542 LINE SMOOTH",
"275 561 OFFCURVE",
"277 621 OFFCURVE",
"278 629 CURVE"
);
}
);
width = 633;
}
);
leftKerningGroup = H;
rightKerningGroup = B;
unicode = 0042;
},
{
glyphname = C;
lastChange = "2014-11-10 20:53:51 +0000";
layers = (
{
anchors = (
{
name = bottom;
position = "{369, 0}";
},
{
name = top;
position = "{356, 705}";
}
);
layerId = UUID0;
name = Regular;
paths = (
{
closed = 1;
nodes = (
"569 170 LINE",
"510 168 LINE",
"510 168 OFFCURVE",
"510 131 OFFCURVE",
"508 121 CURVE",
"508 111 OFFCURVE",
"501 88 OFFCURVE",
"494 65 CURVE",
"452 52 OFFCURVE",
"399 43 OFFCURVE",
"358 43 CURVE SMOOTH",
"215 43 OFFCURVE",
"145 180 OFFCURVE",
"145 353 CURVE SMOOTH",
"145 526 OFFCURVE",
"215 662 OFFCURVE",
"359 662 CURVE SMOOTH",
"397 662 OFFCURVE",
"446 652 OFFCURVE",
"485 639 CURVE",
"491 619 OFFCURVE",
"497 598 OFFCURVE",
"497 589 CURVE SMOOTH",
"497 542 LINE",
"556 538 LINE",
"566 686 LINE",
"503 702 OFFCURVE",
"441 720 OFFCURVE",
"359 720 CURVE SMOOTH",
"149 720 OFFCURVE",
"42 570 OFFCURVE",
"42 352 CURVE SMOOTH",
"42 134 OFFCURVE",
"149 -15 OFFCURVE",
"359 -15 CURVE SMOOTH",
"440 -15 OFFCURVE",
"512 3 OFFCURVE",
"575 19 CURVE"
);
}
);
width = 610;
},
{
anchors = (
{
name = bottom;
position = "{376, 0}";
},
{
name = top;
position = "{378, 705}";
}
);
layerId = "16643525-C5DD-48EC-8E99-463BF28F5E85";
name = Bold;
paths = (
{
closed = 1;
nodes = (
"594 191 LINE",
"519 189 LINE",
"519 189 OFFCURVE",
"517 153 OFFCURVE",
"516 142 CURVE",
"516 134 OFFCURVE",
"502 100 OFFCURVE",
"500 93 CURVE",
"455 83 OFFCURVE",
"419 78 OFFCURVE",
"376 78 CURVE SMOOTH",
"253 78 OFFCURVE",
"207 200 OFFCURVE",
"207 353 CURVE SMOOTH",
"207 506 OFFCURVE",
"254 627 OFFCURVE",
"377 627 CURVE SMOOTH",
"416 627 OFFCURVE",
"448 622 OFFCURVE",
"489 613 CURVE",
"494 600 OFFCURVE",
"501 578 OFFCURVE",
"501 572 CURVE SMOOTH",
"504 511 LINE",
"581 507 LINE",
"593 686 LINE",
"528 702 OFFCURVE",
"463 720 OFFCURVE",
"377 720 CURVE SMOOTH",
"145 720 OFFCURVE",
"27 570 OFFCURVE",
"27 352 CURVE SMOOTH",
"27 134 OFFCURVE",
"145 -15 OFFCURVE",
"377 -15 CURVE SMOOTH",
"462 -15 OFFCURVE",
"537 3 OFFCURVE",
"602 19 CURVE"
);
}
);
width = 637;
}
);
leftKerningGroup = O;
rightKerningGroup = C;
unicode = 0043;
},
{
glyphname = D;
lastChange = "2014-11-10 20:53:51 +0000";
layers = (
{
anchors = (
{
name = center;
position = "{361, 353}";
},
{
name = top;
position = "{331, 705}";
}
);
layerId = UUID0;
name = Regular;
paths = (
{
closed = 1;
nodes = (
"268 715 OFFCURVE",
"211 707 OFFCURVE",
"147 705 CURVE",
"113 707 OFFCURVE",
"49 710 OFFCURVE",
"49 710 CURVE",
"44 656 LINE",
"121 644 LINE",
"123 631 OFFCURVE",
"130 585 OFFCURVE",
"130 568 CURVE SMOOTH",
"130 137 LINE SMOOTH",
"130 120 OFFCURVE",
"123 74 OFFCURVE",
"121 61 CURVE",
"42 45 LINE",
"47 -5 LINE",
"47 -5 OFFCURVE",
"144 0 OFFCURVE",
"165 0 CURVE SMOOTH",
"225 0 OFFCURVE",
"294 -6 OFFCURVE",
"334 -6 CURVE SMOOTH",
"550 -6 OFFCURVE",
"679 139 OFFCURVE",
"679 352 CURVE SMOOTH",
"679 575 OFFCURVE",
"557 715 OFFCURVE",
"334 715 CURVE SMOOTH"
);
},
{
closed = 1;
nodes = (
"502 655 OFFCURVE",
"580 519 OFFCURVE",
"580 352 CURVE SMOOTH",
"580 187 OFFCURVE",
"502 53 OFFCURVE",
"335 53 CURVE SMOOTH",
"291 53 OFFCURVE",
"254 55 OFFCURVE",
"228 57 CURVE",
"227 61 OFFCURVE",
"221 119 OFFCURVE",
"221 167 CURVE SMOOTH",
"221 538 LINE SMOOTH",
"221 578 OFFCURVE",
"226 631 OFFCURVE",
"228 650 CURVE",
"253 653 OFFCURVE",
"289 655 OFFCURVE",
"335 655 CURVE SMOOTH"
);
}
);
width = 721;
},
{
anchors = (
{
name = center;
position = "{370, 353}";
},
{
name = top;
position = "{350, 705}";
}
);
layerId = "16643525-C5DD-48EC-8E99-463BF28F5E85";
name = Bold;
paths = (
{
closed = 1;
nodes = (
"311 715 OFFCURVE",
"199 705 OFFCURVE",
"151 705 CURVE",
"104 705 OFFCURVE",
"51 710 OFFCURVE",
"51 710 CURVE",
"46 635 LINE",
"111 623 LINE",
"111 623 OFFCURVE",
"120 562 OFFCURVE",
"120 512 CURVE SMOOTH",
"120 163 LINE SMOOTH",
"120 143 OFFCURVE",
"111 77 OFFCURVE",
"111 77 CURVE",
"45 65 LINE",
"50 -5 LINE",
"50 -5 OFFCURVE",
"103 0 OFFCURVE",
"150 0 CURVE SMOOTH",
"210 0 OFFCURVE",
"297 -6 OFFCURVE",
"360 -6 CURVE SMOOTH",
"592 -6 OFFCURVE",
"712 141 OFFCURVE",
"712 352 CURVE SMOOTH",
"712 567 OFFCURVE",
"592 715 OFFCURVE",
"360 715 CURVE SMOOTH"
);
},
{
closed = 1;
nodes = (
"493 632 OFFCURVE",
"545 506 OFFCURVE",
"545 354 CURVE SMOOTH",
"545 199 OFFCURVE",
"494 77 OFFCURVE",
"344 77 CURVE SMOOTH",
"317 77 OFFCURVE",
"290 79 OFFCURVE",
"279 80 CURVE",
"278 92 OFFCURVE",
"275 149 OFFCURVE",
"275 193 CURVE SMOOTH",
"275 542 LINE SMOOTH",
"275 558 OFFCURVE",
"278 607 OFFCURVE",
"279 624 CURVE",
"302 628 OFFCURVE",
"326 632 OFFCURVE",
"346 632 CURVE SMOOTH"
);
}
);
width = 739;
}
);
leftKerningGroup = H;
rightKerningGroup = O;
unicode = 0044;
},
{
glyphname = E;
lastChange = "2014-11-10 20:53:51 +0000";
layers = (
{
anchors = (
{
name = bottom;
position = "{308, 0}";
},
{
name = ogonek;
position = "{479, 10}";
},
{
name = top;
position = "{294, 705}";
}
);
layerId = UUID0;
name = Regular;
paths = (
{
closed = 1;
nodes = (
"44 656 LINE",
"121 644 LINE",
"123 631 OFFCURVE",
"130 585 OFFCURVE",
"130 568 CURVE SMOOTH",
"130 137 LINE SMOOTH",
"130 120 OFFCURVE",
"123 74 OFFCURVE",
"121 61 CURVE",
"42 45 LINE",
"47 -5 LINE",
"47 -5 OFFCURVE",
"145 0 OFFCURVE",
"165 0 CURVE SMOOTH",
"402 0 LINE SMOOTH",
"422 0 OFFCURVE",
"516 -4 OFFCURVE",
"516 -4 CURVE",
"535 14 LINE",
"550 165 LINE",
"495 170 LINE",
"493 154 OFFCURVE",
"483 118 OFFCURVE",
"480 103 CURVE SMOOTH",
"478 94 OFFCURVE",
"469 80 OFFCURVE",
"459 66 CURVE",
"437 62 OFFCURVE",
"403 57 OFFCURVE",
"372 57 CURVE SMOOTH",
"228 57 LINE",
"226 76 OFFCURVE",
"221 127 OFFCURVE",
"221 167 CURVE SMOOTH",
"221 335 LINE",
"238 337 OFFCURVE",
"255 338 OFFCURVE",
"264 338 CURVE SMOOTH",
"317 338 LINE SMOOTH",
"337 338 OFFCURVE",
"397 332 OFFCURVE",
"397 332 CURVE",
"406 265 LINE",
"454 271 LINE",
"454 271 OFFCURVE",
"451 330 OFFCURVE",
"451 380 CURVE SMOOTH",
"451 400 OFFCURVE",
"452 464 OFFCURVE",
"452 464 CURVE",
"406 469 LINE",
"397 403 LINE",
"397 403 OFFCURVE",
"357 394 OFFCURVE",
"337 394 CURVE SMOOTH",
"264 394 LINE SMOOTH",
"256 394 OFFCURVE",
"238 395 OFFCURVE",
"221 396 CURVE",
"221 538 LINE SMOOTH",
"221 577 OFFCURVE",
"226 628 OFFCURVE",
"228 649 CURVE",
"359 649 LINE SMOOTH",
"387 649 OFFCURVE",
"418 646 OFFCURVE",
"440 644 CURVE",
"450 631 OFFCURVE",
"459 617 OFFCURVE",
"460 610 CURVE",
"464 595 OFFCURVE",
"469 572 OFFCURVE",
"471 556 CURVE",
"529 561 LINE",
"522 697 LINE",
"503 715 LINE",
"503 715 OFFCURVE",
"409 705 OFFCURVE",
"389 705 CURVE SMOOTH",
"165 705 LINE SMOOTH",
"145 705 OFFCURVE",
"49 710 OFFCURVE",
"49 710 CURVE"
);
}
);
width = 588;
},
{
anchors = (
{
name = bottom;
position = "{340, 0}";
},
{
name = ogonek;
position = "{524, 10}";
},
{
name = top;
position = "{305, 705}";
}
);
layerId = "16643525-C5DD-48EC-8E99-463BF28F5E85";
name = Bold;
paths = (
{
closed = 1;
nodes = (
"46 635 LINE",
"111 623 LINE",
"116 602 OFFCURVE",
"120 562 OFFCURVE",
"120 512 CURVE SMOOTH",
"120 163 LINE SMOOTH",
"120 143 OFFCURVE",
"114 87 OFFCURVE",
"111 77 CURVE",
"45 65 LINE",
"50 -5 LINE",
"50 -5 OFFCURVE",
"103 -1 OFFCURVE",
"151 0 CURVE SMOOTH",
"433 0 LINE SMOOTH",
"453 0 OFFCURVE",
"547 -4 OFFCURVE",
"547 -4 CURVE",
"566 14 LINE",
"581 190 LINE",
"511 195 LINE",
"509 179 OFFCURVE",
"503 153 OFFCURVE",
"499 138 CURVE SMOOTH",
"496 128 OFFCURVE",
"490 113 OFFCURVE",
"480 95 CURVE",
"460 91 OFFCURVE",
"432 87 OFFCURVE",
"403 87 CURVE SMOOTH",
"278 87 LINE",
"277 107 OFFCURVE",
"275 155 OFFCURVE",
"275 193 CURVE SMOOTH",
"275 315 LINE",
"282 316 OFFCURVE",
"303 316 OFFCURVE",
"306 316 CURVE SMOOTH",
"337 316 LINE SMOOTH",
"357 316 OFFCURVE",
"401 310 OFFCURVE",
"401 310 CURVE",
"410 250 LINE",
"474 256 LINE",
"474 256 OFFCURVE",
"471 333 OFFCURVE",
"471 383 CURVE SMOOTH",
"471 403 OFFCURVE",
"472 466 OFFCURVE",
"472 466 CURVE",
"410 471 LINE",
"401 407 LINE",
"401 407 OFFCURVE",
"377 398 OFFCURVE",
"357 398 CURVE SMOOTH",
"301 398 LINE SMOOTH",
"296 398 OFFCURVE",
"285 398 OFFCURVE",
"275 399 CURVE",
"275 542 LINE SMOOTH",
"275 558 OFFCURVE",
"278 605 OFFCURVE",
"279 623 CURVE",
"389 623 LINE SMOOTH",
"419 623 OFFCURVE",
"448 621 OFFCURVE",
"468 619 CURVE",
"473 611 OFFCURVE",
"477 599 OFFCURVE",
"478 595 CURVE",
"482 580 OFFCURVE",
"485 552 OFFCURVE",
"487 536 CURVE",
"559 541 LINE",
"552 697 LINE",
"533 715 LINE",
"533 715 OFFCURVE",
"439 705 OFFCURVE",
"419 705 CURVE SMOOTH",
"151 705 LINE SMOOTH",
"115 705 OFFCURVE",
"51 710 OFFCURVE",
"51 710 CURVE"
);
}
);
width = 616;
}
);
leftKerningGroup = H;
rightKerningGroup = E;
unicode = 0045;
},
{
glyphname = Eth;
lastChange = "2014-11-10 20:53:51 +0000";
layers = (
{
layerId = UUID0;
name = Regular;
paths = (
{
closed = 1;
nodes = (
"44 656 LINE",
"121 644 LINE",
"123 631 OFFCURVE",
"130 585 OFFCURVE",
"130 568 CURVE SMOOTH",
"130 380 LINE",
"42 380 LINE",
"42 337 LINE",
"130 337 LINE",
"130 137 LINE SMOOTH",
"130 120 OFFCURVE",
"123 74 OFFCURVE",
"121 61 CURVE",
"42 45 LINE",
"47 -5 LINE",
"47 -5 OFFCURVE",
"144 0 OFFCURVE",
"165 0 CURVE SMOOTH",
"225 0 OFFCURVE",
"294 -6 OFFCURVE",
"334 -6 CURVE SMOOTH",
"550 -6 OFFCURVE",
"679 139 OFFCURVE",
"679 352 CURVE SMOOTH",
"679 575 OFFCURVE",
"557 715 OFFCURVE",
"334 715 CURVE SMOOTH",
"268 715 OFFCURVE",
"211 707 OFFCURVE",
"147 705 CURVE",
"113 707 OFFCURVE",
"49 710 OFFCURVE",
"49 710 CURVE"
);
},
{
closed = 1;
nodes = (
"221 337 LINE",
"359 337 LINE",
"364 380 LINE",
"221 380 LINE",
"221 538 LINE SMOOTH",
"221 578 OFFCURVE",
"226 631 OFFCURVE",
"228 650 CURVE",
"253 653 OFFCURVE",
"289 655 OFFCURVE",
"335 655 CURVE SMOOTH",
"502 655 OFFCURVE",
"580 519 OFFCURVE",
"580 352 CURVE SMOOTH",
"580 187 OFFCURVE",
"502 53 OFFCURVE",
"335 53 CURVE SMOOTH",
"291 53 OFFCURVE",
"254 55 OFFCURVE",
"228 57 CURVE",
"227 61 OFFCURVE",
"221 119 OFFCURVE",
"221 167 CURVE SMOOTH"
);
}
);
width = 721;
},
{
layerId = "16643525-C5DD-48EC-8E99-463BF28F5E85";
name = Bold;
paths = (
{
closed = 1;
nodes = (
"37 635 LINE",
"102 623 LINE",
"102 623 OFFCURVE",
"111 562 OFFCURVE",
"111 512 CURVE SMOOTH",
"111 395 LINE",
"42 395 LINE",
"42 322 LINE",
"111 322 LINE",
"111 163 LINE SMOOTH",
"111 143 OFFCURVE",
"102 77 OFFCURVE",
"102 77 CURVE",
"36 65 LINE",
"41 -5 LINE",
"41 -5 OFFCURVE",
"94 0 OFFCURVE",
"141 0 CURVE SMOOTH",
"201 0 OFFCURVE",
"288 -6 OFFCURVE",
"351 -6 CURVE SMOOTH",
"583 -6 OFFCURVE",
"703 141 OFFCURVE",
"703 352 CURVE SMOOTH",
"703 567 OFFCURVE",
"583 715 OFFCURVE",
"351 715 CURVE SMOOTH",
"302 715 OFFCURVE",
"190 705 OFFCURVE",
"142 705 CURVE",
"95 705 OFFCURVE",
"42 710 OFFCURVE",
"42 710 CURVE"
);
},
{
closed = 1;
nodes = (
"266 322 LINE",
"359 322 LINE",
"364 395 LINE",
"266 395 LINE",
"266 542 LINE SMOOTH",
"266 558 OFFCURVE",
"269 607 OFFCURVE",
"270 624 CURVE",
"293 628 OFFCURVE",
"317 632 OFFCURVE",
"337 632 CURVE SMOOTH",
"484 632 OFFCURVE",
"536 506 OFFCURVE",
"536 354 CURVE SMOOTH",
"536 199 OFFCURVE",
"485 77 OFFCURVE",
"335 77 CURVE SMOOTH",
"308 77 OFFCURVE",
"281 79 OFFCURVE",
"270 80 CURVE",
"269 92 OFFCURVE",
"266 149 OFFCURVE",
"266 193 CURVE SMOOTH"
);
}
);
width = 684;
}
);
unicode = 00D0;
},
{
glyphname = F;
lastChange = "2014-11-10 20:53:51 +0000";
layers = (
{
layerId = UUID0;
name = Regular;
paths = (
{
closed = 1;
nodes = (
"522 697 LINE",
"529 561 LINE",
"471 556 LINE",
"469 572 OFFCURVE",
"464 595 OFFCURVE",
"460 610 CURVE",
"459 617 OFFCURVE",
"450 631 OFFCURVE",
"440 644 CURVE",
"418 646 OFFCURVE",
"387 649 OFFCURVE",
"359 649 CURVE SMOOTH",
"228 649 LINE",
"226 628 OFFCURVE",
"221 577 OFFCURVE",
"221 538 CURVE SMOOTH",
"221 388 LINE",
"238 387 OFFCURVE",
"256 386 OFFCURVE",
"264 386 CURVE SMOOTH",
"337 386 LINE SMOOTH",
"357 386 OFFCURVE",
"397 395 OFFCURVE",
"397 395 CURVE",
"406 461 LINE",
"452 456 LINE",
"452 456 OFFCURVE",
"451 392 OFFCURVE",
"451 372 CURVE SMOOTH",
"451 322 OFFCURVE",
"454 263 OFFCURVE",
"454 263 CURVE",
"406 257 LINE",
"397 324 LINE",
"397 324 OFFCURVE",
"337 330 OFFCURVE",
"317 330 CURVE SMOOTH",
"264 330 LINE SMOOTH",
"255 330 OFFCURVE",
"238 329 OFFCURVE",
"221 327 CURVE",
"221 167 LINE SMOOTH",
"221 125 OFFCURVE",
"226 75 OFFCURVE",
"228 61 CURVE",
"328 54 LINE",
"321 -5 LINE",
"321 -5 OFFCURVE",
"245 0 OFFCURVE",
"165 0 CURVE SMOOTH",
"145 0 OFFCURVE",
"47 -5 OFFCURVE",
"47 -5 CURVE",
"42 45 LINE",
"121 61 LINE",
"123 74 OFFCURVE",
"130 120 OFFCURVE",
"130 137 CURVE SMOOTH",
"130 568 LINE SMOOTH",
"130 585 OFFCURVE",
"123 631 OFFCURVE",
"121 644 CURVE",
"44 656 LINE",
"49 710 LINE",
"49 710 OFFCURVE",
"145 705 OFFCURVE",
"165 705 CURVE SMOOTH",
"389 705 LINE SMOOTH",
"409 705 OFFCURVE",
"503 715 OFFCURVE",
"503 715 CURVE"
);
}
);
width = 552;
},
{
layerId = "16643525-C5DD-48EC-8E99-463BF28F5E85";
name = Bold;
paths = (
{
closed = 1;
nodes = (
"552 697 LINE",
"559 541 LINE",
"487 536 LINE",
"485 552 OFFCURVE",
"482 580 OFFCURVE",
"478 595 CURVE",
"477 599 OFFCURVE",
"473 608 OFFCURVE",
"469 618 CURVE",
"449 620 OFFCURVE",
"419 623 OFFCURVE",
"389 623 CURVE SMOOTH",
"279 623 LINE",
"278 605 OFFCURVE",
"275 558 OFFCURVE",
"275 542 CURVE SMOOTH",
"275 388 LINE",
"286 387 OFFCURVE",
"293 387 OFFCURVE",
"299 387 CURVE SMOOTH",
"357 387 LINE SMOOTH",
"377 387 OFFCURVE",
"401 396 OFFCURVE",
"401 396 CURVE",
"410 460 LINE",
"472 455 LINE",
"472 455 OFFCURVE",
"471 392 OFFCURVE",
"471 372 CURVE SMOOTH",
"471 322 OFFCURVE",
"474 245 OFFCURVE",
"474 245 CURVE",
"410 239 LINE",
"401 299 LINE",
"401 299 OFFCURVE",
"357 305 OFFCURVE",
"337 305 CURVE SMOOTH",
"300 305 LINE SMOOTH",
"294 305 OFFCURVE",
"283 305 OFFCURVE",
"275 304 CURVE",
"275 190 LINE SMOOTH",
"275 140 OFFCURVE",
"280 94 OFFCURVE",
"284 77 CURVE",
"379 71 LINE",
"374 -5 LINE",
"374 -5 OFFCURVE",
"263 0 OFFCURVE",
"150 0 CURVE SMOOTH",
"103 0 OFFCURVE",
"50 -5 OFFCURVE",
"50 -5 CURVE",
"45 65 LINE",
"111 77 LINE",
"114 87 OFFCURVE",
"120 143 OFFCURVE",
"120 163 CURVE SMOOTH",
"120 512 LINE SMOOTH",
"120 562 OFFCURVE",
"115 609 OFFCURVE",
"111 623 CURVE",
"46 635 LINE",
"51 710 LINE",
"51 710 OFFCURVE",
"104 705 OFFCURVE",
"151 705 CURVE SMOOTH",
"419 705 LINE SMOOTH",
"439 705 OFFCURVE",
"533 715 OFFCURVE",
"533 715 CURVE"
);
}
);
width = 569;
}
);
leftKerningGroup = H;
rightKerningGroup = F;
unicode = 0046;
},
{
glyphname = G;
lastChange = "2014-11-10 20:53:51 +0000";
layers = (
{
anchors = (
{
name = bottom;
position = "{392, 0}";
},
{
name = top;
position = "{380, 705}";
}
);
layerId = UUID0;
name = Regular;
paths = (
{
closed = 1;
nodes = (
"155 720 OFFCURVE",
"42 570 OFFCURVE",
"42 352 CURVE SMOOTH",
"42 134 OFFCURVE",
"155 -15 OFFCURVE",
"376 -15 CURVE SMOOTH",
"462 -15 OFFCURVE",
"538 3 OFFCURVE",
"605 19 CURVE",
"605 166 LINE SMOOTH",
"605 216 OFFCURVE",
"614 319 OFFCURVE",
"614 319 CURVE",
"596 336 LINE",
"596 336 OFFCURVE",
"545 333 OFFCURVE",
"525 333 CURVE",
"414 333 LINE",
"409 275 LINE",
"515 267 LINE",
"515 267 OFFCURVE",
"525 216 OFFCURVE",
"525 196 CURVE SMOOTH",
"525 128 LINE SMOOTH",
"525 117 OFFCURVE",
"519 89 OFFCURVE",
"513 63 CURVE",
"468 51 OFFCURVE",
"413 43 OFFCURVE",
"373 43 CURVE SMOOTH",
"218 43 OFFCURVE",
"143 180 OFFCURVE",
"143 353 CURVE SMOOTH",
"143 526 OFFCURVE",
"218 662 OFFCURVE",
"373 662 CURVE SMOOTH",
"416 662 OFFCURVE",
"471 651 OFFCURVE",
"515 638 CURVE",
"521 618 OFFCURVE",
"527 597 OFFCURVE",
"527 589 CURVE SMOOTH",
"527 544 LINE",
"585 538 LINE",
"596 686 LINE",
"529 702 OFFCURVE",
"463 720 OFFCURVE",
"376 720 CURVE SMOOTH"
);
}
);
width = 666;
},
{
anchors = (
{
name = bottom;
position = "{396, 0}";
},
{
name = top;
position = "{393, 705}";
}
);
layerId = "16643525-C5DD-48EC-8E99-463BF28F5E85";
name = Bold;
paths = (
{
closed = 1;
nodes = (
"151 720 OFFCURVE",
"27 570 OFFCURVE",
"27 352 CURVE SMOOTH",
"27 134 OFFCURVE",
"151 -15 OFFCURVE",
"394 -15 CURVE SMOOTH",
"484 -15 OFFCURVE",
"563 3 OFFCURVE",
"632 19 CURVE",
"632 196 LINE SMOOTH",
"632 246 OFFCURVE",
"641 341 OFFCURVE",
"641 341 CURVE",
"613 366 LINE",
"613 366 OFFCURVE",
"531 363 OFFCURVE",
"498 363 CURVE",
"387 363 LINE",
"382 265 LINE",
"488 257 LINE",
"488 257 OFFCURVE",
"498 216 OFFCURVE",
"498 196 CURVE SMOOTH",
"498 128 LINE SMOOTH",
"498 120 OFFCURVE",
"495 104 OFFCURVE",
"491 86 CURVE",
"458 81 OFFCURVE",
"427 78 OFFCURVE",
"393 78 CURVE SMOOTH",
"259 78 OFFCURVE",
"207 200 OFFCURVE",
"207 353 CURVE SMOOTH",
"207 506 OFFCURVE",
"260 627 OFFCURVE",
"394 627 CURVE SMOOTH",
"436 627 OFFCURVE",
"472 622 OFFCURVE",
"516 613 CURVE",
"521 600 OFFCURVE",
"528 578 OFFCURVE",
"528 572 CURVE SMOOTH",
"531 525 LINE",
"610 521 LINE",
"623 686 LINE",
"554 702 OFFCURVE",
"485 720 OFFCURVE",
"394 720 CURVE SMOOTH"
);
}
);
width = 699;
}
);
leftKerningGroup = O;
rightKerningGroup = G;
unicode = 0047;
},
{
glyphname = H;
lastChange = "2014-11-10 20:53:51 +0000";
layers = (
{
anchors = (
{
name = center;
position = "{387, 353}";
},
{
name = top;
position = "{387, 705}";
}
);
layerId = UUID0;
name = Regular;
paths = (
{
closed = 1;
nodes = (
"724 710 LINE",
"724 710 OFFCURVE",
"667 705 OFFCURVE",
"587 705 CURVE SMOOTH",
"567 705 OFFCURVE",
"471 710 OFFCURVE",
"471 710 CURVE",
"466 656 LINE",
"543 644 LINE",
"545 631 OFFCURVE",
"552 585 OFFCURVE",
"552 568 CURVE SMOOTH",
"552 383 LINE",
"221 378 LINE",
"221 538 LINE SMOOTH",
"221 580 OFFCURVE",
"226 630 OFFCURVE",
"228 644 CURVE",
"306 651 LINE",
"302 710 LINE",
"302 710 OFFCURVE",
"245 705 OFFCURVE",
"165 705 CURVE SMOOTH",
"145 705 OFFCURVE",
"49 710 OFFCURVE",
"49 710 CURVE",
"44 656 LINE",
"121 644 LINE",
"123 631 OFFCURVE",
"130 585 OFFCURVE",
"130 568 CURVE SMOOTH",
"130 137 LINE SMOOTH",
"130 120 OFFCURVE",
"123 74 OFFCURVE",
"121 61 CURVE",
"42 45 LINE",
"47 -5 LINE",
"47 -5 OFFCURVE",
"145 0 OFFCURVE",
"165 0 CURVE SMOOTH",
"245 0 OFFCURVE",
"311 -5 OFFCURVE",
"311 -5 CURVE",
"318 54 LINE",
"228 61 LINE",
"226 75 OFFCURVE",
"221 125 OFFCURVE",
"221 167 CURVE SMOOTH",
"221 327 LINE",
"552 327 LINE",
"552 137 LINE SMOOTH",
"552 120 OFFCURVE",
"545 74 OFFCURVE",
"543 61 CURVE",
"464 45 LINE",
"469 -5 LINE",
"469 -5 OFFCURVE",
"567 0 OFFCURVE",
"587 0 CURVE SMOOTH",
"667 0 OFFCURVE",
"733 -5 OFFCURVE",
"733 -5 CURVE",
"740 54 LINE",
"650 61 LINE",
"648 75 OFFCURVE",
"643 125 OFFCURVE",
"643 167 CURVE SMOOTH",
"643 538 LINE SMOOTH",
"643 580 OFFCURVE",
"648 630 OFFCURVE",
"650 644 CURVE",
"728 651 LINE"
);
}
);
width = 773;
},
{
anchors = (
{
name = center;
position = "{414, 353}";
},
{
name = top;
position = "{414, 705}";
}
);
annotations = (
{
position = "{412.727, 575.758}";
text = 45;
type = Text;
}
);
layerId = "16643525-C5DD-48EC-8E99-463BF28F5E85";
name = Bold;
paths = (
{
closed = 1;
nodes = (
"777 710 LINE",
"777 710 OFFCURVE",
"696 705 OFFCURVE",
"583 705 CURVE SMOOTH",
"536 705 OFFCURVE",
"483 710 OFFCURVE",
"483 710 CURVE",
"478 635 LINE",
"543 623 LINE",
"545 607 OFFCURVE",
"552 562 OFFCURVE",
"552 512 CURVE SMOOTH",
"552 393 LINE",
"275 389 LINE",
"275 542 LINE SMOOTH",
"275 562 OFFCURVE",
"281 608 OFFCURVE",
"284 623 CURVE",
"350 629 LINE",
"345 710 LINE",
"345 710 OFFCURVE",
"264 705 OFFCURVE",
"151 705 CURVE SMOOTH",
"104 705 OFFCURVE",
"51 710 OFFCURVE",
"51 710 CURVE",
"46 635 LINE",
"111 623 LINE",
"113 607 OFFCURVE",
"120 562 OFFCURVE",
"120 512 CURVE SMOOTH",
"120 163 LINE SMOOTH",
"120 143 OFFCURVE",
"112 87 OFFCURVE",
"111 77 CURVE",
"45 65 LINE",
"50 -5 LINE",
"50 -5 OFFCURVE",
"103 0 OFFCURVE",
"150 0 CURVE SMOOTH",
"263 0 OFFCURVE",
"344 -5 OFFCURVE",
"344 -5 CURVE",
"349 71 LINE",
"284 77 LINE",
"282 91 OFFCURVE",
"275 143 OFFCURVE",
"275 193 CURVE SMOOTH",
"275 302 LINE",
"552 302 LINE",
"552 163 LINE SMOOTH",
"552 143 OFFCURVE",
"544 87 OFFCURVE",
"543 77 CURVE",
"477 65 LINE",
"482 -5 LINE",
"482 -5 OFFCURVE",
"535 0 OFFCURVE",
"582 0 CURVE SMOOTH",
"695 0 OFFCURVE",
"776 -5 OFFCURVE",
"776 -5 CURVE",
"781 71 LINE",
"716 77 LINE",
"714 91 OFFCURVE",
"707 143 OFFCURVE",
"707 193 CURVE SMOOTH",
"707 542 LINE SMOOTH",
"707 562 OFFCURVE",
"713 608 OFFCURVE",
"716 623 CURVE",
"782 629 LINE"
);
}
);
width = 827;
}
);
leftKerningGroup = H;
rightKerningGroup = H;
unicode = 0048;
},
{
glyphname = I;
lastChange = "2014-11-10 20:53:51 +0000";
layers = (
{
anchors = (
{
name = bottom;
position = "{190, 0}";
},
{
name = ogonek;
position = "{257, 10}";
},
{
name = top;
position = "{182, 705}";
}
);
layerId = UUID0;
name = Regular;
paths = (
{
closed = 1;
nodes = (
"308 710 LINE",
"308 710 OFFCURVE",
"251 705 OFFCURVE",
"171 705 CURVE SMOOTH",
"151 705 OFFCURVE",
"55 710 OFFCURVE",
"55 710 CURVE",
"50 656 LINE",
"127 644 LINE",
"129 631 OFFCURVE",
"136 585 OFFCURVE",
"136 568 CURVE SMOOTH",
"136 137 LINE SMOOTH",
"136 120 OFFCURVE",
"129 74 OFFCURVE",
"127 61 CURVE",
"48 45 LINE",
"53 -5 LINE",
"53 -5 OFFCURVE",
"151 0 OFFCURVE",
"171 0 CURVE SMOOTH",
"251 0 OFFCURVE",
"317 -5 OFFCURVE",
"317 -5 CURVE",
"324 54 LINE",
"234 61 LINE",
"232 75 OFFCURVE",
"227 125 OFFCURVE",
"227 167 CURVE SMOOTH",
"227 538 LINE SMOOTH",
"227 580 OFFCURVE",
"232 630 OFFCURVE",
"234 644 CURVE",
"312 651 LINE"
);
}
);
width = 363;
},
{
anchors = (
{
name = bottom;
position = "{203, 0}";
},
{
name = ogonek;
position = "{305, 10}";
},
{
name = top;
position = "{203, 705}";
}
);
layerId = "16643525-C5DD-48EC-8E99-463BF28F5E85";
name = Bold;
paths = (
{
closed = 1;
nodes = (
"350 710 LINE",
"350 710 OFFCURVE",
"269 705 OFFCURVE",
"156 705 CURVE SMOOTH",
"109 705 OFFCURVE",
"56 710 OFFCURVE",
"56 710 CURVE",
"51 635 LINE",
"116 623 LINE",
"118 607 OFFCURVE",
"125 562 OFFCURVE",
"125 512 CURVE SMOOTH",
"125 163 LINE SMOOTH",
"125 143 OFFCURVE",
"117 87 OFFCURVE",
"116 77 CURVE",
"50 65 LINE",
"55 -5 LINE",
"55 -5 OFFCURVE",
"108 0 OFFCURVE",
"155 0 CURVE SMOOTH",
"268 0 OFFCURVE",
"349 -5 OFFCURVE",
"349 -5 CURVE",
"354 71 LINE",
"289 77 LINE",
"287 91 OFFCURVE",
"280 143 OFFCURVE",
"280 193 CURVE SMOOTH",
"280 542 LINE SMOOTH",
"280 562 OFFCURVE",
"286 608 OFFCURVE",
"289 623 CURVE",
"355 629 LINE"
);
}
);
width = 405;
}
);
leftKerningGroup = H;
rightKerningGroup = H;
unicode = 0049;
},
{
glyphname = J;
lastChange = "2014-11-10 20:53:51 +0000";
layers = (
{
anchors = (
{
name = top;
position = "{166, 705}";
}
);
layerId = UUID0;
name = Regular;
paths = (
{
closed = 1;
nodes = (
"302 651 LINE",
"298 710 LINE",
"298 710 OFFCURVE",
"241 705 OFFCURVE",
"161 705 CURVE SMOOTH",
"141 705 OFFCURVE",
"45 710 OFFCURVE",
"45 710 CURVE",
"40 656 LINE",
"117 644 LINE",
"119 631 OFFCURVE",
"126 585 OFFCURVE",
"126 568 CURVE SMOOTH",
"126 11 LINE SMOOTH",
"126 -9 OFFCURVE",
"46 -178 OFFCURVE",
"46 -178 CURVE",
"80 -200 LINE",
"127 -144 OFFCURVE",
"217 -37 OFFCURVE",
"217 -10 CURVE SMOOTH",
"217 538 LINE SMOOTH",
"217 580 OFFCURVE",
"222 630 OFFCURVE",
"224 644 CURVE"
);
}
);
width = 332;
},
{
anchors = (
{
name = top;
position = "{186, 705}";
}
);
layerId = "16643525-C5DD-48EC-8E99-463BF28F5E85";
name = Bold;
paths = (
{
closed = 1;
nodes = (
"338 629 LINE",
"333 710 LINE",
"333 710 OFFCURVE",
"252 705 OFFCURVE",
"139 705 CURVE SMOOTH",
"92 705 OFFCURVE",
"39 710 OFFCURVE",
"39 710 CURVE",
"34 635 LINE",
"99 623 LINE",
"102 608 OFFCURVE",
"108 562 OFFCURVE",
"108 512 CURVE SMOOTH",
"108 11 LINE SMOOTH",
"108 -9 OFFCURVE",
"32 -169 OFFCURVE",
"32 -169 CURVE",
"86 -200 LINE",
"182 -111 OFFCURVE",
"263 -23 OFFCURVE",
"263 10 CURVE SMOOTH",
"263 542 LINE SMOOTH",
"263 562 OFFCURVE",
"270 614 OFFCURVE",
"272 623 CURVE"
);
}
);
width = 371;
}
);
leftKerningGroup = J;
rightKerningGroup = J;
unicode = 004A;
},
{
glyphname = K;
lastChange = "2014-11-10 20:53:51 +0000";
layers = (
{
anchors = (
{
name = bottom;
position = "{349, 0}";
},
{
name = top;
position = "{349, 705}";
}
);
layerId = UUID0;
name = Regular;
paths = (
{
closed = 1;
nodes = (
"688 54 LINE",
"618 61 LINE",
"594 81 OFFCURVE",
"556 113 OFFCURVE",
"541 129 CURVE",
"472 209 OFFCURVE",
"400 290 OFFCURVE",
"330 370 CURVE",
"462 546 LINE",
"492 576 OFFCURVE",
"538 620 OFFCURVE",
"564 644 CURVE",
"640 651 LINE",
"636 710 LINE",
"636 710 OFFCURVE",
"589 705 OFFCURVE",
"509 705 CURVE SMOOTH",
"489 705 OFFCURVE",
"403 710 OFFCURVE",
"403 710 CURVE",
"398 656 LINE",
"452 645 LINE",
"413 577 LINE",
"231 353 LINE",
"231 353 OFFCURVE",
"375 188 OFFCURVE",
"396 164 CURVE",
"413 142 OFFCURVE",
"450 85 OFFCURVE",
"466 59 CURVE",
"407 45 LINE",
"412 -5 LINE",
"412 -5 OFFCURVE",
"520 0 OFFCURVE",
"540 0 CURVE SMOOTH",
"620 0 OFFCURVE",
"681 -5 OFFCURVE",
"681 -5 CURVE"
);
},
{
closed = 1;
nodes = (
"306 651 LINE",
"228 644 LINE",
"226 630 OFFCURVE",
"221 580 OFFCURVE",
"221 538 CURVE SMOOTH",
"221 167 LINE SMOOTH",
"221 125 OFFCURVE",
"226 75 OFFCURVE",
"228 61 CURVE",
"318 54 LINE",
"311 -5 LINE",
"311 -5 OFFCURVE",
"245 0 OFFCURVE",
"165 0 CURVE SMOOTH",
"145 0 OFFCURVE",
"47 -5 OFFCURVE",
"47 -5 CURVE",
"42 45 LINE",
"121 61 LINE",
"123 74 OFFCURVE",
"130 120 OFFCURVE",
"130 137 CURVE SMOOTH",
"130 568 LINE SMOOTH",
"130 585 OFFCURVE",
"123 631 OFFCURVE",
"121 644 CURVE",
"44 656 LINE",
"49 710 LINE",
"49 710 OFFCURVE",
"145 705 OFFCURVE",
"165 705 CURVE SMOOTH",
"245 705 OFFCURVE",
"302 710 OFFCURVE",
"302 710 CURVE"
);
}
);
width = 698;
},
{
anchors = (
{
name = bottom;
position = "{376, 0}";
},
{
name = top;
position = "{376, 705}";
}
);
layerId = "16643525-C5DD-48EC-8E99-463BF28F5E85";
name = Bold;
paths = (
{
closed = 1;
nodes = (
"756 71 LINE",
"708 77 LINE",
"688 95 OFFCURVE",
"663 117 OFFCURVE",
"653 129 CURVE",
"586 209 OFFCURVE",
"516 290 OFFCURVE",
"448 370 CURVE",
"577 546 LINE",
"598 569 OFFCURVE",
"628 599 OFFCURVE",
"653 623 CURVE",
"711 629 LINE",
"706 710 LINE",
"706 710 OFFCURVE",
"651 705 OFFCURVE",
"540 705 CURVE SMOOTH",
"492 705 OFFCURVE",
"443 710 OFFCURVE",
"443 710 CURVE",
"438 635 LINE",
"469 629 LINE",
"441 577 LINE",
"279 353 LINE",
"279 353 OFFCURVE",
"408 188 OFFCURVE",
"429 164 CURVE",
"443 145 OFFCURVE",
"470 102 OFFCURVE",
"488 73 CURVE",
"449 65 LINE",
"454 -5 LINE",
"454 -5 OFFCURVE",
"501 0 OFFCURVE",
"549 0 CURVE SMOOTH",
"661 0 OFFCURVE",
"751 -5 OFFCURVE",
"751 -5 CURVE"
);
},
{
closed = 1;
nodes = (
"347 629 LINE",
"284 623 LINE",
"281 608 OFFCURVE",
"275 562 OFFCURVE",
"275 542 CURVE SMOOTH",
"275 193 LINE SMOOTH",
"275 143 OFFCURVE",
"282 91 OFFCURVE",
"284 77 CURVE",
"345 71 LINE",
"340 -5 LINE",
"340 -5 OFFCURVE",
"261 0 OFFCURVE",
"149 0 CURVE SMOOTH",
"101 0 OFFCURVE",
"53 -5 OFFCURVE",
"53 -5 CURVE",
"48 65 LINE",
"111 77 LINE",
"112 87 OFFCURVE",
"120 143 OFFCURVE",
"120 163 CURVE SMOOTH",
"120 512 LINE SMOOTH",
"120 562 OFFCURVE",
"113 607 OFFCURVE",
"111 623 CURVE",
"49 635 LINE",
"54 710 LINE",
"54 710 OFFCURVE",
"102 705 OFFCURVE",
"150 705 CURVE SMOOTH",
"262 705 OFFCURVE",
"342 710 OFFCURVE",
"342 710 CURVE"
);
}
);
width = 751;
}
);
leftKerningGroup = H;
rightKerningGroup = X;
unicode = 004B;
},
{
glyphname = L;
lastChange = "2014-11-10 20:53:51 +0000";
layers = (
{
anchors = (
{
name = bottom;
position = "{267, 0}";
},
{
name = top;
position = "{178, 705}";
}
);
layerId = UUID0;
name = Regular;
paths = (
{
closed = 1;
nodes = (
"302 710 LINE",
"302 710 OFFCURVE",
"245 705 OFFCURVE",
"165 705 CURVE SMOOTH",
"145 705 OFFCURVE",
"49 710 OFFCURVE",
"49 710 CURVE",
"44 656 LINE",
"121 644 LINE",
"123 631 OFFCURVE",
"130 585 OFFCURVE",
"130 568 CURVE SMOOTH",
"130 137 LINE SMOOTH",
"130 120 OFFCURVE",
"123 74 OFFCURVE",
"121 61 CURVE",
"42 45 LINE",
"47 -5 LINE",
"47 -5 OFFCURVE",
"145 0 OFFCURVE",
"165 0 CURVE SMOOTH",
"376 0 LINE SMOOTH",
"396 0 OFFCURVE",
"490 -4 OFFCURVE",
"490 -4 CURVE",
"509 14 LINE",
"524 165 LINE",
"469 170 LINE",
"467 154 OFFCURVE",
"458 118 OFFCURVE",
"454 103 CURVE",
"453 96 OFFCURVE",
"443 80 OFFCURVE",
"433 66 CURVE",
"411 62 OFFCURVE",
"377 57 OFFCURVE",
"346 57 CURVE SMOOTH",
"228 57 LINE",
"226 72 OFFCURVE",
"221 126 OFFCURVE",
"221 167 CURVE SMOOTH",
"221 538 LINE SMOOTH",
"221 580 OFFCURVE",
"226 630 OFFCURVE",
"228 644 CURVE",
"306 651 LINE"
);
}
);
width = 534;
},
{
anchors = (
{
name = bottom;
position = "{283, 0}";
},
{
name = top;
position = "{183, 705}";
}
);
layerId = "16643525-C5DD-48EC-8E99-463BF28F5E85";
name = Bold;
paths = (
{
closed = 1;
nodes = (
"345 710 LINE",
"345 710 OFFCURVE",
"264 705 OFFCURVE",
"151 705 CURVE SMOOTH",
"104 705 OFFCURVE",
"51 710 OFFCURVE",
"51 710 CURVE",
"46 635 LINE",
"111 623 LINE",
"113 607 OFFCURVE",
"120 562 OFFCURVE",
"120 512 CURVE SMOOTH",
"120 163 LINE SMOOTH",
"120 143 OFFCURVE",
"112 87 OFFCURVE",
"111 77 CURVE",
"45 65 LINE",
"50 -5 LINE",
"50 -5 OFFCURVE",
"103 0 OFFCURVE",
"150 0 CURVE SMOOTH",
"407 0 LINE SMOOTH",
"427 0 OFFCURVE",
"521 -4 OFFCURVE",
"521 -4 CURVE",
"540 14 LINE",
"555 190 LINE",
"485 195 LINE",
"483 179 OFFCURVE",
"477 153 OFFCURVE",
"473 138 CURVE",
"472 132 OFFCURVE",
"463 114 OFFCURVE",
"454 95 CURVE",
"435 91 OFFCURVE",
"406 87 OFFCURVE",
"377 87 CURVE SMOOTH",
"283 87 LINE",
"280 108 OFFCURVE",
"275 151 OFFCURVE",
"275 193 CURVE SMOOTH",
"275 542 LINE SMOOTH",
"275 562 OFFCURVE",
"281 608 OFFCURVE",
"284 623 CURVE",
"350 629 LINE"
);
}
);
width = 565;
}
);
leftKerningGroup = H;
rightKerningGroup = L;
unicode = 004C;
},
{
glyphname = M;
lastChange = "2014-11-10 20:53:51 +0000";
layers = (
{
layerId = UUID0;
name = Regular;
paths = (
{
closed = 1;
nodes = (
"674 705 LINE",
"654 685 LINE",
"654 685 OFFCURVE",
"611 559 OFFCURVE",
"601 537 CURVE",
"465 175 LINE",
"332 529 LINE",
"323 553 OFFCURVE",
"280 685 OFFCURVE",
"280 685 CURVE",
"261 706 LINE",
"205 706 LINE",
"185 705 OFFCURVE",
"67 710 OFFCURVE",
"67 710 CURVE",
"62 656 LINE",
"144 644 LINE",
"146 630 OFFCURVE",
"148 586 OFFCURVE",
"148 569 CURVE",
"122 132 LINE",
"119 115 OFFCURVE",
"108 74 OFFCURVE",
"105 61 CURVE",
"27 45 LINE",
"32 -5 LINE",
"32 -5 OFFCURVE",
"120 0 OFFCURVE",
"139 0 CURVE SMOOTH",
"217 0 OFFCURVE",
"268 -5 OFFCURVE",
"268 -5 CURVE",
"275 54 LINE",
"194 61 LINE",
"193 77 OFFCURVE",
"189 134 OFFCURVE",
"189 162 CURVE",
"213 584 LINE",
"432 0 LINE",
"468 0 LINE",
"687 584 LINE",
"714 162 LINE",
"714 134 OFFCURVE",
"710 76 OFFCURVE",
"709 61 CURVE",
"631 45 LINE",
"636 -5 LINE",
"636 -5 OFFCURVE",
"736 0 OFFCURVE",
"755 0 CURVE SMOOTH",
"835 0 OFFCURVE",
"901 -5 OFFCURVE",
"901 -5 CURVE",
"907 54 LINE",
"826 61 LINE",
"823 74 OFFCURVE",
"813 115 OFFCURVE",
"810 132 CURVE",
"776 569 LINE",
"776 586 OFFCURVE",
"777 632 OFFCURVE",
"779 644 CURVE",
"859 651 LINE",
"855 710 LINE",
"855 710 OFFCURVE",
"780 705 OFFCURVE",
"700 705 CURVE SMOOTH"
);
}
);
width = 928;
},
{
layerId = "16643525-C5DD-48EC-8E99-463BF28F5E85";
name = Bold;
paths = (
{
closed = 1;
nodes = (
"665 705 LINE",
"645 685 LINE",
"645 685 OFFCURVE",
"612 572 OFFCURVE",
"604 549 CURVE",
"492 221 LINE",
"389 534 LINE",
"377 571 OFFCURVE",
"346 685 OFFCURVE",
"346 685 CURVE",
"326 705 LINE",
"185 705 LINE",
"142 705 OFFCURVE",
"79 710 OFFCURVE",
"79 710 CURVE",
"74 638 LINE",
"141 626 LINE",
"144 608 OFFCURVE",
"147 581 OFFCURVE",
"147 569 CURVE",
"119 132 LINE",
"116 119 OFFCURVE",
"110 92 OFFCURVE",
"105 74 CURVE",
"37 62 LINE",
"42 -5 LINE",
"42 -5 OFFCURVE",
"101 0 OFFCURVE",
"143 0 CURVE SMOOTH",
"251 0 OFFCURVE",
"297 -5 OFFCURVE",
"297 -5 CURVE",
"303 68 LINE",
"235 74 LINE",
"233 97 OFFCURVE",
"231 140 OFFCURVE",
"231 162 CURVE",
"250 518 LINE",
"429 0 LINE",
"521 0 LINE",
"705 518 LINE",
"721 162 LINE",
"721 140 OFFCURVE",
"719 97 OFFCURVE",
"717 74 CURVE",
"650 62 LINE",
"655 -5 LINE",
"655 -5 OFFCURVE",
"716 0 OFFCURVE",
"758 0 CURVE SMOOTH",
"866 0 OFFCURVE",
"938 -5 OFFCURVE",
"938 -5 CURVE",
"943 68 LINE",
"876 74 LINE",
"872 92 OFFCURVE",
"865 119 OFFCURVE",
"863 132 CURVE",
"831 569 LINE",
"831 582 OFFCURVE",
"832 609 OFFCURVE",
"834 627 CURVE",
"898 638 LINE",
"894 710 LINE",
"894 710 OFFCURVE",
"814 705 OFFCURVE",
"762 705 CURVE SMOOTH"
);
}
);
width = 980;
}
);
leftKerningGroup = M;
rightKerningGroup = M;
unicode = 004D;
},
{
glyphname = N;
lastChange = "2014-11-10 20:53:51 +0000";
layers = (
{
anchors = (
{
name = bottom;
position = "{381, 0}";
},
{
name = top;
position = "{381, 705}";
}
);
layerId = UUID0;
name = Regular;
paths = (
{
closed = 1;
nodes = (
"746 657 LINE",
"667 641 LINE",
"663 622 OFFCURVE",
"652 568 OFFCURVE",
"652 528 CURVE SMOOTH",
"652 297 LINE SMOOTH",
"652 257 OFFCURVE",
"651 -7 OFFCURVE",
"651 -7 CURVE",
"591 -7 LINE",
"197 556 LINE",
"197 167 LINE SMOOTH",
"197 125 OFFCURVE",
"202 75 OFFCURVE",
"204 61 CURVE",
"285 54 LINE",
"278 -5 LINE",
"278 -5 OFFCURVE",
"235 0 OFFCURVE",
"155 0 CURVE SMOOTH",
"135 0 OFFCURVE",
"47 -5 OFFCURVE",
"47 -5 CURVE",
"42 45 LINE",
"121 61 LINE",
"123 74 OFFCURVE",
"130 120 OFFCURVE",
"130 137 CURVE SMOOTH",
"130 568 LINE SMOOTH",
"130 584 OFFCURVE",
"123 629 OFFCURVE",
"121 644 CURVE",
"41 656 LINE",
"46 710 LINE",
"46 710 OFFCURVE",
"142 705 OFFCURVE",
"162 705 CURVE SMOOTH",
"206 706 LINE",
"226 685 LINE",
"226 685 OFFCURVE",
"308 552 OFFCURVE",
"323 530 CURVE SMOOTH",
"585 163 LINE",
"585 558 LINE SMOOTH",
"585 574 OFFCURVE",
"579 623 OFFCURVE",
"576 641 CURVE",
"497 647 LINE",
"503 707 LINE",
"585 705 LINE",
"664 705 OFFCURVE",
"741 710 OFFCURVE",
"741 710 CURVE"
);
}
);
width = 761;
},
{
anchors = (
{
name = bottom;
position = "{401, 0}";
},
{
name = top;
position = "{401, 705}";
}
);
layerId = "16643525-C5DD-48EC-8E99-463BF28F5E85";
name = Bold;
paths = (
{
closed = 1;
nodes = (
"782 629 LINE",
"716 623 LINE",
"714 611 OFFCURVE",
"707 562 OFFCURVE",
"707 542 CURVE SMOOTH",
"707 193 LINE SMOOTH",
"707 143 OFFCURVE",
"707 0 OFFCURVE",
"707 0 CURVE",
"572 0 LINE",
"247 450 LINE",
"247 193 LINE SMOOTH",
"247 143 OFFCURVE",
"255 87 OFFCURVE",
"256 77 CURVE",
"321 71 LINE",
"316 -5 LINE",
"316 -5 OFFCURVE",
"263 0 OFFCURVE",
"150 0 CURVE SMOOTH",
"103 0 OFFCURVE",
"50 -5 OFFCURVE",
"50 -5 CURVE",
"45 65 LINE",
"111 77 LINE",
"113 88 OFFCURVE",
"120 143 OFFCURVE",
"120 163 CURVE SMOOTH",
"120 512 LINE SMOOTH",
"120 562 OFFCURVE",
"113 612 OFFCURVE",
"111 623 CURVE",
"46 635 LINE",
"51 710 LINE",
"51 710 OFFCURVE",
"104 705 OFFCURVE",
"151 705 CURVE SMOOTH",
"253 705 LINE",
"272 685 LINE",
"272 685 OFFCURVE",
"345 559 OFFCURVE",
"360 537 CURVE SMOOTH",
"580 230 LINE",
"580 512 LINE SMOOTH",
"580 549 OFFCURVE",
"573 607 OFFCURVE",
"571 623 CURVE",
"506 635 LINE",
"511 710 LINE",
"611 705 LINE",
"692 705 OFFCURVE",
"777 710 OFFCURVE",
"777 710 CURVE"
);
}
);
width = 802;
}
);
leftKerningGroup = H;
rightKerningGroup = H;
unicode = 004E;
},
{
glyphname = O;
lastChange = "2014-11-10 20:53:51 +0000";
layers = (
{
anchors = (
{
name = bottom;
position = "{370, 0}";
},
{
name = horn;
position = "{615, 645}";
},
{
name = top;
position = "{370, 705}";
}
);
layerId = UUID0;
name = Regular;
paths = (
{
closed = 1;
nodes = (
"698 570 OFFCURVE",
"587 720 OFFCURVE",
"370 720 CURVE",
"153 720 OFFCURVE",
"42 570 OFFCURVE",
"42 352 CURVE",
"42 135 OFFCURVE",
"153 -15 OFFCURVE",
"370 -15 CURVE SMOOTH",
"587 -15 OFFCURVE",
"698 135 OFFCURVE",
"698 352 CURVE"
);
},
{
closed = 1;
nodes = (
"149 527 OFFCURVE",
"221 667 OFFCURVE",
"370 667 CURVE",
"519 667 OFFCURVE",
"591 527 OFFCURVE",
"591 352 CURVE",
"591 178 OFFCURVE",
"519 38 OFFCURVE",
"370 38 CURVE SMOOTH",
"221 38 OFFCURVE",
"149 178 OFFCURVE",
"149 352 CURVE"
);
}
);
width = 740;
},
{
anchors = (
{
name = bottom;
position = "{384, 0}";
},
{
name = horn;
position = "{638, 627}";
},
{
name = top;
position = "{383, 705}";
}
);
annotations = (
{
position = "{334.212, 481.818}";
text = 27;
type = Text;
}
);
layerId = "16643525-C5DD-48EC-8E99-463BF28F5E85";
name = Bold;
paths = (
{
closed = 1;
nodes = (
"741 578 OFFCURVE",
"601 724 OFFCURVE",
"384 724 CURVE",
"167 724 OFFCURVE",
"27 578 OFFCURVE",
"27 352 CURVE",
"27 127 OFFCURVE",
"167 -19 OFFCURVE",
"384 -19 CURVE SMOOTH",
"601 -19 OFFCURVE",
"741 127 OFFCURVE",
"741 352 CURVE"
);
},
{
closed = 1;
nodes = (
"207 539 OFFCURVE",
"264 627 OFFCURVE",
"384 627 CURVE",
"504 627 OFFCURVE",
"561 539 OFFCURVE",
"561 352 CURVE",
"561 166 OFFCURVE",
"504 78 OFFCURVE",
"384 78 CURVE SMOOTH",
"264 78 OFFCURVE",
"207 166 OFFCURVE",
"207 352 CURVE"
);
}
);
width = 768;
}
);
leftKerningGroup = O;
rightKerningGroup = O;
unicode = 004F;
},
{
glyphname = OE;
lastChange = "2014-11-10 20:53:51 +0000";
layers = (
{
anchors = (
{
name = top;
position = "{521, 705}";
}
);
layerId = UUID0;
name = Regular;
paths = (
{
closed = 1;
nodes = (
"943 165 LINE",
"888 170 LINE",
"886 154 OFFCURVE",
"876 118 OFFCURVE",
"873 103 CURVE SMOOTH",
"871 94 OFFCURVE",
"862 80 OFFCURVE",
"852 66 CURVE",
"830 62 OFFCURVE",
"796 57 OFFCURVE",
"765 57 CURVE SMOOTH",
"621 57 LINE",
"619 76 OFFCURVE",
"614 127 OFFCURVE",
"614 167 CURVE SMOOTH",
"614 337 LINE",
"631 339 OFFCURVE",
"648 340 OFFCURVE",
"657 340 CURVE SMOOTH",
"710 340 LINE SMOOTH",
"730 340 OFFCURVE",
"790 334 OFFCURVE",
"790 334 CURVE",
"799 267 LINE",
"847 273 LINE",
"847 273 OFFCURVE",
"844 332 OFFCURVE",
"844 382 CURVE SMOOTH",
"844 402 OFFCURVE",
"845 462 OFFCURVE",
"845 462 CURVE",
"799 467 LINE",
"790 401 LINE",
"790 401 OFFCURVE",
"750 392 OFFCURVE",
"730 392 CURVE SMOOTH",
"657 392 LINE SMOOTH",
"649 392 OFFCURVE",
"631 393 OFFCURVE",
"614 394 CURVE",
"614 538 LINE SMOOTH",
"614 574 OFFCURVE",
"617 611 OFFCURVE",
"621 649 CURVE",
"752 649 LINE SMOOTH",
"780 649 OFFCURVE",
"811 646 OFFCURVE",
"833 644 CURVE",
"843 631 OFFCURVE",
"852 617 OFFCURVE",
"853 610 CURVE",
"857 595 OFFCURVE",
"862 572 OFFCURVE",
"864 556 CURVE",
"922 561 LINE",
"915 697 LINE",
"896 715 LINE",
"896 715 OFFCURVE",
"802 705 OFFCURVE",
"782 705 CURVE SMOOTH",
"558 705 LINE SMOOTH",
"545 705 OFFCURVE",
"497 707 OFFCURVE",
"467 709 CURVE",
"437 716 OFFCURVE",
"405 720 OFFCURVE",
"370 720 CURVE SMOOTH",
"153 720 OFFCURVE",
"42 570 OFFCURVE",
"42 352 CURVE SMOOTH",
"42 135 OFFCURVE",
"153 -15 OFFCURVE",
"370 -15 CURVE SMOOTH",
"405 -15 OFFCURVE",
"437 -11 OFFCURVE",
"467 -4 CURVE",
"497 -2 OFFCURVE",
"545 0 OFFCURVE",
"558 0 CURVE SMOOTH",
"795 0 LINE SMOOTH",
"815 0 OFFCURVE",
"909 -4 OFFCURVE",
"909 -4 CURVE",
"928 14 LINE"
);
},
{
closed = 1;
nodes = (
"523 108 LINE",
"487 64 OFFCURVE",
"435 38 OFFCURVE",
"370 38 CURVE SMOOTH",
"221 38 OFFCURVE",
"149 178 OFFCURVE",
"149 352 CURVE SMOOTH",
"149 527 OFFCURVE",
"221 667 OFFCURVE",
"370 667 CURVE SMOOTH",
"434 667 OFFCURVE",
"486 639 OFFCURVE",
"523 595 CURVE"
);
}
);
width = 981;
},
{
anchors = (
{
name = top;
position = "{503, 705}";
}
);
layerId = "16643525-C5DD-48EC-8E99-463BF28F5E85";
name = Bold;
paths = (
{
closed = 1;
nodes = (
"1003 190 LINE",
"933 195 LINE",
"931 179 OFFCURVE",
"925 153 OFFCURVE",
"921 138 CURVE SMOOTH",
"918 128 OFFCURVE",
"912 113 OFFCURVE",
"902 95 CURVE",
"882 91 OFFCURVE",
"854 87 OFFCURVE",
"825 87 CURVE SMOOTH",
"700 87 LINE",
"699 107 OFFCURVE",
"697 155 OFFCURVE",
"697 193 CURVE SMOOTH",
"697 318 LINE",
"704 319 OFFCURVE",
"725 319 OFFCURVE",
"728 319 CURVE SMOOTH",
"759 319 LINE SMOOTH",
"779 319 OFFCURVE",
"823 313 OFFCURVE",
"823 313 CURVE",
"832 253 LINE",
"896 259 LINE",
"896 259 OFFCURVE",
"893 336 OFFCURVE",
"893 386 CURVE SMOOTH",
"893 406 OFFCURVE",
"894 466 OFFCURVE",
"894 466 CURVE",
"832 471 LINE",
"823 407 LINE",
"823 407 OFFCURVE",
"799 398 OFFCURVE",
"779 398 CURVE SMOOTH",
"723 398 LINE SMOOTH",
"718 398 OFFCURVE",
"707 398 OFFCURVE",
"697 399 CURVE",
"697 542 LINE SMOOTH",
"697 558 OFFCURVE",
"700 605 OFFCURVE",
"701 623 CURVE",
"811 623 LINE SMOOTH",
"841 623 OFFCURVE",
"870 621 OFFCURVE",
"890 619 CURVE",
"895 611 OFFCURVE",
"899 599 OFFCURVE",
"900 595 CURVE",
"904 580 OFFCURVE",
"907 552 OFFCURVE",
"909 536 CURVE",
"981 541 LINE",
"974 697 LINE",
"955 715 LINE",
"955 715 OFFCURVE",
"861 705 OFFCURVE",
"841 705 CURVE SMOOTH",
"573 705 LINE SMOOTH",
"552 705 OFFCURVE",
"522 707 OFFCURVE",
"500 708 CURVE",
"465 719 OFFCURVE",
"426 724 OFFCURVE",
"384 724 CURVE SMOOTH",
"167 724 OFFCURVE",
"27 578 OFFCURVE",
"27 352 CURVE SMOOTH",
"27 127 OFFCURVE",
"167 -19 OFFCURVE",
"384 -19 CURVE SMOOTH",
"426 -19 OFFCURVE",
"465 -14 OFFCURVE",
"501 -3 CURVE",
"520 -2 OFFCURVE",
"547 -1 OFFCURVE",
"573 0 CURVE SMOOTH",
"855 0 LINE SMOOTH",
"875 0 OFFCURVE",
"969 -4 OFFCURVE",
"969 -4 CURVE",
"988 14 LINE"
);
},
{
closed = 1;
nodes = (
"552 196 LINE",
"519 124 OFFCURVE",
"483 78 OFFCURVE",
"384 78 CURVE SMOOTH",
"264 78 OFFCURVE",
"207 166 OFFCURVE",
"207 352 CURVE SMOOTH",
"207 539 OFFCURVE",
"264 627 OFFCURVE",
"384 627 CURVE SMOOTH",
"483 627 OFFCURVE",
"508 593 OFFCURVE",
"552 536 CURVE"
);
}
);
width = 1005;
}
);
leftKerningGroup = O;
rightKerningGroup = E;
unicode = 0152;
},
{
glyphname = Oslash;
lastChange = "2014-11-10 20:53:51 +0000";
layers = (
{
anchors = (
{
name = top;
position = "{380, 705}";
}
);
layerId = UUID0;
name = Regular;
paths = (
{
closed = 1;
nodes = (
"642 815 LINE",
"600 838 LINE",
"100 -113 LINE",
"140 -136 LINE"
);
},
{
closed = 1;
nodes = (
"698 570 OFFCURVE",
"587 720 OFFCURVE",
"370 720 CURVE",
"153 720 OFFCURVE",
"42 570 OFFCURVE",
"42 352 CURVE",
"42 135 OFFCURVE",
"153 -15 OFFCURVE",
"370 -15 CURVE SMOOTH",
"587 -15 OFFCURVE",
"698 135 OFFCURVE",
"698 352 CURVE"
);
},
{
closed = 1;
nodes = (
"149 527 OFFCURVE",
"221 667 OFFCURVE",
"370 667 CURVE",
"519 667 OFFCURVE",
"591 527 OFFCURVE",
"591 352 CURVE",
"591 178 OFFCURVE",
"519 38 OFFCURVE",
"370 38 CURVE SMOOTH",
"221 38 OFFCURVE",
"149 178 OFFCURVE",
"149 352 CURVE"
);
}
);
width = 740;
},
{
anchors = (
{
name = top;
position = "{379, 705}";
}
);
layerId = "16643525-C5DD-48EC-8E99-463BF28F5E85";
name = Bold;
paths = (
{
closed = 1;
nodes = (
"663 809 LINE",
"604 838 LINE",
"107 -108 LINE",
"164 -137 LINE"
);
},
{
closed = 1;
nodes = (
"741 578 OFFCURVE",
"601 724 OFFCURVE",
"384 724 CURVE",
"167 724 OFFCURVE",
"27 578 OFFCURVE",
"27 352 CURVE",
"27 127 OFFCURVE",
"167 -19 OFFCURVE",
"384 -19 CURVE SMOOTH",
"601 -19 OFFCURVE",
"741 127 OFFCURVE",
"741 352 CURVE"
);
},
{
closed = 1;
nodes = (
"207 539 OFFCURVE",
"264 627 OFFCURVE",
"384 627 CURVE",
"504 627 OFFCURVE",
"561 539 OFFCURVE",
"561 352 CURVE",
"561 166 OFFCURVE",
"504 78 OFFCURVE",
"384 78 CURVE SMOOTH",
"264 78 OFFCURVE",
"207 166 OFFCURVE",
"207 352 CURVE"
);
}
);
width = 768;
}
);
leftKerningGroup = O;
rightKerningGroup = O;
unicode = 00D8;
},
{
glyphname = P;
lastChange = "2014-11-10 20:53:51 +0000";
layers = (
{
layerId = UUID0;
name = Regular;
paths = (
{
closed = 1;
nodes = (
"308 678 LINE",
"302 710 LINE",
"302 710 OFFCURVE",
"245 705 OFFCURVE",
"165 705 CURVE SMOOTH",
"145 705 OFFCURVE",
"49 710 OFFCURVE",
"49 710 CURVE",
"44 656 LINE",
"121 644 LINE",
"123 631 OFFCURVE",
"130 585 OFFCURVE",
"130 568 CURVE SMOOTH",
"130 137 LINE SMOOTH",
"130 120 OFFCURVE",
"123 74 OFFCURVE",
"121 61 CURVE",
"42 45 LINE",
"47 -5 LINE",
"47 -5 OFFCURVE",
"145 0 OFFCURVE",
"165 0 CURVE SMOOTH",
"245 0 OFFCURVE",
"315 -5 OFFCURVE",
"315 -5 CURVE",
"322 54 LINE",
"228 61 LINE",
"226 75 OFFCURVE",
"221 125 OFFCURVE",
"221 167 CURVE SMOOTH",
"221 538 LINE SMOOTH",
"221 580 OFFCURVE",
"228 657 OFFCURVE",
"230 671 CURVE"
);
},
{
closed = 1;
nodes = (
"281 715 OFFCURVE",
"181 705 OFFCURVE",
"130 705 CURVE",
"130 648 LINE",
"130 648 OFFCURVE",
"256 665 OFFCURVE",
"291 665 CURVE SMOOTH",
"395 665 OFFCURVE",
"462 610 OFFCURVE",
"462 502 CURVE SMOOTH",
"462 394 OFFCURVE",
"394 341 OFFCURVE",
"290 341 CURVE SMOOTH",
"248 341 OFFCURVE",
"149 354 OFFCURVE",
"149 354 CURVE",
"149 296 LINE",
"149 296 OFFCURVE",
"240 291 OFFCURVE",
"310 291 CURVE SMOOTH",
"444 291 OFFCURVE",
"556 367 OFFCURVE",
"556 502 CURVE SMOOTH",
"556 644 OFFCURVE",
"471 715 OFFCURVE",
"333 715 CURVE SMOOTH"
);
}
);
width = 586;
},
{
layerId = "16643525-C5DD-48EC-8E99-463BF28F5E85";
name = Bold;
paths = (
{
closed = 1;
nodes = (
"347 652 LINE",
"345 710 LINE",
"345 710 OFFCURVE",
"264 705 OFFCURVE",
"151 705 CURVE SMOOTH",
"104 705 OFFCURVE",
"51 710 OFFCURVE",
"51 710 CURVE",
"46 635 LINE",
"111 623 LINE",
"113 607 OFFCURVE",
"120 562 OFFCURVE",
"120 512 CURVE SMOOTH",
"120 163 LINE SMOOTH",
"120 143 OFFCURVE",
"112 87 OFFCURVE",
"111 77 CURVE",
"45 65 LINE",
"50 -5 LINE",
"50 -5 OFFCURVE",
"103 0 OFFCURVE",
"150 0 CURVE SMOOTH",
"263 0 OFFCURVE",
"354 -5 OFFCURVE",
"354 -5 CURVE",
"359 71 LINE",
"284 77 LINE",
"282 91 OFFCURVE",
"275 143 OFFCURVE",
"275 193 CURVE SMOOTH",
"275 542 LINE SMOOTH",
"275 562 OFFCURVE",
"279 631 OFFCURVE",
"281 646 CURVE"
);
},
{
closed = 1;
nodes = (
"310 715 OFFCURVE",
"204 705 OFFCURVE",
"150 705 CURVE",
"121 623 LINE",
"121 623 OFFCURVE",
"276 633 OFFCURVE",
"307 633 CURVE SMOOTH",
"400 633 OFFCURVE",
"440 591 OFFCURVE",
"440 497 CURVE SMOOTH",
"440 405 OFFCURVE",
"383 353 OFFCURVE",
"292 353 CURVE SMOOTH",
"255 353 OFFCURVE",
"169 353 OFFCURVE",
"169 353 CURVE",
"169 271 LINE",
"169 271 OFFCURVE",
"256 271 OFFCURVE",
"330 271 CURVE SMOOTH",
"472 271 OFFCURVE",
"601 354 OFFCURVE",
"601 496 CURVE SMOOTH",
"601 636 OFFCURVE",
"505 715 OFFCURVE",
"365 715 CURVE SMOOTH"
);
}
);
width = 616;
}
);
leftKerningGroup = H;
rightKerningGroup = P;
unicode = 0050;
},
{
glyphname = Q;
lastChange = "2014-11-10 20:53:51 +0000";
layers = (
{
layerId = UUID0;
name = Regular;
paths = (
{
closed = 1;
nodes = (
"669 -224 LINE",
"728 -132 LINE",
"728 -132 OFFCURVE",
"586 -71 OFFCURVE",
"570 -60 CURVE SMOOTH",
"483 1 LINE",
"626 45 OFFCURVE",
"698 177 OFFCURVE",
"698 352 CURVE SMOOTH",
"698 570 OFFCURVE",
"587 720 OFFCURVE",
"370 720 CURVE SMOOTH",
"153 720 OFFCURVE",
"42 570 OFFCURVE",
"42 352 CURVE SMOOTH",
"42 135 OFFCURVE",
"153 -15 OFFCURVE",
"370 -15 CURVE SMOOTH",
"383 -15 OFFCURVE",
"395 -14 OFFCURVE",
"407 -13 CURVE"
);
},
{
closed = 1;
nodes = (
"149 527 OFFCURVE",
"221 667 OFFCURVE",
"370 667 CURVE SMOOTH",
"519 667 OFFCURVE",
"591 527 OFFCURVE",
"591 352 CURVE SMOOTH",
"591 178 OFFCURVE",
"519 38 OFFCURVE",
"370 38 CURVE SMOOTH",
"221 38 OFFCURVE",
"149 178 OFFCURVE",
"149 352 CURVE SMOOTH"
);
}
);
width = 745;
},
{
layerId = "16643525-C5DD-48EC-8E99-463BF28F5E85";
name = Bold;
paths = (
{
closed = 1;
nodes = (
"683 -224 LINE",
"773 -100 LINE",
"773 -100 OFFCURVE",
"631 -42 OFFCURVE",
"615 -32 CURVE SMOOTH",
"546 14 LINE",
"668 69 OFFCURVE",
"741 190 OFFCURVE",
"741 352 CURVE SMOOTH",
"741 578 OFFCURVE",
"601 724 OFFCURVE",
"384 724 CURVE SMOOTH",
"167 724 OFFCURVE",
"27 578 OFFCURVE",
"27 352 CURVE SMOOTH",
"27 127 OFFCURVE",
"167 -19 OFFCURVE",
"384 -19 CURVE SMOOTH",
"391 -19 OFFCURVE",
"398 -19 OFFCURVE",
"405 -19 CURVE"
);
},
{
closed = 1;
nodes = (
"207 539 OFFCURVE",
"264 627 OFFCURVE",
"384 627 CURVE SMOOTH",
"504 627 OFFCURVE",
"561 539 OFFCURVE",
"561 352 CURVE SMOOTH",
"561 166 OFFCURVE",
"504 78 OFFCURVE",
"384 78 CURVE SMOOTH",
"264 78 OFFCURVE",
"207 166 OFFCURVE",
"207 352 CURVE SMOOTH"
);
}
);
width = 774;
}
);
leftKerningGroup = O;
rightKerningGroup = O;
unicode = 0051;
},
{
glyphname = R;
lastChange = "2014-11-10 20:53:51 +0000";
layers = (
{
anchors = (
{
name = bottom;
position = "{322, 0}";
},
{
name = top;
position = "{312, 705}";
}
);
layerId = UUID0;
name = Regular;
paths = (
{
closed = 1;
nodes = (
"286 715 OFFCURVE",
"203 707 OFFCURVE",
"149 705 CURVE",
"116 707 OFFCURVE",
"49 710 OFFCURVE",
"49 710 CURVE",
"44 656 LINE",
"122 644 LINE",
"122 644 OFFCURVE",
"255 665 OFFCURVE",
"290 665 CURVE SMOOTH",
"393 665 OFFCURVE",
"459 612 OFFCURVE",
"459 507 CURVE SMOOTH",
"459 402 OFFCURVE",
"392 351 OFFCURVE",
"289 351 CURVE SMOOTH",
"247 351 OFFCURVE",
"149 364 OFFCURVE",
"149 364 CURVE",
"149 306 LINE",
"149 306 OFFCURVE",
"239 301 OFFCURVE",
"309 301 CURVE SMOOTH",
"442 301 OFFCURVE",
"553 376 OFFCURVE",
"553 508 CURVE SMOOTH",
"553 646 OFFCURVE",
"469 715 OFFCURVE",
"332 715 CURVE SMOOTH"
);
},
{
closed = 1;
nodes = (
"121 645 LINE",
"123 632 OFFCURVE",
"130 585 OFFCURVE",
"130 568 CURVE SMOOTH",
"130 137 LINE SMOOTH",
"130 120 OFFCURVE",
"123 74 OFFCURVE",
"121 61 CURVE",
"42 45 LINE",
"47 -5 LINE",
"47 -5 OFFCURVE",
"145 0 OFFCURVE",
"165 0 CURVE SMOOTH",
"245 0 OFFCURVE",
"311 -5 OFFCURVE",
"311 -5 CURVE",
"318 54 LINE",
"228 61 LINE",
"226 75 OFFCURVE",
"221 125 OFFCURVE",
"221 167 CURVE SMOOTH",
"221 538 LINE SMOOTH",
"221 590 OFFCURVE",
"228 654 OFFCURVE",
"231 670 CURVE"
);
},
{
closed = 1;
nodes = (
"293 345 LINE",
"414 116 LINE",
"427 92 OFFCURVE",
"469 0 OFFCURVE",
"469 0 CURVE",
"549 0 OFFCURVE",
"627 -5 OFFCURVE",
"627 -5 CURVE",
"634 54 LINE",
"562 61 LINE",
"546 83 OFFCURVE",
"522 116 OFFCURVE",
"513 131 CURVE",
"507 140 OFFCURVE",
"444 243 OFFCURVE",
"391 349 CURVE"
);
}
);
width = 646;
},
{
anchors = (
{
name = bottom;
position = "{331, 0}";
},
{
name = top;
position = "{331, 705}";
}
);
layerId = "16643525-C5DD-48EC-8E99-463BF28F5E85";
name = Bold;
paths = (
{
closed = 1;
nodes = (
"306 715 OFFCURVE",
"211 705 OFFCURVE",
"154 705 CURVE",
"104 705 OFFCURVE",
"51 710 OFFCURVE",
"51 710 CURVE",
"46 635 LINE",
"113 623 LINE",
"113 623 OFFCURVE",
"271 633 OFFCURVE",
"302 633 CURVE SMOOTH",
"392 633 OFFCURVE",
"433 590 OFFCURVE",
"433 502 CURVE SMOOTH",
"433 410 OFFCURVE",
"394 361 OFFCURVE",
"299 361 CURVE SMOOTH",
"263 361 OFFCURVE",
"161 361 OFFCURVE",
"161 361 CURVE",
"161 297 LINE",
"161 297 OFFCURVE",
"278 277 OFFCURVE",
"319 277 CURVE SMOOTH",
"463 277 OFFCURVE",
"594 366 OFFCURVE",
"594 504 CURVE SMOOTH",
"594 636 OFFCURVE",
"499 715 OFFCURVE",
"360 715 CURVE SMOOTH"
);
},
{
closed = 1;
nodes = (
"111 627 LINE",
"113 610 OFFCURVE",
"120 564 OFFCURVE",
"120 512 CURVE SMOOTH",
"120 163 LINE SMOOTH",
"120 143 OFFCURVE",
"112 87 OFFCURVE",
"111 77 CURVE",
"45 65 LINE",
"50 -5 LINE",
"50 -5 OFFCURVE",
"103 0 OFFCURVE",
"150 0 CURVE SMOOTH",
"263 0 OFFCURVE",
"344 -5 OFFCURVE",
"344 -5 CURVE",
"349 71 LINE",
"284 77 LINE",
"282 91 OFFCURVE",
"275 143 OFFCURVE",
"275 193 CURVE SMOOTH",
"275 542 LINE SMOOTH",
"275 562 OFFCURVE",
"281 639 OFFCURVE",
"284 657 CURVE"
);
},
{
closed = 1;
nodes = (
"299 345 LINE",
"417 116 LINE",
"430 92 OFFCURVE",
"466 0 OFFCURVE",
"466 0 CURVE",
"579 0 OFFCURVE",
"657 -5 OFFCURVE",
"657 -5 CURVE",
"662 71 LINE",
"614 75 LINE",
"601 96 OFFCURVE",
"586 119 OFFCURVE",
"579 131 CURVE",
"574 140 OFFCURVE",
"505 243 OFFCURVE",
"456 349 CURVE"
);
}
);
width = 661;
}
);
leftKerningGroup = H;
rightKerningGroup = R;
unicode = 0052;
},
{
glyphname = S;
lastChange = "2014-11-10 20:53:51 +0000";
layers = (
{
anchors = (
{
name = bottom;
position = "{266, 0}";
},
{
name = top;
position = "{277, 705}";
}
);
layerId = UUID0;
name = Regular;
paths = (
{
closed = 1;
nodes = (
"65 192 LINE",
"50 38 LINE",
"50 38 OFFCURVE",
"136 -15 OFFCURVE",
"270 -15 CURVE SMOOTH",
"402 -15 OFFCURVE",
"509 49 OFFCURVE",
"509 182 CURVE SMOOTH",
"509 409 OFFCURVE",
"163 397 OFFCURVE",
"163 554 CURVE SMOOTH",
"163 628 OFFCURVE",
"215 665 OFFCURVE",
"277 665 CURVE SMOOTH",
"322 665 OFFCURVE",
"354 661 OFFCURVE",
"396 643 CURVE",
"402 620 OFFCURVE",
"409 596 OFFCURVE",
"409 587 CURVE SMOOTH",
"409 577 OFFCURVE",
"409 543 OFFCURVE",
"409 543 CURVE",
"468 537 LINE",
"482 688 LINE",
"418 704 OFFCURVE",
"345 720 OFFCURVE",
"280 720 CURVE SMOOTH",
"156 720 OFFCURVE",
"63 655 OFFCURVE",
"63 535 CURVE SMOOTH",
"63 319 OFFCURVE",
"404 334 OFFCURVE",
"404 170 CURVE SMOOTH",
"404 89 OFFCURVE",
"352 45 OFFCURVE",
"272 45 CURVE SMOOTH",
"223 45 OFFCURVE",
"177 58 OFFCURVE",
"142 72 CURVE",
"137 94 OFFCURVE",
"131 126 OFFCURVE",
"131 138 CURVE SMOOTH",
"131 153 OFFCURVE",
"131 186 OFFCURVE",
"131 186 CURVE"
);
}
);
width = 559;
},
{
anchors = (
{
name = bottom;
position = "{278, 0}";
},
{
name = top;
position = "{290, 705}";
}
);
layerId = "16643525-C5DD-48EC-8E99-463BF28F5E85";
name = Bold;
paths = (
{
closed = 1;
nodes = (
"59 226 LINE",
"44 33 LINE",
"44 33 OFFCURVE",
"142 -15 OFFCURVE",
"277 -15 CURVE SMOOTH",
"421 -15 OFFCURVE",
"534 67 OFFCURVE",
"534 204 CURVE SMOOTH",
"534 434 OFFCURVE",
"216 412 OFFCURVE",
"216 546 CURVE SMOOTH",
"216 597 OFFCURVE",
"256 627 OFFCURVE",
"316 627 CURVE SMOOTH",
"352 627 OFFCURVE",
"375 616 OFFCURVE",
"397 604 CURVE",
"404 587 OFFCURVE",
"409 574 OFFCURVE",
"409 570 CURVE SMOOTH",
"409 560 OFFCURVE",
"409 496 OFFCURVE",
"409 496 CURVE",
"492 491 LINE",
"506 684 LINE",
"436 705 OFFCURVE",
"356 720 OFFCURVE",
"286 720 CURVE SMOOTH",
"150 720 OFFCURVE",
"51 644 OFFCURVE",
"51 521 CURVE SMOOTH",
"51 283 OFFCURVE",
"369 313 OFFCURVE",
"369 166 CURVE SMOOTH",
"369 109 OFFCURVE",
"322 82 OFFCURVE",
"265 82 CURVE SMOOTH",
"214 82 OFFCURVE",
"178 99 OFFCURVE",
"157 110 CURVE",
"150 127 OFFCURVE",
"143 145 OFFCURVE",
"143 151 CURVE SMOOTH",
"143 163 OFFCURVE",
"142 221 OFFCURVE",
"142 221 CURVE"
);
}
);
width = 573;
}
);
leftKerningGroup = S;
rightKerningGroup = S;
unicode = 0053;
},
{
glyphname = T;
lastChange = "2014-11-10 20:53:51 +0000";
layers = (
{
anchors = (
{
name = bottom;
position = "{293, 0}";
},
{
name = center;
position = "{298, 353}";
},
{
name = top;
position = "{298, 705}";
}
);
layerId = UUID0;
name = Regular;
paths = (
{
closed = 1;
nodes = (
"585 553 LINE",
"578 697 LINE",
"559 715 LINE",
"559 715 OFFCURVE",
"465 705 OFFCURVE",
"445 705 CURVE SMOOTH",
"150 705 LINE SMOOTH",
"130 705 OFFCURVE",
"36 715 OFFCURVE",
"36 715 CURVE",
"17 697 LINE",
"10 553 LINE",
"68 548 LINE",
"70 564 OFFCURVE",
"75 595 OFFCURVE",
"79 610 CURVE",
"80 617 OFFCURVE",
"89 631 OFFCURVE",
"99 644 CURVE",
"121 646 OFFCURVE",
"152 649 OFFCURVE",
"180 649 CURVE SMOOTH",
"243 649 LINE",
"245 630 OFFCURVE",
"252 583 OFFCURVE",
"252 568 CURVE SMOOTH",
"252 137 LINE SMOOTH",
"252 120 OFFCURVE",
"245 74 OFFCURVE",
"243 61 CURVE",
"164 45 LINE",
"169 -5 LINE",
"169 -5 OFFCURVE",
"267 0 OFFCURVE",
"287 0 CURVE SMOOTH",
"367 0 OFFCURVE",
"433 -5 OFFCURVE",
"433 -5 CURVE",
"440 54 LINE",
"350 61 LINE",
"348 75 OFFCURVE",
"343 125 OFFCURVE",
"343 167 CURVE SMOOTH",
"343 538 LINE SMOOTH",
"343 576 OFFCURVE",
"348 629 OFFCURVE",
"350 649 CURVE",
"415 649 LINE SMOOTH",
"443 649 OFFCURVE",
"474 646 OFFCURVE",
"496 644 CURVE",
"506 631 OFFCURVE",
"515 617 OFFCURVE",
"516 610 CURVE",
"520 595 OFFCURVE",
"525 564 OFFCURVE",
"527 548 CURVE"
);
}
);
width = 595;
},
{
anchors = (
{
name = bottom;
position = "{313, 0}";
},
{
name = center;
position = "{313, 353}";
},
{
name = top;
position = "{313, 705}";
}
);
layerId = "16643525-C5DD-48EC-8E99-463BF28F5E85";
name = Bold;
paths = (
{
closed = 1;
nodes = (
"617 531 LINE",
"609 697 LINE",
"590 715 LINE",
"590 715 OFFCURVE",
"496 705 OFFCURVE",
"476 705 CURVE SMOOTH",
"150 705 LINE SMOOTH",
"130 705 OFFCURVE",
"36 715 OFFCURVE",
"36 715 CURVE",
"17 697 LINE",
"10 531 LINE",
"82 526 LINE",
"83 541 OFFCURVE",
"87 580 OFFCURVE",
"91 595 CURVE",
"92 599 OFFCURVE",
"96 608 OFFCURVE",
"100 618 CURVE",
"120 620 OFFCURVE",
"150 623 OFFCURVE",
"180 623 CURVE SMOOTH",
"227 623 LINE",
"229 606 OFFCURVE",
"236 561 OFFCURVE",
"236 512 CURVE SMOOTH",
"236 163 LINE SMOOTH",
"236 143 OFFCURVE",
"228 87 OFFCURVE",
"227 77 CURVE",
"161 65 LINE",
"166 -5 LINE",
"166 -5 OFFCURVE",
"219 0 OFFCURVE",
"266 0 CURVE SMOOTH",
"379 0 OFFCURVE",
"460 -5 OFFCURVE",
"460 -5 CURVE",
"465 71 LINE",
"400 77 LINE",
"398 91 OFFCURVE",
"391 143 OFFCURVE",
"391 193 CURVE SMOOTH",
"391 542 LINE SMOOTH",
"391 562 OFFCURVE",
"397 607 OFFCURVE",
"400 623 CURVE",
"451 623 LINE SMOOTH",
"481 623 OFFCURVE",
"509 620 OFFCURVE",
"527 618 CURVE",
"531 608 OFFCURVE",
"535 599 OFFCURVE",
"536 595 CURVE",
"540 580 OFFCURVE",
"544 541 OFFCURVE",
"545 526 CURVE"
);
}
);
width = 626;
}
);
leftKerningGroup = T;
rightKerningGroup = T;
unicode = 0054;
},
{
glyphname = Thorn;
lastChange = "2014-11-10 20:53:51 +0000";
layers = (
{
layerId = UUID0;
name = Regular;
paths = (
{
closed = 1;
nodes = (
"306 651 LINE",
"302 710 LINE",
"302 710 OFFCURVE",
"245 705 OFFCURVE",
"165 705 CURVE SMOOTH",
"145 705 OFFCURVE",
"49 710 OFFCURVE",
"49 710 CURVE",
"44 656 LINE",
"121 644 LINE",
"123 631 OFFCURVE",
"130 585 OFFCURVE",
"130 568 CURVE SMOOTH",
"130 137 LINE SMOOTH",
"130 120 OFFCURVE",
"123 74 OFFCURVE",
"121 61 CURVE",
"42 45 LINE",
"47 -5 LINE",
"47 -5 OFFCURVE",
"145 0 OFFCURVE",
"165 0 CURVE SMOOTH",
"245 0 OFFCURVE",
"311 -5 OFFCURVE",
"311 -5 CURVE",
"318 54 LINE",
"228 61 LINE",
"226 73 OFFCURVE",
"222 113 OFFCURVE",
"221 151 CURVE",
"249 150 OFFCURVE",
"281 149 OFFCURVE",
"309 149 CURVE SMOOTH",
"443 149 OFFCURVE",
"555 225 OFFCURVE",
"555 360 CURVE SMOOTH",
"555 502 OFFCURVE",
"470 573 OFFCURVE",
"332 573 CURVE SMOOTH",
"301 573 OFFCURVE",
"260 570 OFFCURVE",
"222 567 CURVE",
"223 600 OFFCURVE",
"226 633 OFFCURVE",
"228 644 CURVE"
);
},
{
closed = 1;
nodes = (
"221 517 LINE",
"247 520 OFFCURVE",
"274 523 OFFCURVE",
"290 523 CURVE SMOOTH",
"394 523 OFFCURVE",
"461 468 OFFCURVE",
"461 360 CURVE SMOOTH",
"461 252 OFFCURVE",
"393 199 OFFCURVE",
"289 199 CURVE SMOOTH",
"272 199 OFFCURVE",
"246 201 OFFCURVE",
"221 204 CURVE"
);
}
);
width = 585;
},
{
layerId = "16643525-C5DD-48EC-8E99-463BF28F5E85";
name = Bold;
paths = (
{
closed = 1;
nodes = (
"345 629 LINE",
"340 710 LINE",
"340 710 OFFCURVE",
"259 705 OFFCURVE",
"146 705 CURVE SMOOTH",
"99 705 OFFCURVE",
"46 710 OFFCURVE",
"46 710 CURVE",
"41 635 LINE",
"106 623 LINE",
"108 607 OFFCURVE",
"115 562 OFFCURVE",
"115 512 CURVE SMOOTH",
"115 163 LINE SMOOTH",
"115 143 OFFCURVE",
"107 87 OFFCURVE",
"106 77 CURVE",
"40 65 LINE",
"45 -5 LINE",
"45 -5 OFFCURVE",
"98 0 OFFCURVE",
"145 0 CURVE SMOOTH",
"258 0 OFFCURVE",
"339 -5 OFFCURVE",
"339 -5 CURVE",
"344 71 LINE",
"279 77 LINE",
"278 87 OFFCURVE",
"274 114 OFFCURVE",
"272 146 CURVE",
"297 146 OFFCURVE",
"323 146 OFFCURVE",
"346 146 CURVE SMOOTH",
"482 146 OFFCURVE",
"596 222 OFFCURVE",
"596 358 CURVE SMOOTH",
"596 492 OFFCURVE",
"500 570 OFFCURVE",
"360 570 CURVE SMOOTH",
"337 570 OFFCURVE",
"305 568 OFFCURVE",
"271 566 CURVE",
"273 587 OFFCURVE",
"277 613 OFFCURVE",
"279 623 CURVE"
);
},
{
closed = 1;
nodes = (
"270 487 LINE",
"284 488 OFFCURVE",
"295 488 OFFCURVE",
"302 488 CURVE SMOOTH",
"395 488 OFFCURVE",
"435 446 OFFCURVE",
"435 359 CURVE SMOOTH",
"435 273 OFFCURVE",
"378 228 OFFCURVE",
"287 228 CURVE SMOOTH",
"282 228 OFFCURVE",
"276 228 OFFCURVE",
"270 228 CURVE"
);
}
);
width = 600;
}
);
leftKerningGroup = H;
rightKerningGroup = P;
unicode = 00DE;
},
{
glyphname = U;
lastChange = "2014-11-10 20:53:51 +0000";
layers = (
{
anchors = (
{
name = bottom;
position = "{370, 0}";
},
{
name = horn;
position = "{665, 689}";
},
{
name = ogonek;
position = "{548, 10}";
},
{
name = top;
position = "{365, 705}";
}
);
layerId = UUID0;
name = Regular;
paths = (
{
closed = 1;
nodes = (
"704 710 LINE",
"704 710 OFFCURVE",
"653 705 OFFCURVE",
"573 705 CURVE SMOOTH",
"553 705 OFFCURVE",
"467 710 OFFCURVE",
"467 710 CURVE",
"462 656 LINE",
"540 644 LINE",
"542 630 OFFCURVE",
"550 580 OFFCURVE",
"550 563 CURVE SMOOTH",
"550 266 LINE SMOOTH",
"550 140 OFFCURVE",
"492 49 OFFCURVE",
"372 49 CURVE SMOOTH",
"257 49 OFFCURVE",
"200 139 OFFCURVE",
"200 266 CURVE SMOOTH",
"200 533 LINE SMOOTH",
"200 576 OFFCURVE",
"205 629 OFFCURVE",
"207 644 CURVE",
"286 651 LINE",
"282 710 LINE",
"282 710 OFFCURVE",
"218 705 OFFCURVE",
"138 705 CURVE SMOOTH",
"118 705 OFFCURVE",
"22 710 OFFCURVE",
"22 710 CURVE",
"17 656 LINE",
"96 644 LINE",
"98 629 OFFCURVE",
"105 580 OFFCURVE",
"105 563 CURVE SMOOTH",
"105 266 LINE SMOOTH",
"105 95 OFFCURVE",
"192 -15 OFFCURVE",
"363 -15 CURVE SMOOTH",
"534 -15 OFFCURVE",
"622 95 OFFCURVE",
"622 266 CURVE SMOOTH",
"622 533 LINE SMOOTH",
"622 576 OFFCURVE",
"627 629 OFFCURVE",
"629 644 CURVE",
"708 651 LINE"
);
}
);
width = 727;
},
{
anchors = (
{
name = bottom;
position = "{388, 0}";
},
{
name = horn;
position = "{728, 679}";
},
{
name = ogonek;
position = "{601, 10}";
},
{
name = top;
position = "{390, 705}";
}
);
layerId = "16643525-C5DD-48EC-8E99-463BF28F5E85";
name = Bold;
paths = (
{
closed = 1;
nodes = (
"749 710 LINE",
"749 710 OFFCURVE",
"691 705 OFFCURVE",
"578 705 CURVE SMOOTH",
"531 705 OFFCURVE",
"478 710 OFFCURVE",
"478 710 CURVE",
"473 635 LINE",
"538 623 LINE",
"540 608 OFFCURVE",
"547 562 OFFCURVE",
"547 512 CURVE SMOOTH",
"547 260 LINE SMOOTH",
"547 160 OFFCURVE",
"511 99 OFFCURVE",
"406 99 CURVE SMOOTH",
"311 99 OFFCURVE",
"260 170 OFFCURVE",
"260 260 CURVE SMOOTH",
"260 542 LINE SMOOTH",
"260 562 OFFCURVE",
"266 612 OFFCURVE",
"269 623 CURVE",
"335 629 LINE",
"330 710 LINE",
"330 710 OFFCURVE",
"244 705 OFFCURVE",
"131 705 CURVE SMOOTH",
"84 705 OFFCURVE",
"31 710 OFFCURVE",
"31 710 CURVE",
"26 635 LINE",
"91 623 LINE",
"94 609 OFFCURVE",
"100 562 OFFCURVE",
"100 512 CURVE SMOOTH",
"100 268 LINE SMOOTH",
"100 97 OFFCURVE",
"198 -15 OFFCURVE",
"389 -15 CURVE SMOOTH",
"579 -15 OFFCURVE",
"679 97 OFFCURVE",
"679 268 CURVE SMOOTH",
"679 542 LINE SMOOTH",
"679 562 OFFCURVE",
"685 609 OFFCURVE",
"688 623 CURVE",
"754 629 LINE"
);
}
);
width = 779;
}
);
leftKerningGroup = U;
rightKerningGroup = U;
unicode = 0055;
},
{
glyphname = V;
lastChange = "2014-11-10 20:53:51 +0000";
layers = (
{
layerId = UUID0;
name = Regular;
paths = (
{
closed = 1;
nodes = (
"323 0 LINE",
"384 0 LINE",
"574 545 LINE",
"593 599 OFFCURVE",
"620 644 OFFCURVE",
"620 644 CURVE",
"688 661 LINE",
"684 710 LINE",
"684 710 OFFCURVE",
"576 705 OFFCURVE",
"541 705 CURVE SMOOTH",
"511 705 OFFCURVE",
"451 705 OFFCURVE",
"451 705 CURVE",
"446 651 LINE",
"522 641 LINE",
"522 641 OFFCURVE",
"518 599 OFFCURVE",
"511 578 CURVE",
"362 148 LINE",
"215 533 LINE",
"193 590 OFFCURVE",
"185 641 OFFCURVE",
"185 641 CURVE",
"264 661 LINE",
"260 710 LINE",
"260 710 OFFCURVE",
"138 705 OFFCURVE",
"113 705 CURVE SMOOTH",
"79 705 OFFCURVE",
"4 705 OFFCURVE",
"4 705 CURVE",
"-1 651 LINE",
"65 641 LINE",
"65 641 OFFCURVE",
"94 593 OFFCURVE",
"108 556 CURVE"
);
}
);
width = 693;
},
{
layerId = "16643525-C5DD-48EC-8E99-463BF28F5E85";
name = Bold;
paths = (
{
closed = 1;
nodes = (
"295 0 LINE",
"410 0 LINE",
"610 544 LINE",
"621 574 OFFCURVE",
"655 630 OFFCURVE",
"655 630 CURVE",
"705 637 LINE",
"700 710 LINE",
"700 710 OFFCURVE",
"636 705 OFFCURVE",
"553 705 CURVE SMOOTH",
"506 705 OFFCURVE",
"443 710 OFFCURVE",
"443 710 CURVE",
"438 640 LINE",
"502 628 LINE",
"502 628 OFFCURVE",
"502 610 OFFCURVE",
"495 590 CURVE",
"368 207 LINE",
"252 576 LINE",
"246 594 OFFCURVE",
"244 628 OFFCURVE",
"244 628 CURVE",
"309 637 LINE",
"304 710 LINE",
"304 710 OFFCURVE",
"209 705 OFFCURVE",
"96 705 CURVE SMOOTH",
"59 705 OFFCURVE",
"4 710 OFFCURVE",
"4 710 CURVE",
"-1 640 LINE",
"59 631 LINE",
"59 631 OFFCURVE",
"77 602 OFFCURVE",
"86 577 CURVE"
);
}
);
width = 707;
}
);
leftKerningGroup = V;
rightKerningGroup = V;
unicode = 0056;
},
{
glyphname = W;
lastChange = "2014-11-10 20:53:51 +0000";
layers = (
{
anchors = (
{
name = top;
position = "{506, 705}";
}
);
layerId = UUID0;
name = Regular;
paths = (
{
closed = 1;
nodes = (
"1009 661 LINE",
"1005 710 LINE",
"1005 710 OFFCURVE",
"897 705 OFFCURVE",
"862 705 CURVE SMOOTH",
"832 705 OFFCURVE",
"772 705 OFFCURVE",
"772 705 CURVE",
"767 651 LINE",
"843 641 LINE",
"843 641 OFFCURVE",
"839 604 OFFCURVE",
"832 578 CURVE",
"709 148 LINE",
"540 685 LINE",
"487 685 LINE",
"329 148 LINE",
"214 533 LINE",
"199 584 OFFCURVE",
"187 641 OFFCURVE",
"187 641 CURVE",
"266 661 LINE",
"262 710 LINE",
"262 710 OFFCURVE",
"140 705 OFFCURVE",
"115 705 CURVE SMOOTH",
"81 705 OFFCURVE",
"6 705 OFFCURVE",
"6 705 CURVE",
"1 651 LINE",
"67 641 LINE",
"67 641 OFFCURVE",
"93 598 OFFCURVE",
"107 556 CURVE",
"290 0 LINE",
"351 0 LINE",
"503 506 LINE",
"670 0 LINE",
"731 0 LINE",
"895 545 LINE",
"907 584 OFFCURVE",
"941 644 OFFCURVE",
"941 644 CURVE"
);
}
);
width = 1011;
},
{
anchors = (
{
name = top;
position = "{515, 705}";
}
);
layerId = "16643525-C5DD-48EC-8E99-463BF28F5E85";
name = Bold;
paths = (
{
closed = 1;
nodes = (
"1024 637 LINE",
"1019 710 LINE",
"1019 710 OFFCURVE",
"955 705 OFFCURVE",
"872 705 CURVE SMOOTH",
"825 705 OFFCURVE",
"762 710 OFFCURVE",
"762 710 CURVE",
"757 640 LINE",
"821 628 LINE",
"821 628 OFFCURVE",
"825 612 OFFCURVE",
"819 590 CURVE",
"718 207 LINE",
"587 675 LINE",
"474 675 LINE",
"341 207 LINE",
"251 576 LINE",
"245 602 OFFCURVE",
"247 628 OFFCURVE",
"247 628 CURVE",
"312 637 LINE",
"307 710 LINE",
"307 710 OFFCURVE",
"212 705 OFFCURVE",
"99 705 CURVE SMOOTH",
"62 705 OFFCURVE",
"7 710 OFFCURVE",
"7 710 CURVE",
"2 640 LINE",
"62 631 LINE",
"62 631 OFFCURVE",
"75 608 OFFCURVE",
"85 577 CURVE",
"268 0 LINE",
"383 0 LINE",
"517 423 LINE",
"645 0 LINE",
"760 0 LINE",
"934 544 LINE",
"947 584 OFFCURVE",
"974 630 OFFCURVE",
"974 630 CURVE"
);
}
);
width = 1029;
}
);
leftKerningGroup = V;
rightKerningGroup = V;
unicode = 0057;
},
{
glyphname = X;
lastChange = "2014-11-10 20:53:51 +0000";
layers = (
{
layerId = UUID0;
name = Regular;
paths = (
{
closed = 1;
nodes = (
"306 355 LINE",
"175 164 LINE SMOOTH",
"158 140 OFFCURVE",
"103 84 OFFCURVE",
"79 59 CURVE",
"18 42 LINE",
"23 -5 LINE",
"23 -5 OFFCURVE",
"172 0 OFFCURVE",
"188 0 CURVE SMOOTH",
"210 0 OFFCURVE",
"268 -1 OFFCURVE",
"268 -1 CURVE",
"275 54 LINE",
"195 64 LINE",
"206 87 OFFCURVE",
"220 116 OFFCURVE",
"230 132 CURVE SMOOTH",
"344 301 LINE",
"457 142 LINE",
"471 124 OFFCURVE",
"490 87 OFFCURVE",
"502 60 CURVE",
"436 42 LINE",
"441 -5 LINE",
"441 -5 OFFCURVE",
"592 0 OFFCURVE",
"625 0 CURVE SMOOTH",
"640 0 OFFCURVE",
"705 -1 OFFCURVE",
"705 -1 CURVE",
"712 54 LINE",
"633 64 LINE",
"612 86 OFFCURVE",
"585 116 OFFCURVE",
"572 132 CURVE",
"403 368 LINE",
"532 569 LINE",
"547 588 OFFCURVE",
"588 626 OFFCURVE",
"611 647 CURVE",
"680 663 LINE",
"675 710 LINE",
"675 710 OFFCURVE",
"556 705 OFFCURVE",
"503 705 CURVE SMOOTH",
"475 705 OFFCURVE",
"423 706 OFFCURVE",
"423 706 CURVE",
"416 651 LINE",
"494 641 LINE",
"483 619 OFFCURVE",
"470 593 OFFCURVE",
"461 578 CURVE SMOOTH",
"364 422 LINE",
"269 555 LINE",
"255 574 OFFCURVE",
"238 617 OFFCURVE",
"228 641 CURVE",
"307 663 LINE",
"302 710 LINE",
"302 710 OFFCURVE",
"148 705 OFFCURVE",
"115 705 CURVE SMOOTH",
"95 705 OFFCURVE",
"26 706 OFFCURVE",
"26 706 CURVE",
"19 651 LINE",
"100 641 LINE",
"117 619 OFFCURVE",
"148 578 OFFCURVE",
"162 558 CURVE SMOOTH"
);
}
);
width = 718;
},
{
layerId = "16643525-C5DD-48EC-8E99-463BF28F5E85";
name = Bold;
paths = (
{
closed = 1;
nodes = (
"265 343 LINE",
"141 164 LINE SMOOTH",
"127 144 OFFCURVE",
"86 102 OFFCURVE",
"59 74 CURVE",
"7 65 LINE",
"11 -5 LINE",
"11 -5 OFFCURVE",
"64 0 OFFCURVE",
"111 0 CURVE SMOOTH",
"194 0 OFFCURVE",
"258 -5 OFFCURVE",
"258 -5 CURVE",
"264 71 LINE",
"215 75 LINE",
"225 96 OFFCURVE",
"237 119 OFFCURVE",
"246 132 CURVE SMOOTH",
"328 253 LINE",
"406 142 LINE",
"418 127 OFFCURVE",
"433 97 OFFCURVE",
"445 72 CURVE",
"408 65 LINE",
"412 -5 LINE",
"412 -5 OFFCURVE",
"463 0 OFFCURVE",
"500 0 CURVE SMOOTH",
"613 0 OFFCURVE",
"695 -5 OFFCURVE",
"695 -5 CURVE",
"701 71 LINE",
"650 76 LINE",
"631 96 OFFCURVE",
"612 119 OFFCURVE",
"601 132 CURVE",
"427 378 LINE",
"552 569 LINE",
"563 583 OFFCURVE",
"590 608 OFFCURVE",
"611 628 CURVE",
"676 636 LINE",
"672 710 LINE",
"672 710 OFFCURVE",
"608 705 OFFCURVE",
"525 705 CURVE SMOOTH",
"478 705 OFFCURVE",
"425 710 OFFCURVE",
"425 710 CURVE",
"419 640 LINE",
"460 632 LINE",
"451 612 OFFCURVE",
"440 591 OFFCURVE",
"431 578 CURVE SMOOTH",
"363 469 LINE",
"306 555 LINE",
"294 572 OFFCURVE",
"276 607 OFFCURVE",
"265 631 CURVE",
"307 636 LINE",
"304 710 LINE",
"304 710 OFFCURVE",
"222 705 OFFCURVE",
"109 705 CURVE SMOOTH",
"72 705 OFFCURVE",
"15 710 OFFCURVE",
"15 710 CURVE",
"9 640 LINE",
"62 632 LINE",
"79 609 OFFCURVE",
"102 576 OFFCURVE",
"115 558 CURVE SMOOTH"
);
}
);
width = 697;
}
);
leftKerningGroup = X;
rightKerningGroup = X;
unicode = 0058;
},
{
glyphname = Y;
lastChange = "2014-11-10 20:53:51 +0000";
layers = (
{
anchors = (
{
name = bottom;
position = "{323, 0}";
},
{
name = top;
position = "{332, 705}";
}
);
layerId = UUID0;
name = Regular;
paths = (
{
closed = 1;
nodes = (
"645 661 LINE",
"641 710 LINE",
"641 710 OFFCURVE",
"533 705 OFFCURVE",
"498 705 CURVE SMOOTH",
"468 705 OFFCURVE",
"408 705 OFFCURVE",
"408 705 CURVE",
"403 651 LINE",
"479 641 LINE",
"479 641 OFFCURVE",
"463 602 OFFCURVE",
"451 578 CURVE",
"336 344 LINE",
"235 533 LINE",
"203 592 OFFCURVE",
"192 641 OFFCURVE",
"192 641 CURVE",
"271 661 LINE",
"267 710 LINE",
"267 710 OFFCURVE",
"145 705 OFFCURVE",
"120 705 CURVE SMOOTH",
"86 705 OFFCURVE",
"11 705 OFFCURVE",
"11 705 CURVE",
"6 651 LINE",
"72 641 LINE",
"72 641 OFFCURVE",
"107 597 OFFCURVE",
"128 556 CURVE",
"294 236 LINE",
"355 236 LINE",
"514 545 LINE",
"541 597 OFFCURVE",
"577 644 OFFCURVE",
"577 644 CURVE"
);
},
{
closed = 1;
nodes = (
"374 298 LINE",
"283 298 LINE",
"283 137 LINE SMOOTH",
"283 120 OFFCURVE",
"276 74 OFFCURVE",
"274 61 CURVE",
"195 45 LINE",
"200 -5 LINE",
"200 -5 OFFCURVE",
"298 0 OFFCURVE",
"318 0 CURVE SMOOTH",
"398 0 OFFCURVE",
"464 -5 OFFCURVE",
"464 -5 CURVE",
"471 54 LINE",
"381 61 LINE",
"379 75 OFFCURVE",
"374 125 OFFCURVE",
"374 167 CURVE SMOOTH"
);
}
);
width = 663;
},
{
anchors = (
{
name = bottom;
position = "{350, 0}";
},
{
name = top;
position = "{356, 705}";
}
);
layerId = "16643525-C5DD-48EC-8E99-463BF28F5E85";
name = Bold;
paths = (
{
closed = 1;
nodes = (
"710 637 LINE",
"705 710 LINE",
"705 710 OFFCURVE",
"641 705 OFFCURVE",
"558 705 CURVE SMOOTH",
"511 705 OFFCURVE",
"448 710 OFFCURVE",
"448 710 CURVE",
"443 640 LINE",
"487 628 LINE",
"487 628 OFFCURVE",
"487 598 OFFCURVE",
"483 590 CURVE",
"373 369 LINE",
"268 576 LINE",
"258 595 OFFCURVE",
"251 628 OFFCURVE",
"251 628 CURVE",
"304 637 LINE",
"299 710 LINE",
"299 710 OFFCURVE",
"204 705 OFFCURVE",
"91 705 CURVE SMOOTH",
"54 705 OFFCURVE",
"-1 710 OFFCURVE",
"-1 710 CURVE",
"-6 640 LINE",
"54 631 LINE",
"54 631 OFFCURVE",
"88 601 OFFCURVE",
"102 577 CURVE",
"300 212 LINE",
"415 212 LINE",
"588 544 LINE",
"605 576 OFFCURVE",
"650 630 OFFCURVE",
"650 630 CURVE"
);
},
{
closed = 1;
nodes = (
"435 307 LINE",
"280 307 LINE",
"280 163 LINE SMOOTH",
"280 143 OFFCURVE",
"272 87 OFFCURVE",
"271 77 CURVE",
"205 65 LINE",
"210 -5 LINE",
"210 -5 OFFCURVE",
"263 0 OFFCURVE",
"310 0 CURVE SMOOTH",
"423 0 OFFCURVE",
"504 -5 OFFCURVE",
"504 -5 CURVE",
"509 71 LINE",
"444 77 LINE",
"442 91 OFFCURVE",
"435 143 OFFCURVE",
"435 193 CURVE SMOOTH"
);
}
);
width = 712;
}
);
leftKerningGroup = Y;
rightKerningGroup = Y;
unicode = 0059;
},
{
glyphname = Z;
lastChange = "2014-11-10 20:53:51 +0000";
layers = (
{
anchors = (
{
name = top;
position = "{279, 705}";
}
);
layerId = UUID0;
name = Regular;
paths = (
{
closed = 1;
nodes = (
"399 646 LINE",
"329 520 LINE",
"139 219 LINE SMOOTH",
"109 171 OFFCURVE",
"27 57 OFFCURVE",
"27 57 CURVE",
"34 0 LINE",
"382 0 LINE SMOOTH",
"402 0 OFFCURVE",
"496 -4 OFFCURVE",
"496 -4 CURVE",
"515 14 LINE",
"530 175 LINE",
"475 180 LINE",
"473 164 OFFCURVE",
"464 118 OFFCURVE",
"460 103 CURVE",
"459 96 OFFCURVE",
"450 81 OFFCURVE",
"440 68 CURVE",
"418 64 OFFCURVE",
"383 59 OFFCURVE",
"352 59 CURVE SMOOTH",
"149 59 LINE",
"222 191 LINE",
"413 494 LINE",
"521 649 LINE",
"514 705 LINE",
"183 705 LINE SMOOTH",
"163 705 OFFCURVE",
"69 715 OFFCURVE",
"69 715 CURVE",
"50 697 LINE",
"43 528 LINE",
"101 523 LINE",
"103 549 OFFCURVE",
"110 592 OFFCURVE",
"114 607 CURVE",
"130 641 LINE",
"152 643 OFFCURVE",
"187 646 OFFCURVE",
"216 646 CURVE SMOOTH"
);
}
);
width = 557;
},
{
anchors = (
{
name = top;
position = "{306, 705}";
}
);
layerId = "16643525-C5DD-48EC-8E99-463BF28F5E85";
name = Bold;
paths = (
{
closed = 1;
nodes = (
"368 616 LINE",
"318 516 LINE",
"143 237 LINE SMOOTH",
"119 196 OFFCURVE",
"32 80 OFFCURVE",
"32 80 CURVE",
"42 0 LINE",
"428 0 LINE SMOOTH",
"448 0 OFFCURVE",
"543 -4 OFFCURVE",
"543 -4 CURVE",
"563 14 LINE",
"578 198 LINE",
"510 203 LINE",
"508 187 OFFCURVE",
"501 159 OFFCURVE",
"497 144 CURVE",
"496 138 OFFCURVE",
"487 118 OFFCURVE",
"477 97 CURVE",
"456 93 OFFCURVE",
"422 89 OFFCURVE",
"393 89 CURVE SMOOTH",
"236 89 LINE",
"300 212 LINE",
"456 464 LINE",
"563 625 LINE",
"553 705 LINE",
"174 705 LINE SMOOTH",
"154 705 OFFCURVE",
"59 715 OFFCURVE",
"59 715 CURVE",
"39 697 LINE",
"32 512 LINE",
"104 507 LINE",
"106 524 OFFCURVE",
"115 568 OFFCURVE",
"119 583 CURVE",
"132 611 LINE",
"152 613 OFFCURVE",
"184 616 OFFCURVE",
"215 616 CURVE SMOOTH"
);
}
);
width = 611;
}
);
leftKerningGroup = Z;
rightKerningGroup = Z;
unicode = 005A;
},
{
glyphname = a;
lastChange = "2014-11-10 20:53:51 +0000";
layers = (
{
anchors = (
{
name = bottom;
position = "{244, 0}";
},
{
name = ogonek;
position = "{428, 10}";
},
{
name = top;
position = "{242, 494}";
}
);
layerId = UUID0;
name = Regular;
paths = (
{
closed = 1;
nodes = (
"357 0 LINE",
"437 0 OFFCURVE",
"486 -5 OFFCURVE",
"486 -5 CURVE",
"493 54 LINE",
"424 61 LINE",
"424 61 OFFCURVE",
"414 117 OFFCURVE",
"414 167 CURVE SMOOTH",
"414 291 LINE SMOOTH",
"414 444 OFFCURVE",
"368 503 OFFCURVE",
"249 503 CURVE SMOOTH",
"189 503 OFFCURVE",
"128 495 OFFCURVE",
"68 479 CURVE",
"79 343 LINE",
"137 346 LINE",
"137 387 LINE",
"144 429 LINE",
"169 441 OFFCURVE",
"206 449 OFFCURVE",
"239 449 CURVE SMOOTH",
"302 449 OFFCURVE",
"333 404 OFFCURVE",
"333 311 CURVE SMOOTH",
"333 278 LINE",
"173 251 LINE SMOOTH",
"83 236 OFFCURVE",
"39 190 OFFCURVE",
"39 118 CURVE SMOOTH",
"39 40 OFFCURVE",
"95 -10 OFFCURVE",
"184 -10 CURVE SMOOTH",
"249 -10 OFFCURVE",
"317 28 OFFCURVE",
"343 79 CURVE"
);
},
{
closed = 1;
nodes = (
"333 227 LINE",
"333 167 LINE",
"323 102 OFFCURVE",
"267 54 OFFCURVE",
"200 54 CURVE SMOOTH",
"153 54 OFFCURVE",
"127 83 OFFCURVE",
"127 133 CURVE SMOOTH",
"127 168 OFFCURVE",
"150 193 OFFCURVE",
"190 200 CURVE SMOOTH"
);
}
);
width = 505;
},
{
anchors = (
{
name = bottom;
position = "{250, 0}";
},
{
name = ogonek;
position = "{434, 10}";
},
{
name = top;
position = "{248, 494}";
}
);
associatedMasterId = UUID0;
layerId = "5A9D5047-53BF-467E-8249-9844D80532BD";
name = "Regular Jul 23 14, 13:18";
paths = (
{
closed = 1;
nodes = (
"363 0 LINE",
"443 0 OFFCURVE",
"492 -5 OFFCURVE",
"492 -5 CURVE",
"499 54 LINE",
"430 61 LINE",
"430 61 OFFCURVE",
"420 117 OFFCURVE",
"420 167 CURVE SMOOTH",
"420 291 LINE SMOOTH",
"420 444 OFFCURVE",
"374 503 OFFCURVE",
"255 503 CURVE SMOOTH",
"195 503 OFFCURVE",
"134 495 OFFCURVE",
"74 479 CURVE",
"85 343 LINE",
"143 346 LINE",
"143 387 LINE",
"150 429 LINE",
"175 441 OFFCURVE",
"212 449 OFFCURVE",
"245 449 CURVE SMOOTH",
"308 449 OFFCURVE",
"339 404 OFFCURVE",
"339 311 CURVE SMOOTH",
"339 278 LINE",
"179 251 LINE SMOOTH",
"89 236 OFFCURVE",
"45 190 OFFCURVE",
"45 118 CURVE SMOOTH",
"45 40 OFFCURVE",
"101 -10 OFFCURVE",
"190 -10 CURVE SMOOTH",
"255 -10 OFFCURVE",
"323 28 OFFCURVE",
"349 79 CURVE"
);
},
{
closed = 1;
nodes = (
"339 227 LINE",
"339 167 LINE",
"329 102 OFFCURVE",
"273 54 OFFCURVE",
"206 54 CURVE SMOOTH",
"159 54 OFFCURVE",
"133 83 OFFCURVE",
"133 133 CURVE SMOOTH",
"133 168 OFFCURVE",
"156 193 OFFCURVE",
"196 200 CURVE SMOOTH"
);
}
);
width = 516;
},
{
anchors = (
{
name = bottom;
position = "{245, 0}";
},
{
name = ogonek;
position = "{461, 10}";
},
{
name = top;
position = "{242, 494}";
}
);
layerId = "16643525-C5DD-48EC-8E99-463BF28F5E85";
name = Bold;
paths = (
{
closed = 1;
nodes = (
"321 0 LINE",
"456 0 OFFCURVE",
"505 -5 OFFCURVE",
"505 -5 CURVE",
"511 71 LINE",
"451 77 LINE",
"451 77 OFFCURVE",
"442 143 OFFCURVE",
"442 193 CURVE SMOOTH",
"442 323 LINE SMOOTH",
"442 437 OFFCURVE",
"365 503 OFFCURVE",
"233 503 CURVE SMOOTH",
"189 503 OFFCURVE",
"110 491 OFFCURVE",
"50 476 CURVE",
"65 307 LINE",
"140 310 LINE",
"139 353 LINE",
"146 393 LINE",
"169 404 OFFCURVE",
"203 412 OFFCURVE",
"227 412 CURVE SMOOTH",
"281 412 OFFCURVE",
"302 387 OFFCURVE",
"302 322 CURVE SMOOTH",
"302 293 LINE",
"160 270 LINE SMOOTH",
"72 256 OFFCURVE",
"28 210 OFFCURVE",
"28 132 CURVE SMOOTH",
"28 44 OFFCURVE",
"84 -10 OFFCURVE",
"175 -10 CURVE SMOOTH",
"238 -10 OFFCURVE",
"282 16 OFFCURVE",
"313 72 CURVE"
);
},
{
closed = 1;
nodes = (
"302 228 LINE",
"302 157 LINE",
"292 117 OFFCURVE",
"265 93 OFFCURVE",
"230 93 CURVE SMOOTH",
"193 93 OFFCURVE",
"176 113 OFFCURVE",
"176 154 CURVE SMOOTH",
"176 191 OFFCURVE",
"191 209 OFFCURVE",
"228 216 CURVE SMOOTH"
);
}
);
width = 523;
}
);
leftKerningGroup = a;
rightKerningGroup = n;
unicode = 0061;
},
{
glyphname = ae;
lastChange = "2014-11-10 20:53:51 +0000";
layers = (
{
anchors = (
{
name = top;
position = "{388, 494}";
}
);
layerId = UUID0;
name = Regular;
paths = (
{
closed = 1;
nodes = (
"80 344 LINE",
"138 347 LINE",
"138 383 LINE",
"147 430 LINE",
"171 442 OFFCURVE",
"205 449 OFFCURVE",
"240 449 CURVE SMOOTH",
"303 449 OFFCURVE",
"334 404 OFFCURVE",
"334 311 CURVE SMOOTH",
"334 277 LINE",
"155 247 LINE SMOOTH",
"80 235 OFFCURVE",
"40 191 OFFCURVE",
"40 123 CURVE SMOOTH",
"40 42 OFFCURVE",
"96 -10 OFFCURVE",
"185 -10 CURVE SMOOTH",
"259 -10 OFFCURVE",
"320 29 OFFCURVE",
"365 106 CURVE",
"398 31 OFFCURVE",
"463 -10 OFFCURVE",
"550 -10 CURVE SMOOTH",
"653 -10 OFFCURVE",
"727 50 OFFCURVE",
"727 50 CURVE",
"699 96 LINE",
"699 96 OFFCURVE",
"639 55 OFFCURVE",
"560 55 CURVE SMOOTH",
"477 55 OFFCURVE",
"418 129 OFFCURVE",
"414 238 CURVE",
"713 272 LINE",
"728 310 LINE",
"719 438 OFFCURVE",
"656 502 OFFCURVE",
"538 502 CURVE SMOOTH",
"478 502 OFFCURVE",
"427 480 OFFCURVE",
"388 438 CURVE",
"364 482 OFFCURVE",
"319 503 OFFCURVE",
"250 503 CURVE SMOOTH",
"190 503 OFFCURVE",
"129 495 OFFCURVE",
"69 479 CURVE"
);
},
{
closed = 1;
nodes = (
"334 226 LINE",
"334 215 LINE SMOOTH",
"334 124 OFFCURVE",
"276 54 OFFCURVE",
"201 54 CURVE SMOOTH",
"154 54 OFFCURVE",
"128 81 OFFCURVE",
"128 128 CURVE SMOOTH",
"128 171 OFFCURVE",
"146 191 OFFCURVE",
"191 200 CURVE SMOOTH"
);
},
{
closed = 1;
nodes = (
"600 450 OFFCURVE",
"638 403 OFFCURVE",
"638 322 CURVE SMOOTH",
"638 320 LINE",
"416 289 LINE",
"423 391 OFFCURVE",
"466 450 OFFCURVE",
"534 450 CURVE SMOOTH"
);
}
);
width = 756;
},
{
anchors = (
{
name = top;
position = "{374, 494}";
}
);
layerId = "16643525-C5DD-48EC-8E99-463BF28F5E85";
name = Bold;
paths = (
{
closed = 1;
nodes = (
"56 309 LINE",
"131 312 LINE",
"131 361 LINE",
"134 400 LINE",
"162 413 OFFCURVE",
"196 422 OFFCURVE",
"218 422 CURVE SMOOTH",
"269 422 OFFCURVE",
"293 391 OFFCURVE",
"293 323 CURVE SMOOTH",
"293 284 LINE",
"151 270 LINE SMOOTH",
"65 262 OFFCURVE",
"19 214 OFFCURVE",
"19 132 CURVE SMOOTH",
"19 47 OFFCURVE",
"82 -10 OFFCURVE",
"176 -10 CURVE SMOOTH",
"251 -10 OFFCURVE",
"301 16 OFFCURVE",
"345 77 CURVE",
"385 15 OFFCURVE",
"442 -15 OFFCURVE",
"521 -15 CURVE SMOOTH",
"599 -15 OFFCURVE",
"665 9 OFFCURVE",
"717 56 CURVE",
"682 114 LINE",
"682 114 OFFCURVE",
"634 81 OFFCURVE",
"561 81 CURVE SMOOTH",
"476 81 OFFCURVE",
"441 121 OFFCURVE",
"435 224 CURVE",
"705 240 LINE",
"726 279 LINE",
"726 420 OFFCURVE",
"648 503 OFFCURVE",
"517 503 CURVE SMOOTH",
"459 503 OFFCURVE",
"410 489 OFFCURVE",
"372 461 CURVE",
"336 489 OFFCURVE",
"286 503 OFFCURVE",
"224 503 CURVE SMOOTH",
"178 503 OFFCURVE",
"108 493 OFFCURVE",
"41 476 CURVE"
);
},
{
closed = 1;
nodes = (
"293 214 LINE",
"293 182 LINE SMOOTH",
"293 124 OFFCURVE",
"268 93 OFFCURVE",
"221 93 CURVE SMOOTH",
"184 93 OFFCURVE",
"167 111 OFFCURVE",
"167 152 CURVE SMOOTH",
"167 188 OFFCURVE",
"180 202 OFFCURVE",
"219 207 CURVE SMOOTH"
);
},
{
closed = 1;
nodes = (
"549 424 OFFCURVE",
"569 388 OFFCURVE",
"569 311 CURVE SMOOTH",
"568 303 LINE",
"436 294 LINE",
"439 380 OFFCURVE",
"462 424 OFFCURVE",
"506 424 CURVE SMOOTH"
);
}
);
width = 727;
}
);
leftKerningGroup = a;
rightKerningGroup = e;
unicode = 00E6;
},
{
glyphname = b;
lastChange = "2014-11-10 20:53:51 +0000";
layers = (
{
layerId = UUID0;
name = Regular;
paths = (
{
closed = 1;
nodes = (
"10 707 LINE",
"86 691 LINE",
"86 691 OFFCURVE",
"96 635 OFFCURVE",
"96 615 CURVE SMOOTH",
"96 137 LINE SMOOTH",
"96 117 OFFCURVE",
"88 26 OFFCURVE",
"88 26 CURVE",
"134 9 OFFCURVE",
"202 -10 OFFCURVE",
"284 -10 CURVE SMOOTH",
"427 -10 OFFCURVE",
"514 113 OFFCURVE",
"514 256 CURVE SMOOTH",
"514 394 OFFCURVE",
"449 503 OFFCURVE",
"316 503 CURVE SMOOTH",
"247 503 OFFCURVE",
"202 465 OFFCURVE",
"177 427 CURVE",
"177 585 LINE SMOOTH",
"177 635 OFFCURVE",
"184 738 OFFCURVE",
"184 738 CURVE",
"165 756 LINE",
"107 756 LINE SMOOTH",
"87 756 OFFCURVE",
"15 760 OFFCURVE",
"15 760 CURVE"
);
},
{
closed = 1;
nodes = (
"396 442 OFFCURVE",
"422 353 OFFCURVE",
"422 254 CURVE SMOOTH",
"422 144 OFFCURVE",
"386 46 OFFCURVE",
"278 46 CURVE SMOOTH",
"243 46 OFFCURVE",
"211 51 OFFCURVE",
"184 58 CURVE",
"182 71 OFFCURVE",
"177 123 OFFCURVE",
"177 167 CURVE SMOOTH",
"177 274 LINE SMOOTH",
"177 357 OFFCURVE",
"217 442 OFFCURVE",
"301 442 CURVE SMOOTH"
);
}
);
width = 554;
},
{
layerId = "16643525-C5DD-48EC-8E99-463BF28F5E85";
name = Bold;
paths = (
{
closed = 1;
nodes = (
"-8 691 LINE",
"67 674 LINE",
"67 674 OFFCURVE",
"77 607 OFFCURVE",
"77 587 CURVE SMOOTH",
"77 163 LINE SMOOTH",
"77 143 OFFCURVE",
"67 26 OFFCURVE",
"67 26 CURVE",
"162 -2 OFFCURVE",
"234 -10 OFFCURVE",
"298 -10 CURVE SMOOTH",
"462 -10 OFFCURVE",
"549 90 OFFCURVE",
"549 254 CURVE SMOOTH",
"549 392 OFFCURVE",
"497 503 OFFCURVE",
"359 503 CURVE SMOOTH",
"293 503 OFFCURVE",
"251 476 OFFCURVE",
"217 433 CURVE",
"217 557 LINE SMOOTH",
"217 607 OFFCURVE",
"227 739 OFFCURVE",
"227 739 CURVE",
"206 758 LINE",
"118 756 LINE SMOOTH",
"76 756 OFFCURVE",
"1 766 OFFCURVE",
"1 766 CURVE"
);
},
{
closed = 1;
nodes = (
"379 390 OFFCURVE",
"390 315 OFFCURVE",
"390 241 CURVE SMOOTH",
"390 153 OFFCURVE",
"374 85 OFFCURVE",
"286 85 CURVE SMOOTH",
"265 85 OFFCURVE",
"242 91 OFFCURVE",
"220 98 CURVE",
"219 124 OFFCURVE",
"217 163 OFFCURVE",
"217 193 CURVE SMOOTH",
"217 260 LINE SMOOTH",
"221 331 OFFCURVE",
"243 390 OFFCURVE",
"305 390 CURVE SMOOTH"
);
}
);
width = 574;
}
);
leftKerningGroup = h;
rightKerningGroup = o;
unicode = 0062;
},
{
glyphname = c;
lastChange = "2014-11-10 20:53:51 +0000";
layers = (
{
anchors = (
{
name = bottom;
position = "{267, 0}";
},
{
name = top;
position = "{273, 494}";
}
);
layerId = UUID0;
name = Regular;
paths = (
{
closed = 1;
nodes = (
"117 503 OFFCURVE",
"40 399 OFFCURVE",
"40 246 CURVE SMOOTH",
"40 93 OFFCURVE",
"116 -10 OFFCURVE",
"269 -10 CURVE SMOOTH",
"373 -10 OFFCURVE",
"438 44 OFFCURVE",
"438 44 CURVE",
"410 91 LINE",
"410 91 OFFCURVE",
"348 55 OFFCURVE",
"270 55 CURVE SMOOTH",
"170 55 OFFCURVE",
"134 146 OFFCURVE",
"134 246 CURVE SMOOTH",
"134 346 OFFCURVE",
"170 446 OFFCURVE",
"270 446 CURVE SMOOTH",
"299 446 OFFCURVE",
"323 440 OFFCURVE",
"352 416 CURVE",
"356 402 OFFCURVE",
"359 389 OFFCURVE",
"359 382 CURVE SMOOTH",
"359 346 LINE",
"417 343 LINE",
"427 468 LINE",
"367 488 OFFCURVE",
"329 503 OFFCURVE",
"270 503 CURVE SMOOTH"
);
}
);
width = 466;
},
{
anchors = (
{
name = bottom;
position = "{273, 0}";
},
{
name = top;
position = "{273, 494}";
}
);
layerId = "16643525-C5DD-48EC-8E99-463BF28F5E85";
name = Bold;
paths = (
{
closed = 1;
nodes = (
"118 503 OFFCURVE",
"25 405 OFFCURVE",
"25 245 CURVE SMOOTH",
"25 76 OFFCURVE",
"112 -15 OFFCURVE",
"275 -15 CURVE SMOOTH",
"339 -15 OFFCURVE",
"405 11 OFFCURVE",
"456 56 CURVE",
"421 114 LINE",
"421 114 OFFCURVE",
"373 82 OFFCURVE",
"304 82 CURVE SMOOTH",
"224 82 OFFCURVE",
"184 136 OFFCURVE",
"184 245 CURVE SMOOTH",
"184 368 OFFCURVE",
"214 424 OFFCURVE",
"279 424 CURVE SMOOTH",
"300 424 OFFCURVE",
"326 414 OFFCURVE",
"344 398 CURVE",
"346 385 OFFCURVE",
"347 372 OFFCURVE",
"348 359 CURVE SMOOTH",
"347 305 LINE",
"432 302 LINE",
"447 479 LINE",
"447 479 OFFCURVE",
"358 503 OFFCURVE",
"270 503 CURVE SMOOTH"
);
}
);
width = 466;
}
);
leftKerningGroup = o;
rightKerningGroup = c;
unicode = 0063;
},
{
glyphname = d;
lastChange = "2014-11-10 20:53:51 +0000";
layers = (
{
anchors = (
{
name = center;
position = "{287, 247}";
}
);
layerId = UUID0;
name = Regular;
paths = (
{
closed = 1;
nodes = (
"541 54 LINE",
"472 61 LINE",
"472 61 OFFCURVE",
"462 117 OFFCURVE",
"462 167 CURVE SMOOTH",
"462 585 LINE SMOOTH",
"462 635 OFFCURVE",
"469 738 OFFCURVE",
"469 738 CURVE",
"450 756 LINE",
"392 756 LINE SMOOTH",
"372 756 OFFCURVE",
"288 760 OFFCURVE",
"288 760 CURVE",
"283 707 LINE",
"371 691 LINE",
"371 691 OFFCURVE",
"381 635 OFFCURVE",
"381 615 CURVE SMOOTH",
"381 479 LINE",
"328 498 OFFCURVE",
"298 503 OFFCURVE",
"256 503 CURVE SMOOTH",
"126 503 OFFCURVE",
"46 405 OFFCURVE",
"46 247 CURVE SMOOTH",
"46 87 OFFCURVE",
"122 -10 OFFCURVE",
"247 -10 CURVE SMOOTH",
"300 -10 OFFCURVE",
"371 34 OFFCURVE",
"391 80 CURVE",
"405 0 LINE",
"485 0 OFFCURVE",
"534 -5 OFFCURVE",
"534 -5 CURVE"
);
},
{
closed = 1;
nodes = (
"381 207 LINE",
"381 111 OFFCURVE",
"334 54 OFFCURVE",
"254 54 CURVE SMOOTH",
"182 54 OFFCURVE",
"138 127 OFFCURVE",
"138 246 CURVE SMOOTH",
"138 370 OFFCURVE",
"185 442 OFFCURVE",
"266 442 CURVE SMOOTH",
"308 442 OFFCURVE",
"343 431 OFFCURVE",
"381 406 CURVE"
);
}
);
width = 553;
},
{
anchors = (
{
name = center;
position = "{294, 247}";
}
);
layerId = "16643525-C5DD-48EC-8E99-463BF28F5E85";
name = Bold;
paths = (
{
closed = 1;
nodes = (
"565 71 LINE",
"505 77 LINE",
"505 77 OFFCURVE",
"496 143 OFFCURVE",
"496 193 CURVE SMOOTH",
"496 557 LINE SMOOTH",
"496 607 OFFCURVE",
"506 739 OFFCURVE",
"506 739 CURVE",
"485 758 LINE",
"397 756 LINE SMOOTH",
"355 756 OFFCURVE",
"280 766 OFFCURVE",
"280 766 CURVE",
"271 691 LINE",
"346 674 LINE",
"346 674 OFFCURVE",
"356 607 OFFCURVE",
"356 587 CURVE SMOOTH",
"356 498 LINE",
"327 501 OFFCURVE",
"299 503 OFFCURVE",
"275 503 CURVE SMOOTH",
"115 503 OFFCURVE",
"24 407 OFFCURVE",
"24 239 CURVE SMOOTH",
"24 80 OFFCURVE",
"92 -10 OFFCURVE",
"214 -10 CURVE SMOOTH",
"279 -10 OFFCURVE",
"325 15 OFFCURVE",
"367 75 CURVE",
"375 0 LINE",
"510 0 OFFCURVE",
"559 -5 OFFCURVE",
"559 -5 CURVE"
);
},
{
closed = 1;
nodes = (
"356 233 LINE",
"351 147 OFFCURVE",
"321 103 OFFCURVE",
"268 103 CURVE SMOOTH",
"210 103 OFFCURVE",
"183 150 OFFCURVE",
"183 252 CURVE SMOOTH",
"183 362 OFFCURVE",
"214 408 OFFCURVE",
"287 408 CURVE SMOOTH",
"305 408 OFFCURVE",
"328 404 OFFCURVE",
"356 395 CURVE"
);
}
);
width = 588;
}
);
leftKerningGroup = o;
unicode = 0064;
},
{
glyphname = e;
lastChange = "2014-11-10 20:53:51 +0000";
layers = (
{
anchors = (
{
name = bottom;
position = "{268, 0}";
},
{
name = ogonek;
position = "{370, 10}";
},
{
name = top;
position = "{261, 494}";
}
);
layerId = UUID0;
name = Regular;
paths = (
{
closed = 1;
nodes = (
"111 503 OFFCURVE",
"40 395 OFFCURVE",
"40 245 CURVE SMOOTH",
"40 94 OFFCURVE",
"119 -10 OFFCURVE",
"270 -10 CURVE SMOOTH",
"383 -10 OFFCURVE",
"447 50 OFFCURVE",
"447 50 CURVE",
"419 96 LINE",
"419 96 OFFCURVE",
"355 55 OFFCURVE",
"270 55 CURVE SMOOTH",
"176 55 OFFCURVE",
"134 156 OFFCURVE",
"134 250 CURVE SMOOTH",
"134 344 OFFCURVE",
"160 451 OFFCURVE",
"254 451 CURVE SMOOTH",
"325 451 OFFCURVE",
"358 395 OFFCURVE",
"358 324 CURVE SMOOTH",
"358 319 OFFCURVE",
"357 304 OFFCURVE",
"357 304 CURVE",
"115 286 LINE",
"115 237 LINE",
"433 237 LINE",
"450 270 LINE",
"450 410 OFFCURVE",
"398 503 OFFCURVE",
"258 503 CURVE SMOOTH"
);
}
);
width = 478;
},
{
anchors = (
{
name = bottom;
position = "{267, 0}";
},
{
name = ogonek;
position = "{411, 10}";
},
{
name = top;
position = "{261, 494}";
}
);
layerId = "16643525-C5DD-48EC-8E99-463BF28F5E85";
name = Bold;
paths = (
{
closed = 1;
nodes = (
"122 503 OFFCURVE",
"25 410 OFFCURVE",
"25 242 CURVE SMOOTH",
"25 79 OFFCURVE",
"117 -15 OFFCURVE",
"270 -15 CURVE SMOOTH",
"348 -15 OFFCURVE",
"414 9 OFFCURVE",
"466 56 CURVE",
"431 114 LINE",
"431 114 OFFCURVE",
"383 81 OFFCURVE",
"310 81 CURVE SMOOTH",
"223 81 OFFCURVE",
"184 126 OFFCURVE",
"184 256 CURVE SMOOTH",
"184 351 OFFCURVE",
"195 424 OFFCURVE",
"255 424 CURVE SMOOTH",
"298 424 OFFCURVE",
"318 386 OFFCURVE",
"318 310 CURVE SMOOTH",
"318 308 OFFCURVE",
"317 302 OFFCURVE",
"317 302 CURVE",
"174 294 LINE",
"173 221 LINE",
"454 221 LINE",
"475 260 LINE",
"484 412 OFFCURVE",
"408 503 OFFCURVE",
"266 503 CURVE SMOOTH"
);
}
);
width = 498;
}
);
leftKerningGroup = o;
rightKerningGroup = e;
unicode = 0065;
},
{
glyphname = eth;
lastChange = "2014-11-10 20:53:51 +0000";
layers = (
{
layerId = UUID0;
name = Regular;
paths = (
{
closed = 1;
nodes = (
"468 697 LINE",
"446 734 LINE",
"331 674 LINE",
"291 712 OFFCURVE",
"243 743 OFFCURVE",
"187 765 CURVE",
"168 724 LINE",
"211 702 OFFCURVE",
"247 676 OFFCURVE",
"277 646 CURVE",
"159 585 LINE",
"181 550 LINE",
"305 614 LINE",
"386 511 OFFCURVE",
"407 376 OFFCURVE",
"407 251 CURVE SMOOTH",
"407 145 OFFCURVE",
"373 47 OFFCURVE",
"270 47 CURVE SMOOTH",
"172 47 OFFCURVE",
"136 138 OFFCURVE",
"136 236 CURVE SMOOTH",
"136 334 OFFCURVE",
"174 426 OFFCURVE",
"267 426 CURVE SMOOTH",
"283 426 OFFCURVE",
"307 424 OFFCURVE",
"320 422 CURVE",
"328 467 LINE",
"310 474 OFFCURVE",
"287 483 OFFCURVE",
"258 483 CURVE SMOOTH",
"128 483 OFFCURVE",
"41 380 OFFCURVE",
"41 236 CURVE SMOOTH",
"41 92 OFFCURVE",
"126 -10 OFFCURVE",
"270 -10 CURVE SMOOTH",
"422 -10 OFFCURVE",
"501 96 OFFCURVE",
"501 252 CURVE SMOOTH",
"501 396 OFFCURVE",
"456 539 OFFCURVE",
"362 643 CURVE"
);
}
);
width = 543;
},
{
layerId = "16643525-C5DD-48EC-8E99-463BF28F5E85";
name = Bold;
paths = (
{
closed = 1;
nodes = (
"473 687 LINE",
"441 744 LINE",
"334 688 LINE",
"291 724 OFFCURVE",
"242 752 OFFCURVE",
"187 770 CURVE",
"162 711 LINE",
"197 692 OFFCURVE",
"226 670 OFFCURVE",
"249 645 CURVE",
"154 595 LINE",
"186 540 LINE",
"290 593 LINE",
"349 500 OFFCURVE",
"362 385 OFFCURVE",
"362 279 CURVE SMOOTH",
"362 172 OFFCURVE",
"343 77 OFFCURVE",
"268 77 CURVE SMOOTH",
"193 77 OFFCURVE",
"181 161 OFFCURVE",
"181 236 CURVE SMOOTH",
"181 311 OFFCURVE",
"193 396 OFFCURVE",
"268 396 CURVE SMOOTH",
"286 396 OFFCURVE",
"300 392 OFFCURVE",
"308 390 CURVE",
"320 460 LINE",
"307 470 OFFCURVE",
"277 483 OFFCURVE",
"238 483 CURVE SMOOTH",
"108 483 OFFCURVE",
"21 387 OFFCURVE",
"21 243 CURVE SMOOTH",
"21 83 OFFCURVE",
"108 -15 OFFCURVE",
"268 -15 CURVE SMOOTH",
"430 -15 OFFCURVE",
"521 90 OFFCURVE",
"521 252 CURVE SMOOTH",
"521 404 OFFCURVE",
"472 542 OFFCURVE",
"383 641 CURVE"
);
}
);
width = 516;
}
);
leftKerningGroup = o;
unicode = 00F0;
},
{
glyphname = f;
lastChange = "2014-11-10 20:53:51 +0000";
layers = (
{
layerId = UUID0;
name = Regular;
paths = (
{
closed = 1;
nodes = (
"183 770 OFFCURVE",
"122 702 OFFCURVE",
"122 597 CURVE SMOOTH",
"122 511 LINE",
"99 497 OFFCURVE",
"75 493 OFFCURVE",
"42 482 CURVE",
"45 440 LINE",
"122 440 LINE",
"122 137 LINE SMOOTH",
"122 117 OFFCURVE",
"112 61 OFFCURVE",
"112 61 CURVE",
"36 45 LINE",
"41 -5 LINE",
"41 -5 OFFCURVE",
"132 0 OFFCURVE",
"152 0 CURVE SMOOTH",
"232 0 OFFCURVE",
"301 -5 OFFCURVE",
"301 -5 CURVE",
"308 54 LINE",
"210 61 LINE",
"210 61 OFFCURVE",
"203 117 OFFCURVE",
"203 167 CURVE SMOOTH",
"203 440 LINE",
"338 440 LINE",
"343 494 LINE",
"203 494 LINE",
"203 566 LINE SMOOTH",
"203 656 OFFCURVE",
"208 717 OFFCURVE",
"298 717 CURVE SMOOTH",
"305 717 OFFCURVE",
"317 716 OFFCURVE",
"325 716 CURVE",
"331 695 OFFCURVE",
"337 673 OFFCURVE",
"337 664 CURVE",
"337 628 LINE",
"390 625 LINE",
"401 760 LINE",
"401 760 OFFCURVE",
"339 770 OFFCURVE",
"298 770 CURVE SMOOTH"
);
}
);
width = 351;
},
{
layerId = "16643525-C5DD-48EC-8E99-463BF28F5E85";
name = Bold;
paths = (
{
closed = 1;
nodes = (
"171 770 OFFCURVE",
"100 690 OFFCURVE",
"100 580 CURVE SMOOTH",
"100 501 LINE",
"83 494 OFFCURVE",
"64 490 OFFCURVE",
"40 482 CURVE",
"43 419 LINE",
"100 419 LINE",
"100 163 LINE SMOOTH",
"100 143 OFFCURVE",
"91 77 OFFCURVE",
"91 77 CURVE",
"35 65 LINE",
"40 -5 LINE",
"40 -5 OFFCURVE",
"93 0 OFFCURVE",
"140 0 CURVE SMOOTH",
"253 0 OFFCURVE",
"329 -5 OFFCURVE",
"329 -5 CURVE",
"334 71 LINE",
"249 77 LINE",
"249 77 OFFCURVE",
"240 143 OFFCURVE",
"240 193 CURVE SMOOTH",
"240 419 LINE",
"342 419 LINE",
"351 494 LINE",
"240 494 LINE",
"240 570 LINE SMOOTH",
"240 650 OFFCURVE",
"248 689 OFFCURVE",
"298 689 CURVE SMOOTH",
"313 689 OFFCURVE",
"326 685 OFFCURVE",
"335 681 CURVE",
"337 666 OFFCURVE",
"339 646 OFFCURVE",
"339 637 CURVE",
"339 592 LINE",
"413 589 LINE",
"428 756 LINE",
"428 756 OFFCURVE",
"350 770 OFFCURVE",
"281 770 CURVE SMOOTH"
);
}
);
width = 361;
}
);
leftKerningGroup = f;
rightKerningGroup = f;
unicode = 0066;
},
{
glyphname = g;
lastChange = "2014-11-10 20:53:51 +0000";
layers = (
{
anchors = (
{
name = top;
position = "{253, 494}";
}
);
layerId = UUID0;
name = Regular;
paths = (
{
closed = 1;
nodes = (
"474 440 LINE",
"474 498 LINE",
"352 479 LINE",
"322 494 OFFCURVE",
"287 503 OFFCURVE",
"247 503 CURVE SMOOTH",
"131 503 OFFCURVE",
"54 431 OFFCURVE",
"54 322 CURVE SMOOTH",
"54 250 OFFCURVE",
"88 194 OFFCURVE",
"144 164 CURVE",
"95 123 OFFCURVE",
"72 98 OFFCURVE",
"72 84 CURVE SMOOTH",
"72 49 OFFCURVE",
"87 26 OFFCURVE",
"123 11 CURVE",
"70 -31 OFFCURVE",
"32 -72 OFFCURVE",
"32 -90 CURVE SMOOTH",
"32 -185 OFFCURVE",
"100 -235 OFFCURVE",
"230 -235 CURVE SMOOTH",
"370 -235 OFFCURVE",
"484 -149 OFFCURVE",
"484 -44 CURVE SMOOTH",
"484 4 OFFCURVE",
"468 34 OFFCURVE",
"439 43 CURVE SMOOTH",
"401 55 OFFCURVE",
"314 64 OFFCURVE",
"246 73 CURVE SMOOTH",
"171 82 OFFCURVE",
"152 88 OFFCURVE",
"152 108 CURVE SMOOTH",
"152 114 OFFCURVE",
"160 128 OFFCURVE",
"179 150 CURVE",
"200 144 OFFCURVE",
"222 141 OFFCURVE",
"247 141 CURVE SMOOTH",
"363 141 OFFCURVE",
"440 213 OFFCURVE",
"440 322 CURVE SMOOTH",
"440 372 OFFCURVE",
"424 415 OFFCURVE",
"394 446 CURVE"
);
},
{
closed = 1;
nodes = (
"180 -6 OFFCURVE",
"203 -10 OFFCURVE",
"230 -13 CURVE SMOOTH",
"360 -30 LINE SMOOTH",
"390 -34 OFFCURVE",
"399 -45 OFFCURVE",
"399 -75 CURVE SMOOTH",
"399 -136 OFFCURVE",
"340 -178 OFFCURVE",
"258 -178 CURVE SMOOTH",
"162 -178 OFFCURVE",
"118 -147 OFFCURVE",
"118 -79 CURVE SMOOTH",
"118 -60 OFFCURVE",
"126 -44 OFFCURVE",
"161 -1 CURVE"
);
},
{
closed = 1;
nodes = (
"318 452 OFFCURVE",
"353 409 OFFCURVE",
"353 322 CURVE SMOOTH",
"353 235 OFFCURVE",
"318 192 OFFCURVE",
"247 192 CURVE SMOOTH",
"176 192 OFFCURVE",
"141 235 OFFCURVE",
"141 322 CURVE SMOOTH",
"141 408 OFFCURVE",
"177 452 OFFCURVE",
"247 452 CURVE SMOOTH"
);
}
);
width = 505;
},
{
anchors = (
{
name = top;
position = "{262, 494}";
}
);
layerId = "16643525-C5DD-48EC-8E99-463BF28F5E85";
name = Bold;
paths = (
{
closed = 1;
nodes = (
"505 418 LINE",
"501 504 LINE",
"370 482 LINE",
"339 496 OFFCURVE",
"302 503 OFFCURVE",
"261 503 CURVE SMOOTH",
"132 503 OFFCURVE",
"46 430 OFFCURVE",
"46 320 CURVE SMOOTH",
"46 252 OFFCURVE",
"80 198 OFFCURVE",
"137 168 CURVE",
"96 128 OFFCURVE",
"76 102 OFFCURVE",
"76 88 CURVE SMOOTH",
"76 45 OFFCURVE",
"89 17 OFFCURVE",
"119 -4 CURVE",
"65 -35 OFFCURVE",
"27 -70 OFFCURVE",
"27 -92 CURVE SMOOTH",
"27 -186 OFFCURVE",
"101 -235 OFFCURVE",
"247 -235 CURVE SMOOTH",
"397 -235 OFFCURVE",
"515 -149 OFFCURVE",
"515 -39 CURVE SMOOTH",
"515 10 OFFCURVE",
"497 41 OFFCURVE",
"463 54 CURVE SMOOTH",
"438 63 OFFCURVE",
"395 69 OFFCURVE",
"258 84 CURVE SMOOTH",
"198 90 OFFCURVE",
"175 100 OFFCURVE",
"175 122 CURVE SMOOTH",
"175 128 OFFCURVE",
"179 137 OFFCURVE",
"189 149 CURVE",
"209 144 OFFCURVE",
"232 141 OFFCURVE",
"257 141 CURVE SMOOTH",
"386 141 OFFCURVE",
"472 214 OFFCURVE",
"472 324 CURVE SMOOTH",
"472 365 OFFCURVE",
"464 391 OFFCURVE",
"446 418 CURVE"
);
},
{
closed = 1;
nodes = (
"193 -32 OFFCURVE",
"210 -35 OFFCURVE",
"230 -38 CURVE SMOOTH",
"360 -58 LINE SMOOTH",
"381 -61 OFFCURVE",
"393 -74 OFFCURVE",
"393 -92 CURVE SMOOTH",
"393 -131 OFFCURVE",
"354 -155 OFFCURVE",
"291 -155 CURVE SMOOTH",
"206 -155 OFFCURVE",
"160 -127 OFFCURVE",
"160 -76 CURVE SMOOTH",
"160 -62 OFFCURVE",
"166 -44 OFFCURVE",
"178 -28 CURVE"
);
},
{
closed = 1;
nodes = (
"301 437 OFFCURVE",
"320 401 OFFCURVE",
"320 326 CURVE SMOOTH",
"320 245 OFFCURVE",
"300 207 OFFCURVE",
"258 207 CURVE SMOOTH",
"218 207 OFFCURVE",
"198 243 OFFCURVE",
"198 318 CURVE SMOOTH",
"198 399 OFFCURVE",
"219 437 OFFCURVE",
"261 437 CURVE SMOOTH"
);
}
);
width = 524;
}
);
leftKerningGroup = g;
rightKerningGroup = g;
unicode = 0067;
},
{
glyphname = germandbls;
lastChange = "2014-11-10 20:53:51 +0000";
layers = (
{
layerId = UUID0;
name = Regular;
paths = (
{
closed = 1;
nodes = (
"34 45 LINE",
"39 -5 LINE",
"39 -5 OFFCURVE",
"137 0 OFFCURVE",
"157 0 CURVE SMOOTH",
"209 0 LINE",
"206 52 OFFCURVE",
"203 117 OFFCURVE",
"203 167 CURVE SMOOTH",
"203 546 LINE SMOOTH",
"203 648 OFFCURVE",
"219 711 OFFCURVE",
"324 711 CURVE SMOOTH",
"400 711 OFFCURVE",
"460 674 OFFCURVE",
"460 609 CURVE SMOOTH",
"460 494 OFFCURVE",
"297 505 OFFCURVE",
"297 370 CURVE SMOOTH",
"297 215 OFFCURVE",
"527 222 OFFCURVE",
"527 117 CURVE SMOOTH",
"527 67 OFFCURVE",
"498 41 OFFCURVE",
"448 41 CURVE SMOOTH",
"420 41 OFFCURVE",
"394 46 OFFCURVE",
"374 64 CURVE",
"368 88 OFFCURVE",
"362 114 OFFCURVE",
"362 124 CURVE SMOOTH",
"362 162 LINE",
"304 165 LINE",
"293 29 LINE",
"293 29 OFFCURVE",
"359 -10 OFFCURVE",
"449 -10 CURVE SMOOTH",
"551 -10 OFFCURVE",
"612 30 OFFCURVE",
"612 132 CURVE SMOOTH",
"612 278 OFFCURVE",
"379 290 OFFCURVE",
"379 377 CURVE SMOOTH",
"379 467 OFFCURVE",
"530 465 OFFCURVE",
"530 609 CURVE SMOOTH",
"530 717 OFFCURVE",
"432 770 OFFCURVE",
"324 770 CURVE SMOOTH",
"199 770 OFFCURVE",
"122 702 OFFCURVE",
"122 577 CURVE SMOOTH",
"122 511 LINE",
"99 497 OFFCURVE",
"75 493 OFFCURVE",
"42 482 CURVE",
"45 440 LINE",
"122 440 LINE",
"122 137 LINE SMOOTH",
"122 120 OFFCURVE",
"115 74 OFFCURVE",
"113 61 CURVE"
);
}
);
width = 625;
},
{
layerId = "16643525-C5DD-48EC-8E99-463BF28F5E85";
name = Bold;
paths = (
{
closed = 1;
nodes = (
"35 65 LINE",
"40 -5 LINE",
"40 -5 OFFCURVE",
"99 0 OFFCURVE",
"171 0 CURVE SMOOTH",
"249 0 LINE",
"249 10 OFFCURVE",
"240 143 OFFCURVE",
"240 193 CURVE SMOOTH",
"240 546 LINE SMOOTH",
"240 633 OFFCURVE",
"252 686 OFFCURVE",
"332 686 CURVE SMOOTH",
"387 686 OFFCURVE",
"434 664 OFFCURVE",
"434 609 CURVE SMOOTH",
"434 494 OFFCURVE",
"290 484 OFFCURVE",
"290 349 CURVE SMOOTH",
"290 188 OFFCURVE",
"487 210 OFFCURVE",
"487 112 CURVE SMOOTH",
"487 84 OFFCURVE",
"466 68 OFFCURVE",
"441 68 CURVE SMOOTH",
"420 68 OFFCURVE",
"395 79 OFFCURVE",
"376 90 CURVE",
"376 90 OFFCURVE",
"370 123 OFFCURVE",
"370 128 CURVE SMOOTH",
"370 173 LINE",
"300 178 LINE",
"288 13 LINE",
"288 13 OFFCURVE",
"378 -10 OFFCURVE",
"442 -10 CURVE SMOOTH",
"544 -10 OFFCURVE",
"610 49 OFFCURVE",
"610 151 CURVE SMOOTH",
"610 315 OFFCURVE",
"406 301 OFFCURVE",
"406 375 CURVE SMOOTH",
"406 445 OFFCURVE",
"547 472 OFFCURVE",
"547 613 CURVE SMOOTH",
"547 733 OFFCURVE",
"452 770 OFFCURVE",
"332 770 CURVE SMOOTH",
"193 770 OFFCURVE",
"101 718 OFFCURVE",
"100 580 CURVE SMOOTH",
"100 501 LINE",
"83 494 OFFCURVE",
"64 490 OFFCURVE",
"40 482 CURVE",
"43 419 LINE",
"100 419 LINE",
"100 163 LINE SMOOTH",
"100 143 OFFCURVE",
"93 93 OFFCURVE",
"91 77 CURVE"
);
}
);
width = 620;
}
);
leftKerningGroup = f;
unicode = 00DF;
},
{
glyphname = h;
lastChange = "2014-11-10 20:53:51 +0000";
layers = (
{
anchors = (
{
name = center;
position = "{297, 247}";
},
{
name = top;
position = "{141, 756}";
}
);
layerId = UUID0;
name = Regular;
paths = (
{
closed = 1;
nodes = (
"20 707 LINE",
"96 691 LINE",
"96 691 OFFCURVE",
"106 635 OFFCURVE",
"106 615 CURVE SMOOTH",
"106 137 LINE SMOOTH",
"106 117 OFFCURVE",
"98 70 OFFCURVE",
"96 61 CURVE",
"19 45 LINE",
"24 -5 LINE",
"24 -5 OFFCURVE",
"115 0 OFFCURVE",
"135 0 CURVE SMOOTH",
"215 0 OFFCURVE",
"264 -5 OFFCURVE",
"264 -5 CURVE",
"271 54 LINE",
"193 61 LINE",
"192 69 OFFCURVE",
"187 123 OFFCURVE",
"187 167 CURVE SMOOTH",
"187 274 LINE SMOOTH",
"188 372 OFFCURVE",
"236 442 OFFCURVE",
"315 442 CURVE SMOOTH",
"399 442 OFFCURVE",
"418 360 OFFCURVE",
"418 276 CURVE SMOOTH",
"418 137 LINE SMOOTH",
"418 112 OFFCURVE",
"413 83 OFFCURVE",
"408 61 CURVE",
"341 45 LINE",
"346 -5 LINE",
"346 -5 OFFCURVE",
"428 0 OFFCURVE",
"448 0 CURVE SMOOTH",
"528 0 OFFCURVE",
"577 -5 OFFCURVE",
"577 -5 CURVE",
"584 54 LINE",
"506 61 LINE",
"506 61 OFFCURVE",
"499 117 OFFCURVE",
"499 167 CURVE SMOOTH",
"499 276 LINE SMOOTH",
"499 414 OFFCURVE",
"468 503 OFFCURVE",
"330 503 CURVE SMOOTH",
"262 503 OFFCURVE",
"214 467 OFFCURVE",
"187 427 CURVE",
"187 585 LINE SMOOTH",
"187 632 OFFCURVE",
"191 707 OFFCURVE",
"194 738 CURVE",
"175 756 LINE",
"117 756 LINE SMOOTH",
"97 756 OFFCURVE",
"25 760 OFFCURVE",
"25 760 CURVE"
);
}
);
width = 594;
},
{
anchors = (
{
name = center;
position = "{316, 247}";
},
{
name = top;
position = "{160, 756}";
}
);
layerId = "16643525-C5DD-48EC-8E99-463BF28F5E85";
name = Bold;
paths = (
{
closed = 1;
nodes = (
"12 691 LINE",
"87 674 LINE",
"87 674 OFFCURVE",
"97 607 OFFCURVE",
"97 587 CURVE SMOOTH",
"97 163 LINE SMOOTH",
"97 143 OFFCURVE",
"90 88 OFFCURVE",
"88 77 CURVE",
"22 65 LINE",
"27 -5 LINE",
"27 -5 OFFCURVE",
"80 0 OFFCURVE",
"127 0 CURVE SMOOTH",
"240 0 OFFCURVE",
"306 -5 OFFCURVE",
"306 -5 CURVE",
"311 71 LINE",
"246 77 LINE",
"246 77 OFFCURVE",
"237 143 OFFCURVE",
"237 193 CURVE SMOOTH",
"237 265 LINE SMOOTH",
"237 355 OFFCURVE",
"286 403 OFFCURVE",
"336 403 CURVE SMOOTH",
"388 403 OFFCURVE",
"410 363 OFFCURVE",
"410 311 CURVE SMOOTH",
"410 163 LINE SMOOTH",
"410 153 OFFCURVE",
"407 113 OFFCURVE",
"405 77 CURVE",
"349 65 LINE",
"354 -5 LINE",
"354 -5 OFFCURVE",
"393 0 OFFCURVE",
"440 0 CURVE SMOOTH",
"553 0 OFFCURVE",
"619 -5 OFFCURVE",
"619 -5 CURVE",
"624 71 LINE",
"559 77 LINE",
"559 77 OFFCURVE",
"550 143 OFFCURVE",
"550 193 CURVE SMOOTH",
"550 325 LINE SMOOTH",
"550 441 OFFCURVE",
"489 503 OFFCURVE",
"373 503 CURVE SMOOTH",
"314 503 OFFCURVE",
"271 477 OFFCURVE",
"237 435 CURVE",
"237 557 LINE SMOOTH",
"237 607 OFFCURVE",
"243 696 OFFCURVE",
"247 739 CURVE",
"226 758 LINE",
"138 756 LINE SMOOTH",
"96 756 OFFCURVE",
"21 766 OFFCURVE",
"21 766 CURVE"
);
}
);
width = 631;
}
);
leftKerningGroup = h;
rightKerningGroup = n;
unicode = 0068;
},
{
glyphname = i;
lastChange = "2014-11-10 20:53:51 +0000";
layers = (
{
anchors = (
{
name = bottom;
position = "{160, 0}";
}
);
layerId = UUID0;
name = Regular;
paths = (
{
closed = 1;
nodes = (
"288 54 LINE",
"210 61 LINE",
"210 61 OFFCURVE",
"203 117 OFFCURVE",
"203 167 CURVE SMOOTH",
"203 323 LINE SMOOTH",
"203 373 OFFCURVE",
"210 476 OFFCURVE",
"210 476 CURVE",
"191 494 LINE",
"133 494 LINE SMOOTH",
"113 494 OFFCURVE",
"41 498 OFFCURVE",
"41 498 CURVE",
"36 445 LINE",
"112 429 LINE",
"112 429 OFFCURVE",
"122 373 OFFCURVE",
"122 353 CURVE SMOOTH",
"122 137 LINE SMOOTH",
"122 117 OFFCURVE",
"112 61 OFFCURVE",
"112 61 CURVE",
"36 45 LINE",
"41 -5 LINE",
"41 -5 OFFCURVE",
"132 0 OFFCURVE",
"152 0 CURVE SMOOTH",
"232 0 OFFCURVE",
"281 -5 OFFCURVE",
"281 -5 CURVE"
);
},
{
closed = 1;
nodes = (
"120 720 OFFCURVE",
"99 693 OFFCURVE",
"99 655 CURVE SMOOTH",
"99 617 OFFCURVE",
"120 591 OFFCURVE",
"158 591 CURVE SMOOTH",
"196 591 OFFCURVE",
"217 617 OFFCURVE",
"217 655 CURVE SMOOTH",
"217 696 OFFCURVE",
"195 720 OFFCURVE",
"158 720 CURVE SMOOTH"
);
}
);
width = 301;
},
{
anchors = (
{
name = bottom;
position = "{161, 0}";
}
);
layerId = "16643525-C5DD-48EC-8E99-463BF28F5E85";
name = Bold;
paths = (
{
closed = 1;
nodes = (
"316 71 LINE",
"251 77 LINE",
"251 77 OFFCURVE",
"242 143 OFFCURVE",
"242 193 CURVE SMOOTH",
"242 295 LINE SMOOTH",
"242 345 OFFCURVE",
"252 477 OFFCURVE",
"252 477 CURVE",
"231 496 LINE",
"143 494 LINE SMOOTH",
"101 494 OFFCURVE",
"26 503 OFFCURVE",
"26 503 CURVE",
"17 429 LINE",
"92 412 LINE",
"92 412 OFFCURVE",
"102 345 OFFCURVE",
"102 325 CURVE SMOOTH",
"102 163 LINE SMOOTH",
"102 143 OFFCURVE",
"93 77 OFFCURVE",
"93 77 CURVE",
"27 65 LINE",
"32 -5 LINE",
"32 -5 OFFCURVE",
"85 0 OFFCURVE",
"132 0 CURVE SMOOTH",
"245 0 OFFCURVE",
"311 -5 OFFCURVE",
"311 -5 CURVE"
);
},
{
closed = 1;
nodes = (
"118 735 OFFCURVE",
"90 702 OFFCURVE",
"90 655 CURVE SMOOTH",
"90 608 OFFCURVE",
"118 576 OFFCURVE",
"169 576 CURVE SMOOTH",
"220 576 OFFCURVE",
"248 608 OFFCURVE",
"248 655 CURVE SMOOTH",
"248 705 OFFCURVE",
"218 735 OFFCURVE",
"169 735 CURVE SMOOTH"
);
}
);
width = 332;
}
);
leftKerningGroup = n;
rightKerningGroup = i;
unicode = 0069;
},
{
glyphname = j;
lastChange = "2014-11-10 20:53:51 +0000";
layers = (
{
layerId = UUID0;
name = Regular;
paths = (
{
closed = 1;
nodes = (
"25 445 LINE",
"101 429 LINE",
"101 429 OFFCURVE",
"111 373 OFFCURVE",
"111 353 CURVE SMOOTH",
"111 117 LINE SMOOTH",
"111 67 OFFCURVE",
"111 21 OFFCURVE",
"111 21 CURVE",
"111 -19 OFFCURVE",
"35 -214 OFFCURVE",
"35 -214 CURVE",
"71 -235 LINE",
"71 -235 OFFCURVE",
"192 -50 OFFCURVE",
"192 -10 CURVE SMOOTH",
"192 323 LINE SMOOTH",
"192 373 OFFCURVE",
"199 476 OFFCURVE",
"199 476 CURVE",
"180 494 LINE",
"122 494 LINE SMOOTH",
"102 494 OFFCURVE",
"30 498 OFFCURVE",
"30 498 CURVE"
);
},
{
closed = 1;
nodes = (
"103 720 OFFCURVE",
"82 693 OFFCURVE",
"82 655 CURVE SMOOTH",
"82 617 OFFCURVE",
"103 591 OFFCURVE",
"141 591 CURVE SMOOTH",
"179 591 OFFCURVE",
"200 617 OFFCURVE",
"200 655 CURVE SMOOTH",
"200 696 OFFCURVE",
"178 720 OFFCURVE",
"141 720 CURVE SMOOTH"
);
}
);
width = 279;
},
{
layerId = "16643525-C5DD-48EC-8E99-463BF28F5E85";
name = Bold;
paths = (
{
closed = 1;
nodes = (
"5 429 LINE",
"80 412 LINE",
"80 412 OFFCURVE",
"90 345 OFFCURVE",
"90 325 CURVE SMOOTH",
"90 117 LINE SMOOTH",
"90 67 OFFCURVE",
"90 21 OFFCURVE",
"90 21 CURVE",
"90 -19 OFFCURVE",
"15 -209 OFFCURVE",
"15 -209 CURVE",
"62 -235 LINE",
"62 -235 OFFCURVE",
"230 -50 OFFCURVE",
"230 -10 CURVE SMOOTH",
"230 295 LINE SMOOTH",
"230 345 OFFCURVE",
"240 477 OFFCURVE",
"240 477 CURVE",
"219 496 LINE",
"131 494 LINE SMOOTH",
"89 494 OFFCURVE",
"14 503 OFFCURVE",
"14 503 CURVE"
);
},
{
closed = 1;
nodes = (
"100 735 OFFCURVE",
"72 702 OFFCURVE",
"72 655 CURVE SMOOTH",
"72 608 OFFCURVE",
"100 576 OFFCURVE",
"151 576 CURVE SMOOTH",
"202 576 OFFCURVE",
"230 608 OFFCURVE",
"230 655 CURVE SMOOTH",
"230 705 OFFCURVE",
"200 735 OFFCURVE",
"151 735 CURVE SMOOTH"
);
}
);
width = 308;
}
);
leftKerningGroup = j;
rightKerningGroup = j;
unicode = 006A;
},
{
glyphname = k;
lastChange = "2014-11-10 20:53:51 +0000";
layers = (
{
anchors = (
{
name = bottom;
position = "{286, 0}";
}
);
layerId = UUID0;
name = Regular;
paths = (
{
closed = 1;
nodes = (
"20 707 LINE",
"96 691 LINE",
"96 691 OFFCURVE",
"106 635 OFFCURVE",
"106 615 CURVE SMOOTH",
"106 137 LINE SMOOTH",
"106 117 OFFCURVE",
"98 70 OFFCURVE",
"96 61 CURVE",
"19 45 LINE",
"24 -5 LINE",
"24 -5 OFFCURVE",
"115 0 OFFCURVE",
"135 0 CURVE SMOOTH",
"215 0 OFFCURVE",
"264 -5 OFFCURVE",
"264 -5 CURVE",
"271 54 LINE",
"193 61 LINE",
"192 69 OFFCURVE",
"187 123 OFFCURVE",
"187 167 CURVE SMOOTH",
"187 585 LINE SMOOTH",
"187 632 OFFCURVE",
"191 707 OFFCURVE",
"194 738 CURVE",
"175 756 LINE",
"117 756 LINE SMOOTH",
"97 756 OFFCURVE",
"25 760 OFFCURVE",
"25 760 CURVE"
);
},
{
closed = 1;
nodes = (
"363 437 LINE",
"198 265 LINE",
"340 115 LINE",
"391 59 LINE",
"334 48 LINE",
"339 -2 LINE",
"441 0 LINE SMOOTH",
"521 0 OFFCURVE",
"570 -5 OFFCURVE",
"570 -5 CURVE",
"577 54 LINE",
"514 60 LINE",
"481 85 OFFCURVE",
"435 117 OFFCURVE",
"424 129 CURVE SMOOTH",
"287 279 LINE",
"368 366 LINE SMOOTH",
"386 385 OFFCURVE",
"434 415 OFFCURVE",
"467 433 CURVE",
"542 441 LINE",
"539 499 LINE",
"539 499 OFFCURVE",
"492 494 OFFCURVE",
"412 494 CURVE SMOOTH",
"392 494 OFFCURVE",
"325 497 OFFCURVE",
"325 497 CURVE",
"320 445 LINE"
);
}
);
width = 572;
},
{
anchors = (
{
name = bottom;
position = "{306, 0}";
}
);
layerId = "16643525-C5DD-48EC-8E99-463BF28F5E85";
name = Bold;
paths = (
{
closed = 1;
nodes = (
"12 691 LINE",
"87 674 LINE",
"87 674 OFFCURVE",
"97 607 OFFCURVE",
"97 587 CURVE SMOOTH",
"97 163 LINE SMOOTH",
"97 143 OFFCURVE",
"90 88 OFFCURVE",
"88 77 CURVE",
"22 65 LINE",
"27 -5 LINE",
"27 -5 OFFCURVE",
"80 0 OFFCURVE",
"127 0 CURVE SMOOTH",
"240 0 OFFCURVE",
"306 -5 OFFCURVE",
"306 -5 CURVE",
"311 71 LINE",
"246 77 LINE",
"246 77 OFFCURVE",
"237 143 OFFCURVE",
"237 193 CURVE SMOOTH",
"237 557 LINE SMOOTH",
"237 607 OFFCURVE",
"243 696 OFFCURVE",
"247 739 CURVE",
"226 758 LINE",
"138 756 LINE SMOOTH",
"96 756 OFFCURVE",
"21 766 OFFCURVE",
"21 766 CURVE"
);
},
{
closed = 1;
nodes = (
"373 422 LINE",
"248 265 LINE",
"337 110 LINE",
"359 68 LINE",
"363 60 LINE",
"392 0 LINE",
"490 0 LINE SMOOTH",
"548 0 OFFCURVE",
"603 -5 OFFCURVE",
"603 -5 CURVE",
"609 71 LINE",
"549 77 LINE",
"518 110 OFFCURVE",
"477 151 OFFCURVE",
"470 162 CURVE SMOOTH",
"395 280 LINE",
"462 366 LINE SMOOTH",
"475 383 OFFCURVE",
"513 405 OFFCURVE",
"544 423 CURVE",
"597 428 LINE",
"599 498 LINE",
"599 498 OFFCURVE",
"523 494 OFFCURVE",
"483 494 CURVE SMOOTH",
"413 494 OFFCURVE",
"324 499 OFFCURVE",
"324 499 CURVE",
"319 428 LINE"
);
}
);
width = 611;
}
);
leftKerningGroup = h;
rightKerningGroup = x;
unicode = 006B;
},
{
glyphname = l;
lastChange = "2014-11-10 20:53:51 +0000";
layers = (
{
anchors = (
{
name = bottom;
position = "{147, 0}";
},
{
name = top;
position = "{141, 756}";
},
{
name = topright;
position = "{273, 494}";
}
);
layerId = UUID0;
name = Regular;
paths = (
{
closed = 1;
nodes = (
"20 707 LINE",
"96 691 LINE",
"96 691 OFFCURVE",
"106 635 OFFCURVE",
"106 615 CURVE SMOOTH",
"106 137 LINE SMOOTH",
"106 117 OFFCURVE",
"98 70 OFFCURVE",
"96 61 CURVE",
"19 45 LINE",
"24 -5 LINE",
"24 -5 OFFCURVE",
"115 0 OFFCURVE",
"135 0 CURVE SMOOTH",
"215 0 OFFCURVE",
"264 -5 OFFCURVE",
"264 -5 CURVE",
"271 54 LINE",
"193 61 LINE",
"192 69 OFFCURVE",
"187 123 OFFCURVE",
"187 167 CURVE SMOOTH",
"187 585 LINE SMOOTH",
"187 632 OFFCURVE",
"191 707 OFFCURVE",
"194 738 CURVE",
"175 756 LINE",
"117 756 LINE SMOOTH",
"97 756 OFFCURVE",
"25 760 OFFCURVE",
"25 760 CURVE"
);
}
);
width = 293;
},
{
anchors = (
{
name = bottom;
position = "{165, 0}";
},
{
name = top;
position = "{160, 756}";
},
{
name = topright;
position = "{309, 494}";
}
);
layerId = "16643525-C5DD-48EC-8E99-463BF28F5E85";
name = Bold;
paths = (
{
closed = 1;
nodes = (
"12 691 LINE",
"87 674 LINE",
"87 674 OFFCURVE",
"97 607 OFFCURVE",
"97 587 CURVE SMOOTH",
"97 163 LINE SMOOTH",
"97 143 OFFCURVE",
"90 88 OFFCURVE",
"88 77 CURVE",
"22 65 LINE",
"27 -5 LINE",
"27 -5 OFFCURVE",
"80 0 OFFCURVE",
"127 0 CURVE SMOOTH",
"240 0 OFFCURVE",
"306 -5 OFFCURVE",
"306 -5 CURVE",
"311 71 LINE",
"246 77 LINE",
"246 77 OFFCURVE",
"237 143 OFFCURVE",
"237 193 CURVE SMOOTH",
"237 557 LINE SMOOTH",
"237 607 OFFCURVE",
"243 696 OFFCURVE",
"247 739 CURVE",
"226 758 LINE",
"138 756 LINE SMOOTH",
"96 756 OFFCURVE",
"21 766 OFFCURVE",
"21 766 CURVE"
);
}
);
width = 329;
}
);
leftKerningGroup = h;
rightKerningGroup = l;
unicode = 006C;
},
{
glyphname = m;
lastChange = "2014-11-10 20:53:51 +0000";
layers = (
{
layerId = UUID0;
name = Regular;
paths = (
{
closed = 1;
nodes = (
"560 503 OFFCURVE",
"505 452 OFFCURVE",
"479 399 CURVE",
"499 276 LINE",
"500 374 OFFCURVE",
"548 442 OFFCURVE",
"623 442 CURVE SMOOTH",
"698 442 OFFCURVE",
"714 360 OFFCURVE",
"714 276 CURVE SMOOTH",
"714 137 LINE SMOOTH",
"714 112 OFFCURVE",
"709 83 OFFCURVE",
"704 61 CURVE",
"637 45 LINE",
"642 -5 LINE",
"642 -5 OFFCURVE",
"724 0 OFFCURVE",
"744 0 CURVE SMOOTH",
"824 0 OFFCURVE",
"873 -5 OFFCURVE",
"873 -5 CURVE",
"880 54 LINE",
"802 61 LINE",
"802 61 OFFCURVE",
"795 117 OFFCURVE",
"795 167 CURVE SMOOTH",
"795 276 LINE SMOOTH",
"795 414 OFFCURVE",
"767 503 OFFCURVE",
"640 503 CURVE SMOOTH"
);
},
{
closed = 1;
nodes = (
"36 445 LINE",
"112 429 LINE",
"112 429 OFFCURVE",
"122 373 OFFCURVE",
"122 353 CURVE SMOOTH",
"122 132 LINE",
"120 109 OFFCURVE",
"112 61 OFFCURVE",
"112 61 CURVE",
"36 45 LINE",
"41 -5 LINE",
"41 -5 OFFCURVE",
"132 0 OFFCURVE",
"152 0 CURVE SMOOTH",
"232 0 OFFCURVE",
"281 -5 OFFCURVE",
"281 -5 CURVE",
"288 54 LINE",
"210 61 LINE",
"210 61 OFFCURVE",
"203 117 OFFCURVE",
"203 167 CURVE SMOOTH",
"203 323 LINE",
"188 476 LINE",
"169 494 LINE",
"133 494 LINE SMOOTH",
"113 494 OFFCURVE",
"41 498 OFFCURVE",
"41 498 CURVE"
);
},
{
closed = 1;
nodes = (
"269 503 OFFCURVE",
"218 458 OFFCURVE",
"194 412 CURVE",
"203 274 LINE",
"204 372 OFFCURVE",
"252 442 OFFCURVE",
"327 442 CURVE SMOOTH",
"402 442 OFFCURVE",
"418 360 OFFCURVE",
"418 276 CURVE SMOOTH",
"418 137 LINE SMOOTH",
"418 112 OFFCURVE",
"413 83 OFFCURVE",
"408 61 CURVE",
"341 45 LINE",
"346 -5 LINE",
"346 -5 OFFCURVE",
"428 0 OFFCURVE",
"448 0 CURVE SMOOTH",
"528 0 OFFCURVE",
"577 -5 OFFCURVE",
"577 -5 CURVE",
"584 54 LINE",
"506 61 LINE",
"506 61 OFFCURVE",
"499 117 OFFCURVE",
"499 167 CURVE SMOOTH",
"499 276 LINE SMOOTH",
"499 414 OFFCURVE",
"471 503 OFFCURVE",
"344 503 CURVE SMOOTH"
);
}
);
width = 890;
},
{
layerId = "16643525-C5DD-48EC-8E99-463BF28F5E85";
name = Bold;
paths = (
{
closed = 1;
nodes = (
"588 503 OFFCURVE",
"535 444 OFFCURVE",
"493 362 CURVE",
"539 265 LINE",
"539 355 OFFCURVE",
"584 403 OFFCURVE",
"630 403 CURVE SMOOTH",
"677 403 OFFCURVE",
"696 363 OFFCURVE",
"696 311 CURVE SMOOTH",
"696 163 LINE SMOOTH",
"696 153 OFFCURVE",
"693 113 OFFCURVE",
"691 77 CURVE",
"635 65 LINE",
"640 -5 LINE",
"640 -5 OFFCURVE",
"679 0 OFFCURVE",
"726 0 CURVE SMOOTH",
"839 0 OFFCURVE",
"905 -5 OFFCURVE",
"905 -5 CURVE",
"910 71 LINE",
"845 77 LINE",
"845 77 OFFCURVE",
"836 143 OFFCURVE",
"836 193 CURVE SMOOTH",
"836 325 LINE SMOOTH",
"836 441 OFFCURVE",
"781 503 OFFCURVE",
"677 503 CURVE SMOOTH"
);
},
{
closed = 1;
nodes = (
"17 429 LINE",
"92 412 LINE",
"92 412 OFFCURVE",
"102 345 OFFCURVE",
"102 325 CURVE SMOOTH",
"102 163 LINE",
"102 143 OFFCURVE",
"93 77 OFFCURVE",
"93 77 CURVE",
"27 65 LINE",
"32 -5 LINE",
"32 -5 OFFCURVE",
"85 0 OFFCURVE",
"132 0 CURVE SMOOTH",
"245 0 OFFCURVE",
"311 -5 OFFCURVE",
"311 -5 CURVE",
"316 71 LINE",
"251 77 LINE",
"251 77 OFFCURVE",
"242 143 OFFCURVE",
"242 193 CURVE SMOOTH",
"242 265 LINE",
"212 477 LINE",
"191 496 LINE",
"143 494 LINE SMOOTH",
"101 494 OFFCURVE",
"26 503 OFFCURVE",
"26 503 CURVE"
);
},
{
closed = 1;
nodes = (
"291 503 OFFCURVE",
"238 444 OFFCURVE",
"196 362 CURVE",
"242 265 LINE",
"242 355 OFFCURVE",
"287 403 OFFCURVE",
"333 403 CURVE SMOOTH",
"380 403 OFFCURVE",
"399 363 OFFCURVE",
"399 311 CURVE SMOOTH",
"399 163 LINE SMOOTH",
"399 153 OFFCURVE",
"396 113 OFFCURVE",
"394 77 CURVE",
"338 65 LINE",
"343 -5 LINE",
"343 -5 OFFCURVE",
"382 0 OFFCURVE",
"429 0 CURVE SMOOTH",
"542 0 OFFCURVE",
"608 -5 OFFCURVE",
"608 -5 CURVE",
"613 71 LINE",
"548 77 LINE",
"548 77 OFFCURVE",
"539 143 OFFCURVE",
"539 193 CURVE SMOOTH",
"539 325 LINE SMOOTH",
"539 441 OFFCURVE",
"484 503 OFFCURVE",
"380 503 CURVE SMOOTH"
);
}
);
width = 917;
}
);
leftKerningGroup = n;
rightKerningGroup = n;
unicode = 006D;
},
{
glyphname = n;
lastChange = "2014-11-10 20:53:51 +0000";
layers = (
{
anchors = (
{
name = bottom;
position = "{292, 0}";
},
{
name = top;
position = "{302, 494}";
}
);
layerId = UUID0;
name = Regular;
paths = (
{
closed = 1;
nodes = (
"257 503 OFFCURVE",
"205 458 OFFCURVE",
"181 412 CURVE",
"190 274 LINE",
"191 372 OFFCURVE",
"239 442 OFFCURVE",
"318 442 CURVE SMOOTH",
"402 442 OFFCURVE",
"421 360 OFFCURVE",
"421 276 CURVE SMOOTH",
"421 137 LINE",
"421 112 OFFCURVE",
"416 83 OFFCURVE",
"411 61 CURVE",
"344 45 LINE",
"349 -5 LINE",
"349 -5 OFFCURVE",
"431 0 OFFCURVE",
"451 0 CURVE SMOOTH",
"531 0 OFFCURVE",
"580 -5 OFFCURVE",
"580 -5 CURVE",
"587 54 LINE",
"509 61 LINE",
"509 61 OFFCURVE",
"502 117 OFFCURVE",
"502 167 CURVE SMOOTH",
"502 276 LINE SMOOTH",
"502 414 OFFCURVE",
"471 503 OFFCURVE",
"333 503 CURVE SMOOTH"
);
},
{
closed = 1;
nodes = (
"23 445 LINE",
"99 429 LINE",
"99 429 OFFCURVE",
"109 373 OFFCURVE",
"109 353 CURVE SMOOTH",
"109 132 LINE",
"107 109 OFFCURVE",
"99 61 OFFCURVE",
"99 61 CURVE",
"23 45 LINE",
"28 -5 LINE",
"28 -5 OFFCURVE",
"119 0 OFFCURVE",
"139 0 CURVE SMOOTH",
"219 0 OFFCURVE",
"268 -5 OFFCURVE",
"268 -5 CURVE",
"275 54 LINE",
"197 61 LINE",
"197 61 OFFCURVE",
"190 117 OFFCURVE",
"190 167 CURVE SMOOTH",
"190 323 LINE",
"175 476 LINE",
"156 494 LINE",
"120 494 LINE SMOOTH",
"100 494 OFFCURVE",
"28 498 OFFCURVE",
"28 498 CURVE"
);
}
);
width = 599;
},
{
anchors = (
{
name = bottom;
position = "{0, 0}";
},
{
name = top;
position = "{320, 494}";
}
);
annotations = (
{
position = "{266.667, 645.455}";
text = "17 - 7";
type = Text;
}
);
layerId = "16643525-C5DD-48EC-8E99-463BF28F5E85";
name = Bold;
paths = (
{
closed = 1;
nodes = (
"295 503 OFFCURVE",
"240 444 OFFCURVE",
"196 362 CURVE",
"242 265 LINE",
"242 355 OFFCURVE",
"291 403 OFFCURVE",
"341 403 CURVE SMOOTH",
"393 403 OFFCURVE",
"415 363 OFFCURVE",
"415 311 CURVE SMOOTH",
"415 163 LINE",
"415 153 OFFCURVE",
"412 113 OFFCURVE",
"410 77 CURVE",
"354 65 LINE",
"359 -5 LINE",
"359 -5 OFFCURVE",
"398 0 OFFCURVE",
"445 0 CURVE SMOOTH",
"558 0 OFFCURVE",
"624 -5 OFFCURVE",
"624 -5 CURVE",
"629 71 LINE",
"564 77 LINE",
"564 77 OFFCURVE",
"555 143 OFFCURVE",
"555 193 CURVE SMOOTH",
"555 325 LINE SMOOTH",
"555 441 OFFCURVE",
"497 503 OFFCURVE",
"388 503 CURVE SMOOTH"
);
},
{
closed = 1;
nodes = (
"17 429 LINE",
"92 412 LINE",
"92 412 OFFCURVE",
"102 345 OFFCURVE",
"102 325 CURVE SMOOTH",
"102 163 LINE",
"102 143 OFFCURVE",
"93 77 OFFCURVE",
"93 77 CURVE",
"27 65 LINE",
"32 -5 LINE",
"32 -5 OFFCURVE",
"85 0 OFFCURVE",
"132 0 CURVE SMOOTH",
"245 0 OFFCURVE",
"311 -5 OFFCURVE",
"311 -5 CURVE",
"316 71 LINE",
"251 77 LINE",
"251 77 OFFCURVE",
"242 143 OFFCURVE",
"242 193 CURVE SMOOTH",
"242 265 LINE",
"212 477 LINE",
"191 496 LINE",
"143 494 LINE SMOOTH",
"101 494 OFFCURVE",
"26 503 OFFCURVE",
"26 503 CURVE"
);
}
);
width = 636;
}
);
leftKerningGroup = n;
rightKerningGroup = n;
unicode = 006E;
},
{
glyphname = o;
lastChange = "2014-11-10 20:53:51 +0000";
layers = (
{
anchors = (
{
name = bottom;
position = "{272, 0}";
},
{
name = horn;
position = "{449, 451}";
},
{
name = top;
position = "{275, 494}";
}
);
layerId = UUID0;
name = Regular;
paths = (
{
closed = 1;
nodes = (
"504 401 OFFCURVE",
"428 503 OFFCURVE",
"274 503 CURVE SMOOTH",
"122 503 OFFCURVE",
"44 399 OFFCURVE",
"44 246 CURVE SMOOTH",
"44 94 OFFCURVE",
"122 -10 OFFCURVE",
"274 -10 CURVE SMOOTH",
"426 -10 OFFCURVE",
"504 94 OFFCURVE",
"504 246 CURVE SMOOTH"
);
},
{
closed = 1;
nodes = (
"410 143 OFFCURVE",
"377 47 OFFCURVE",
"274 47 CURVE SMOOTH",
"171 47 OFFCURVE",
"138 143 OFFCURVE",
"138 246 CURVE SMOOTH",
"138 349 OFFCURVE",
"171 446 OFFCURVE",
"274 446 CURVE SMOOTH",
"377 446 OFFCURVE",
"410 349 OFFCURVE",
"410 246 CURVE SMOOTH"
);
}
);
width = 548;
},
{
anchors = (
{
name = bottom;
position = "{272, 0}";
},
{
name = horn;
position = "{272, 0}";
},
{
name = top;
position = "{272, 494}";
}
);
annotations = (
{
position = "{295, 686}";
text = 25;
type = Text;
}
);
guideLines = (
{
angle = 90;
position = "{272, 85}";
}
);
layerId = "16643525-C5DD-48EC-8E99-463BF28F5E85";
name = Bold;
paths = (
{
closed = 1;
nodes = (
"519 411 OFFCURVE",
"431 503 OFFCURVE",
"272 503 CURVE SMOOTH",
"113 503 OFFCURVE",
"25 411 OFFCURVE",
"25 244 CURVE SMOOTH",
"25 78 OFFCURVE",
"113 -15 OFFCURVE",
"272 -15 CURVE SMOOTH",
"431 -15 OFFCURVE",
"519 78 OFFCURVE",
"519 244 CURVE SMOOTH"
);
},
{
closed = 1;
nodes = (
"360 121 OFFCURVE",
"334 70 OFFCURVE",
"272 70 CURVE SMOOTH",
"210 70 OFFCURVE",
"184 121 OFFCURVE",
"184 244 CURVE SMOOTH",
"184 367 OFFCURVE",
"210 418 OFFCURVE",
"272 418 CURVE SMOOTH",
"334 418 OFFCURVE",
"360 367 OFFCURVE",
"360 244 CURVE SMOOTH"
);
}
);
width = 544;
}
);
leftKerningGroup = o;
rightKerningGroup = o;
unicode = 006F;
},
{
glyphname = oe;
lastChange = "2014-11-10 20:53:51 +0000";
layers = (
{
anchors = (
{
name = top;
position = "{415, 494}";
}
);
layerId = UUID0;
name = Regular;
paths = (
{
closed = 1;
nodes = (
"535 503 OFFCURVE",
"481 476 OFFCURVE",
"445 430 CURVE",
"406 477 OFFCURVE",
"348 503 OFFCURVE",
"270 503 CURVE SMOOTH",
"118 503 OFFCURVE",
"40 399 OFFCURVE",
"40 246 CURVE SMOOTH",
"40 94 OFFCURVE",
"118 -10 OFFCURVE",
"270 -10 CURVE SMOOTH",
"348 -10 OFFCURVE",
"407 18 OFFCURVE",
"445 65 CURVE",
"484 18 OFFCURVE",
"543 -10 OFFCURVE",
"621 -10 CURVE SMOOTH",
"734 -10 OFFCURVE",
"798 50 OFFCURVE",
"798 50 CURVE",
"770 96 LINE",
"770 96 OFFCURVE",
"706 55 OFFCURVE",
"621 55 CURVE SMOOTH",
"531 55 OFFCURVE",
"489 147 OFFCURVE",
"485 237 CURVE",
"784 237 LINE",
"801 270 LINE",
"801 410 OFFCURVE",
"749 503 OFFCURVE",
"609 503 CURVE SMOOTH"
);
},
{
closed = 1;
nodes = (
"373 446 OFFCURVE",
"406 349 OFFCURVE",
"406 246 CURVE SMOOTH",
"406 143 OFFCURVE",
"373 47 OFFCURVE",
"270 47 CURVE SMOOTH",
"167 47 OFFCURVE",
"134 143 OFFCURVE",
"134 246 CURVE SMOOTH",
"134 349 OFFCURVE",
"167 446 OFFCURVE",
"270 446 CURVE SMOOTH"
);
},
{
closed = 1;
nodes = (
"676 451 OFFCURVE",
"709 395 OFFCURVE",
"709 324 CURVE SMOOTH",
"709 319 OFFCURVE",
"708 304 OFFCURVE",
"708 304 CURVE",
"486 288 LINE",
"493 370 OFFCURVE",
"523 451 OFFCURVE",
"605 451 CURVE SMOOTH"
);
}
);
width = 829;
},
{
anchors = (
{
name = top;
position = "{387, 494}";
}
);
layerId = "16643525-C5DD-48EC-8E99-463BF28F5E85";
name = Bold;
paths = (
{
closed = 1;
nodes = (
"526 503 OFFCURVE",
"473 477 OFFCURVE",
"437 425 CURVE",
"389 477 OFFCURVE",
"333 503 OFFCURVE",
"268 503 CURVE SMOOTH",
"109 503 OFFCURVE",
"21 411 OFFCURVE",
"21 244 CURVE SMOOTH",
"21 78 OFFCURVE",
"109 -15 OFFCURVE",
"268 -15 CURVE SMOOTH",
"331 -15 OFFCURVE",
"388 11 OFFCURVE",
"437 62 CURVE",
"472 10 OFFCURVE",
"525 -15 OFFCURVE",
"601 -15 CURVE SMOOTH",
"679 -15 OFFCURVE",
"745 9 OFFCURVE",
"797 56 CURVE",
"762 114 LINE",
"762 114 OFFCURVE",
"714 81 OFFCURVE",
"641 81 CURVE SMOOTH",
"559 81 OFFCURVE",
"522 123 OFFCURVE",
"516 221 CURVE",
"785 221 LINE",
"806 260 LINE",
"815 413 OFFCURVE",
"738 503 OFFCURVE",
"597 503 CURVE SMOOTH"
);
},
{
closed = 1;
nodes = (
"330 418 OFFCURVE",
"356 367 OFFCURVE",
"356 244 CURVE SMOOTH",
"356 121 OFFCURVE",
"330 70 OFFCURVE",
"268 70 CURVE SMOOTH",
"206 70 OFFCURVE",
"180 121 OFFCURVE",
"180 244 CURVE SMOOTH",
"180 367 OFFCURVE",
"206 418 OFFCURVE",
"268 418 CURVE SMOOTH"
);
},
{
closed = 1;
nodes = (
"628 424 OFFCURVE",
"649 386 OFFCURVE",
"649 310 CURVE SMOOTH",
"649 308 OFFCURVE",
"648 302 OFFCURVE",
"648 302 CURVE",
"516 295 LINE",
"519 383 OFFCURVE",
"541 424 OFFCURVE",
"586 424 CURVE SMOOTH"
);
}
);
width = 774;
}
);
leftKerningGroup = o;
rightKerningGroup = e;
unicode = 0153;
},
{
glyphname = oslash;
lastChange = "2014-11-10 20:53:51 +0000";
layers = (
{
anchors = (
{
name = top;
position = "{270, 494}";
}
);
layerId = UUID0;
name = Regular;
paths = (
{
closed = 1;
nodes = (
"122 -99 LINE",
"480 578 LINE",
"440 598 LINE",
"83 -79 LINE"
);
},
{
closed = 1;
nodes = (
"500 401 OFFCURVE",
"424 503 OFFCURVE",
"270 503 CURVE SMOOTH",
"118 503 OFFCURVE",
"40 399 OFFCURVE",
"40 246 CURVE",
"40 94 OFFCURVE",
"118 -10 OFFCURVE",
"270 -10 CURVE",
"422 -10 OFFCURVE",
"500 94 OFFCURVE",
"500 246 CURVE"
);
},
{
closed = 1;
nodes = (
"406 143 OFFCURVE",
"373 47 OFFCURVE",
"270 47 CURVE",
"167 47 OFFCURVE",
"134 143 OFFCURVE",
"134 246 CURVE",
"134 349 OFFCURVE",
"167 446 OFFCURVE",
"270 446 CURVE SMOOTH",
"373 446 OFFCURVE",
"406 349 OFFCURVE",
"406 246 CURVE"
);
}
);
width = 540;
},
{
anchors = (
{
name = top;
position = "{266, 494}";
}
);
layerId = "16643525-C5DD-48EC-8E99-463BF28F5E85";
name = Bold;
paths = (
{
closed = 1;
nodes = (
"420 598 LINE",
"66 -70 LINE",
"123 -99 LINE",
"479 569 LINE"
);
},
{
closed = 1;
nodes = (
"513 411 OFFCURVE",
"425 503 OFFCURVE",
"266 503 CURVE SMOOTH",
"107 503 OFFCURVE",
"19 411 OFFCURVE",
"19 244 CURVE",
"19 78 OFFCURVE",
"107 -15 OFFCURVE",
"266 -15 CURVE",
"425 -15 OFFCURVE",
"513 78 OFFCURVE",
"513 244 CURVE"
);
},
{
closed = 1;
nodes = (
"354 121 OFFCURVE",
"328 70 OFFCURVE",
"266 70 CURVE",
"204 70 OFFCURVE",
"178 121 OFFCURVE",
"178 244 CURVE",
"178 367 OFFCURVE",
"204 418 OFFCURVE",
"266 418 CURVE SMOOTH",
"328 418 OFFCURVE",
"354 367 OFFCURVE",
"354 244 CURVE"
);
}
);
width = 532;
}
);
leftKerningGroup = o;
rightKerningGroup = o;
unicode = 00F8;
},
{
glyphname = p;
lastChange = "2014-11-10 20:53:51 +0000";
layers = (
{
layerId = UUID0;
name = Regular;
paths = (
{
closed = 1;
nodes = (
"260 503 OFFCURVE",
"194 461 OFFCURVE",
"173 412 CURVE",
"167 476 LINE",
"148 494 LINE",
"112 494 LINE SMOOTH",
"92 494 OFFCURVE",
"20 498 OFFCURVE",
"20 498 CURVE",
"15 445 LINE",
"91 429 LINE",
"91 429 OFFCURVE",
"101 373 OFFCURVE",
"101 353 CURVE SMOOTH",
"101 -96 LINE SMOOTH",
"101 -119 OFFCURVE",
"91 -167 OFFCURVE",
"91 -167 CURVE",
"25 -183 LINE",
"30 -233 LINE",
"30 -233 OFFCURVE",
"102 -228 OFFCURVE",
"132 -228 CURVE SMOOTH",
"212 -228 OFFCURVE",
"280 -233 OFFCURVE",
"280 -233 CURVE",
"287 -174 LINE",
"189 -167 LINE",
"189 -167 OFFCURVE",
"182 -111 OFFCURVE",
"182 -61 CURVE SMOOTH",
"182 15 LINE",
"218 -1 OFFCURVE",
"255 -10 OFFCURVE",
"289 -10 CURVE SMOOTH",
"422 -10 OFFCURVE",
"519 102 OFFCURVE",
"519 256 CURVE SMOOTH",
"519 413 OFFCURVE",
"444 503 OFFCURVE",
"314 503 CURVE SMOOTH"
);
},
{
closed = 1;
nodes = (
"387 442 OFFCURVE",
"429 378 OFFCURVE",
"429 254 CURVE SMOOTH",
"429 122 OFFCURVE",
"377 50 OFFCURVE",
"283 50 CURVE SMOOTH",
"252 50 OFFCURVE",
"217 62 OFFCURVE",
"182 86 CURVE",
"182 284 LINE SMOOTH",
"182 379 OFFCURVE",
"231 442 OFFCURVE",
"306 442 CURVE SMOOTH"
);
}
);
width = 559;
},
{
layerId = "16643525-C5DD-48EC-8E99-463BF28F5E85";
name = Bold;
paths = (
{
closed = 1;
nodes = (
"303 503 OFFCURVE",
"254 473 OFFCURVE",
"212 404 CURVE",
"202 477 LINE",
"181 496 LINE",
"133 494 LINE SMOOTH",
"84 494 OFFCURVE",
"16 503 OFFCURVE",
"16 503 CURVE",
"7 429 LINE",
"82 412 LINE",
"82 412 OFFCURVE",
"92 345 OFFCURVE",
"92 325 CURVE SMOOTH",
"92 -66 LINE SMOOTH",
"92 -86 OFFCURVE",
"82 -157 OFFCURVE",
"82 -157 CURVE",
"32 -169 LINE",
"37 -234 LINE",
"37 -234 OFFCURVE",
"90 -229 OFFCURVE",
"137 -229 CURVE SMOOTH",
"250 -229 OFFCURVE",
"316 -234 OFFCURVE",
"316 -234 CURVE",
"321 -163 LINE",
"242 -157 LINE",
"242 -157 OFFCURVE",
"232 -86 OFFCURVE",
"232 -36 CURVE SMOOTH",
"232 -5 LINE",
"260 -8 OFFCURVE",
"288 -10 OFFCURVE",
"313 -10 CURVE SMOOTH",
"473 -10 OFFCURVE",
"564 86 OFFCURVE",
"564 254 CURVE SMOOTH",
"564 413 OFFCURVE",
"496 503 OFFCURVE",
"374 503 CURVE SMOOTH"
);
},
{
closed = 1;
nodes = (
"378 390 OFFCURVE",
"405 343 OFFCURVE",
"405 241 CURVE SMOOTH",
"405 131 OFFCURVE",
"374 85 OFFCURVE",
"301 85 CURVE SMOOTH",
"282 85 OFFCURVE",
"259 90 OFFCURVE",
"232 99 CURVE",
"232 260 LINE SMOOTH",
"237 345 OFFCURVE",
"267 390 OFFCURVE",
"320 390 CURVE SMOOTH"
);
}
);
width = 589;
}
);
leftKerningGroup = p;
rightKerningGroup = o;
unicode = 0070;
},
{
glyphname = q;
lastChange = "2014-11-10 20:53:51 +0000";
layers = (
{
layerId = UUID0;
name = Regular;
paths = (
{
closed = 1;
nodes = (
"124 503 OFFCURVE",
"40 400 OFFCURVE",
"40 247 CURVE SMOOTH",
"40 87 OFFCURVE",
"116 -10 OFFCURVE",
"241 -10 CURVE SMOOTH",
"294 -10 OFFCURVE",
"366 35 OFFCURVE",
"386 81 CURVE",
"375 207 LINE",
"375 111 OFFCURVE",
"328 54 OFFCURVE",
"248 54 CURVE SMOOTH",
"176 54 OFFCURVE",
"132 127 OFFCURVE",
"132 246 CURVE SMOOTH",
"132 365 OFFCURVE",
"182 442 OFFCURVE",
"260 442 CURVE SMOOTH",
"324 442 OFFCURVE",
"378 433 OFFCURVE",
"443 410 CURVE",
"464 467 LINE",
"357 496 OFFCURVE",
"317 503 OFFCURVE",
"250 503 CURVE SMOOTH"
);
},
{
closed = 1;
nodes = (
"530 -174 LINE",
"463 -167 LINE",
"463 -167 OFFCURVE",
"456 -111 OFFCURVE",
"456 -61 CURVE SMOOTH",
"456 322 LINE SMOOTH",
"456 372 OFFCURVE",
"464 467 OFFCURVE",
"464 467 CURVE",
"368 436 LINE",
"368 436 OFFCURVE",
"375 372 OFFCURVE",
"375 352 CURVE SMOOTH",
"375 -91 LINE SMOOTH",
"375 -111 OFFCURVE",
"365 -167 OFFCURVE",
"365 -167 CURVE",
"268 -183 LINE",
"273 -233 LINE",
"273 -233 OFFCURVE",
"345 -228 OFFCURVE",
"375 -228 CURVE SMOOTH",
"455 -228 OFFCURVE",
"523 -233 OFFCURVE",
"523 -233 CURVE"
);
}
);
width = 543;
},
{
layerId = "16643525-C5DD-48EC-8E99-463BF28F5E85";
name = Bold;
paths = (
{
closed = 1;
nodes = (
"116 502 OFFCURVE",
"25 406 OFFCURVE",
"25 238 CURVE SMOOTH",
"25 79 OFFCURVE",
"93 -11 OFFCURVE",
"215 -11 CURVE SMOOTH",
"296 -11 OFFCURVE",
"347 27 OFFCURVE",
"398 126 CURVE",
"357 232 LINE",
"352 146 OFFCURVE",
"322 102 OFFCURVE",
"269 102 CURVE SMOOTH",
"211 102 OFFCURVE",
"184 149 OFFCURVE",
"184 251 CURVE SMOOTH",
"184 361 OFFCURVE",
"215 407 OFFCURVE",
"288 407 CURVE SMOOTH",
"320 407 OFFCURVE",
"364 394 OFFCURVE",
"432 365 CURVE",
"507 466 LINE",
"430 489 OFFCURVE",
"342 502 OFFCURVE",
"276 502 CURVE SMOOTH"
);
},
{
closed = 1;
nodes = (
"556 -164 LINE",
"507 -158 LINE",
"507 -158 OFFCURVE",
"497 -87 OFFCURVE",
"497 -37 CURVE SMOOTH",
"497 329 LINE SMOOTH",
"497 349 OFFCURVE",
"507 466 OFFCURVE",
"507 466 CURVE",
"352 422 LINE",
"352 422 OFFCURVE",
"357 349 OFFCURVE",
"357 299 CURVE SMOOTH",
"357 -67 LINE SMOOTH",
"357 -87 OFFCURVE",
"347 -158 OFFCURVE",
"347 -158 CURVE",
"267 -170 LINE",
"272 -235 LINE",
"272 -235 OFFCURVE",
"325 -230 OFFCURVE",
"372 -230 CURVE SMOOTH",
"485 -230 OFFCURVE",
"551 -235 OFFCURVE",
"551 -235 CURVE"
);
}
);
width = 571;
}
);
leftKerningGroup = o;
unicode = 0071;
},
{
glyphname = r;
lastChange = "2014-11-10 20:53:51 +0000";
layers = (
{
anchors = (
{
name = bottom;
position = "{211, 0}";
},
{
name = top;
position = "{231, 494}";
}
);
layerId = UUID0;
name = Regular;
paths = (
{
closed = 1;
nodes = (
"188 476 LINE",
"169 494 LINE",
"133 494 LINE SMOOTH",
"113 494 OFFCURVE",
"41 498 OFFCURVE",
"41 498 CURVE",
"36 445 LINE",
"112 429 LINE",
"112 429 OFFCURVE",
"122 373 OFFCURVE",
"122 353 CURVE SMOOTH",
"122 137 LINE SMOOTH",
"122 117 OFFCURVE",
"112 61 OFFCURVE",
"112 61 CURVE",
"36 45 LINE",
"41 -5 LINE",
"41 -5 OFFCURVE",
"132 0 OFFCURVE",
"152 0 CURVE SMOOTH",
"232 0 OFFCURVE",
"301 -5 OFFCURVE",
"301 -5 CURVE",
"308 54 LINE",
"210 61 LINE",
"210 61 OFFCURVE",
"203 117 OFFCURVE",
"203 167 CURVE SMOOTH",
"203 284 LINE",
"207 378 OFFCURVE",
"245 433 OFFCURVE",
"337 434 CURVE SMOOTH",
"339 434 OFFCURVE",
"340 434 OFFCURVE",
"341 434 CURVE",
"348 413 OFFCURVE",
"355 390 OFFCURVE",
"355 384 CURVE SMOOTH",
"355 331 LINE",
"413 328 LINE",
"423 493 LINE",
"423 493 OFFCURVE",
"392 503 OFFCURVE",
"355 503 CURVE SMOOTH",
"283 503 OFFCURVE",
"233 474 OFFCURVE",
"194 410 CURVE"
);
}
);
width = 422;
},
{
anchors = (
{
name = bottom;
position = "{168, 0}";
},
{
name = top;
position = "{239, 494}";
}
);
layerId = "16643525-C5DD-48EC-8E99-463BF28F5E85";
name = Bold;
paths = (
{
closed = 1;
nodes = (
"212 477 LINE",
"191 496 LINE",
"143 494 LINE SMOOTH",
"101 494 OFFCURVE",
"26 504 OFFCURVE",
"26 504 CURVE",
"17 429 LINE",
"92 412 LINE",
"92 412 OFFCURVE",
"102 345 OFFCURVE",
"102 325 CURVE SMOOTH",
"102 163 LINE SMOOTH",
"102 143 OFFCURVE",
"93 77 OFFCURVE",
"93 77 CURVE",
"25 65 LINE",
"30 -5 LINE",
"30 -5 OFFCURVE",
"93 0 OFFCURVE",
"140 0 CURVE SMOOTH",
"253 0 OFFCURVE",
"329 -5 OFFCURVE",
"329 -5 CURVE",
"334 71 LINE",
"251 77 LINE",
"251 77 OFFCURVE",
"242 143 OFFCURVE",
"242 193 CURVE SMOOTH",
"242 265 LINE",
"242 355 OFFCURVE",
"291 403 OFFCURVE",
"341 403 CURVE SMOOTH",
"343 403 OFFCURVE",
"345 403 OFFCURVE",
"347 402 CURVE",
"349 390 OFFCURVE",
"355 358 OFFCURVE",
"355 350 CURVE SMOOTH",
"355 295 LINE",
"429 292 LINE",
"444 493 LINE",
"444 493 OFFCURVE",
"398 503 OFFCURVE",
"362 503 CURVE SMOOTH",
"302 503 OFFCURVE",
"256 466 OFFCURVE",
"221 411 CURVE"
);
}
);
width = 458;
}
);
leftKerningGroup = n;
rightKerningGroup = r;
unicode = 0072;
},
{
glyphname = s;
lastChange = "2014-11-10 20:53:51 +0000";
layers = (
{
anchors = (
{
name = bottom;
position = "{208, 0}";
},
{
name = top;
position = "{211, 494}";
}
);
layerId = UUID0;
name = Regular;
paths = (
{
closed = 1;
nodes = (
"55 162 LINE",
"54 29 LINE",
"54 29 OFFCURVE",
"117 -10 OFFCURVE",
"211 -10 CURVE SMOOTH",
"314 -10 OFFCURVE",
"380 31 OFFCURVE",
"380 136 CURVE SMOOTH",
"380 294 OFFCURVE",
"131 284 OFFCURVE",
"131 386 CURVE SMOOTH",
"131 427 OFFCURVE",
"162 451 OFFCURVE",
"209 451 CURVE SMOOTH",
"236 451 OFFCURVE",
"253 448 OFFCURVE",
"273 439 CURVE",
"282 416 OFFCURVE",
"292 392 OFFCURVE",
"292 382 CURVE SMOOTH",
"292 346 LINE",
"350 343 LINE",
"352 486 LINE",
"305 496 OFFCURVE",
"255 503 OFFCURVE",
"208 503 CURVE SMOOTH",
"119 503 OFFCURVE",
"51 454 OFFCURVE",
"51 370 CURVE SMOOTH",
"51 208 OFFCURVE",
"298 222 OFFCURVE",
"298 117 CURVE SMOOTH",
"298 64 OFFCURVE",
"263 41 OFFCURVE",
"212 41 CURVE SMOOTH",
"181 41 OFFCURVE",
"155 47 OFFCURVE",
"133 65 CURVE",
"122 88 OFFCURVE",
"113 114 OFFCURVE",
"113 124 CURVE SMOOTH",
"113 134 OFFCURVE",
"113 165 OFFCURVE",
"113 165 CURVE"
);
}
);
width = 413;
},
{
anchors = (
{
name = bottom;
position = "{213, 0}";
},
{
name = top;
position = "{215, 494}";
}
);
layerId = "16643525-C5DD-48EC-8E99-463BF28F5E85";
name = Bold;
paths = (
{
closed = 1;
nodes = (
"108 503 OFFCURVE",
"33 456 OFFCURVE",
"33 354 CURVE SMOOTH",
"33 163 OFFCURVE",
"274 191 OFFCURVE",
"274 112 CURVE SMOOTH",
"274 84 OFFCURVE",
"245 69 OFFCURVE",
"210 69 CURVE SMOOTH",
"182 69 OFFCURVE",
"149 80 OFFCURVE",
"122 91 CURVE",
"122 90 OFFCURVE",
"113 123 OFFCURVE",
"113 128 CURVE SMOOTH",
"113 133 OFFCURVE",
"113 173 OFFCURVE",
"113 173 CURVE",
"42 178 LINE",
"30 13 LINE",
"30 13 OFFCURVE",
"134 -10 OFFCURVE",
"207 -10 CURVE SMOOTH",
"324 -10 OFFCURVE",
"402 44 OFFCURVE",
"402 146 CURVE SMOOTH",
"402 335 OFFCURVE",
"152 311 OFFCURVE",
"152 385 CURVE SMOOTH",
"152 405 OFFCURVE",
"170 423 OFFCURVE",
"217 423 CURVE SMOOTH",
"248 423 OFFCURVE",
"269 415 OFFCURVE",
"287 407 CURVE",
"292 397 OFFCURVE",
"301 374 OFFCURVE",
"301 369 CURVE SMOOTH",
"301 326 LINE",
"368 321 LINE",
"380 479 LINE",
"339 492 OFFCURVE",
"291 503 OFFCURVE",
"220 503 CURVE SMOOTH"
);
}
);
width = 429;
}
);
leftKerningGroup = s;
rightKerningGroup = s;
unicode = 0073;
},
{
glyphname = t;
lastChange = "2014-11-10 20:53:51 +0000";
layers = (
{
anchors = (
{
name = bottom;
position = "{222, 0}";
},
{
name = center;
position = "{172, 247}";
}
);
layerId = UUID0;
name = Regular;
paths = (
{
closed = 1;
nodes = (
"314 83 LINE",
"314 83 OFFCURVE",
"271 54 OFFCURVE",
"235 54 CURVE SMOOTH",
"198 54 OFFCURVE",
"181 82 OFFCURVE",
"181 132 CURVE SMOOTH",
"181 440 LINE",
"316 440 LINE",
"321 494 LINE",
"181 494 LINE",
"181 597 LINE",
"146 601 LINE",
"146 601 OFFCURVE",
"108 521 OFFCURVE",
"100 511 CURVE",
"77 497 OFFCURVE",
"53 493 OFFCURVE",
"20 482 CURVE",
"23 440 LINE",
"100 440 LINE",
"100 156 LINE SMOOTH",
"100 46 OFFCURVE",
"129 -10 OFFCURVE",
"224 -10 CURVE SMOOTH",
"274 -10 OFFCURVE",
"310 17 OFFCURVE",
"342 42 CURVE"
);
}
);
width = 344;
},
{
anchors = (
{
name = bottom;
position = "{229, 0}";
},
{
name = center;
position = "{179, 247}";
}
);
layerId = "16643525-C5DD-48EC-8E99-463BF28F5E85";
name = Bold;
paths = (
{
closed = 1;
nodes = (
"327 100 LINE",
"327 100 OFFCURVE",
"299 80 OFFCURVE",
"273 80 CURVE SMOOTH",
"240 80 OFFCURVE",
"221 110 OFFCURVE",
"221 143 CURVE SMOOTH",
"221 419 LINE",
"331 419 LINE",
"340 494 LINE",
"221 494 LINE",
"221 607 LINE",
"166 611 LINE",
"166 611 OFFCURVE",
"124 541 OFFCURVE",
"111 524 CURVE",
"106 517 OFFCURVE",
"42 493 OFFCURVE",
"14 482 CURVE",
"17 419 LINE",
"81 419 LINE",
"81 156 LINE SMOOTH",
"81 46 OFFCURVE",
"122 -10 OFFCURVE",
"231 -10 CURVE SMOOTH",
"291 -10 OFFCURVE",
"331 17 OFFCURVE",
"364 43 CURVE"
);
}
);
width = 358;
}
);
unicode = 0074;
},
{
glyphname = thorn;
lastChange = "2014-11-10 20:53:51 +0000";
layers = (
{
layerId = UUID0;
name = Regular;
paths = (
{
closed = 1;
nodes = (
"1 707 LINE",
"77 691 LINE",
"77 691 OFFCURVE",
"87 635 OFFCURVE",
"87 615 CURVE SMOOTH",
"87 -96 LINE SMOOTH",
"87 -119 OFFCURVE",
"77 -167 OFFCURVE",
"77 -167 CURVE",
"11 -183 LINE",
"16 -233 LINE",
"16 -233 OFFCURVE",
"88 -228 OFFCURVE",
"118 -228 CURVE SMOOTH",
"198 -228 OFFCURVE",
"266 -233 OFFCURVE",
"266 -233 CURVE",
"273 -174 LINE",
"175 -167 LINE",
"175 -167 OFFCURVE",
"168 -111 OFFCURVE",
"168 -61 CURVE SMOOTH",
"168 15 LINE",
"204 -1 OFFCURVE",
"241 -10 OFFCURVE",
"275 -10 CURVE SMOOTH",
"408 -10 OFFCURVE",
"505 102 OFFCURVE",
"505 256 CURVE SMOOTH",
"505 413 OFFCURVE",
"430 503 OFFCURVE",
"300 503 CURVE SMOOTH",
"246 503 OFFCURVE",
"185 461 OFFCURVE",
"168 427 CURVE",
"168 598 LINE",
"175 738 LINE",
"156 756 LINE",
"98 756 LINE SMOOTH",
"78 756 OFFCURVE",
"6 760 OFFCURVE",
"6 760 CURVE"
);
},
{
closed = 1;
nodes = (
"373 442 OFFCURVE",
"415 378 OFFCURVE",
"415 254 CURVE SMOOTH",
"415 122 OFFCURVE",
"363 50 OFFCURVE",
"269 50 CURVE SMOOTH",
"238 50 OFFCURVE",
"203 62 OFFCURVE",
"168 86 CURVE",
"168 274 LINE SMOOTH",
"168 369 OFFCURVE",
"217 442 OFFCURVE",
"292 442 CURVE SMOOTH"
);
}
);
width = 545;
},
{
layerId = "16643525-C5DD-48EC-8E99-463BF28F5E85";
name = Bold;
paths = (
{
closed = 1;
nodes = (
"0 691 LINE",
"75 674 LINE",
"75 674 OFFCURVE",
"85 607 OFFCURVE",
"85 587 CURVE SMOOTH",
"85 -66 LINE SMOOTH",
"85 -86 OFFCURVE",
"75 -157 OFFCURVE",
"75 -157 CURVE",
"25 -169 LINE",
"30 -234 LINE",
"30 -234 OFFCURVE",
"83 -229 OFFCURVE",
"130 -229 CURVE SMOOTH",
"243 -229 OFFCURVE",
"309 -234 OFFCURVE",
"309 -234 CURVE",
"314 -163 LINE",
"235 -157 LINE",
"235 -157 OFFCURVE",
"225 -86 OFFCURVE",
"225 -36 CURVE SMOOTH",
"225 -5 LINE",
"253 -8 OFFCURVE",
"281 -10 OFFCURVE",
"306 -10 CURVE SMOOTH",
"466 -10 OFFCURVE",
"557 86 OFFCURVE",
"557 254 CURVE SMOOTH",
"557 413 OFFCURVE",
"489 503 OFFCURVE",
"367 503 CURVE SMOOTH",
"304 503 OFFCURVE",
"260 475 OFFCURVE",
"225 433 CURVE",
"225 604 LINE",
"235 739 LINE",
"214 758 LINE",
"126 756 LINE SMOOTH",
"77 756 OFFCURVE",
"9 765 OFFCURVE",
"9 765 CURVE"
);
},
{
closed = 1;
nodes = (
"371 390 OFFCURVE",
"398 343 OFFCURVE",
"398 241 CURVE SMOOTH",
"398 131 OFFCURVE",
"367 85 OFFCURVE",
"294 85 CURVE SMOOTH",
"275 85 OFFCURVE",
"252 90 OFFCURVE",
"225 99 CURVE",
"225 260 LINE SMOOTH",
"230 345 OFFCURVE",
"260 390 OFFCURVE",
"313 390 CURVE SMOOTH"
);
}
);
width = 553;
}
);
leftKerningGroup = h;
rightKerningGroup = o;
unicode = 00FE;
},
{
glyphname = u;
lastChange = "2014-11-10 20:53:51 +0000";
layers = (
{
anchors = (
{
name = bottom;
position = "{300, 0}";
},
{
name = horn;
position = "{487, 478}";
},
{
name = ogonek;
position = "{499, 10}";
},
{
name = top;
position = "{274, 494}";
}
);
layerId = UUID0;
name = Regular;
paths = (
{
closed = 1;
nodes = (
"324 445 LINE",
"395 429 LINE",
"395 429 OFFCURVE",
"405 373 OFFCURVE",
"405 353 CURVE SMOOTH",
"405 210 LINE SMOOTH",
"405 130 OFFCURVE",
"361 54 OFFCURVE",
"279 54 CURVE SMOOTH",
"205 54 OFFCURVE",
"180 109 OFFCURVE",
"180 183 CURVE SMOOTH",
"180 323 LINE SMOOTH",
"180 373 OFFCURVE",
"187 476 OFFCURVE",
"187 476 CURVE",
"168 494 LINE",
"110 494 LINE SMOOTH",
"90 494 OFFCURVE",
"28 498 OFFCURVE",
"28 498 CURVE",
"23 445 LINE",
"89 429 LINE",
"89 429 OFFCURVE",
"99 373 OFFCURVE",
"99 353 CURVE SMOOTH",
"99 217 LINE SMOOTH",
"99 82 OFFCURVE",
"123 -10 OFFCURVE",
"261 -10 CURVE SMOOTH",
"354 -10 OFFCURVE",
"397 45 OFFCURVE",
"416 78 CURVE",
"429 0 LINE",
"509 0 OFFCURVE",
"558 -5 OFFCURVE",
"558 -5 CURVE",
"565 54 LINE",
"496 61 LINE",
"496 61 OFFCURVE",
"486 117 OFFCURVE",
"486 167 CURVE SMOOTH",
"486 323 LINE SMOOTH",
"486 373 OFFCURVE",
"493 476 OFFCURVE",
"493 476 CURVE",
"474 494 LINE",
"416 494 LINE SMOOTH",
"396 494 OFFCURVE",
"329 498 OFFCURVE",
"329 498 CURVE"
);
}
);
width = 592;
},
{
anchors = (
{
name = bottom;
position = "{293, 0}";
},
{
name = horn;
position = "{507, 467}";
},
{
name = ogonek;
position = "{560, 10}";
},
{
name = top;
position = "{301, 494}";
}
);
layerId = "16643525-C5DD-48EC-8E99-463BF28F5E85";
name = Bold;
paths = (
{
closed = 1;
nodes = (
"308 429 LINE",
"383 412 LINE",
"383 412 OFFCURVE",
"393 345 OFFCURVE",
"393 325 CURVE SMOOTH",
"393 234 LINE SMOOTH",
"393 144 OFFCURVE",
"345 96 OFFCURVE",
"295 96 CURVE SMOOTH",
"243 96 OFFCURVE",
"222 136 OFFCURVE",
"222 188 CURVE SMOOTH",
"222 295 LINE SMOOTH",
"222 345 OFFCURVE",
"232 477 OFFCURVE",
"232 477 CURVE",
"211 496 LINE",
"138 494 LINE SMOOTH",
"96 494 OFFCURVE",
"26 503 OFFCURVE",
"26 503 CURVE",
"17 429 LINE",
"72 415 LINE",
"72 415 OFFCURVE",
"82 345 OFFCURVE",
"82 325 CURVE SMOOTH",
"82 174 LINE SMOOTH",
"82 58 OFFCURVE",
"142 -4 OFFCURVE",
"258 -4 CURVE SMOOTH",
"323 -4 OFFCURVE",
"367 28 OFFCURVE",
"403 78 CURVE",
"412 0 LINE",
"547 0 OFFCURVE",
"596 -5 OFFCURVE",
"596 -5 CURVE",
"602 71 LINE",
"542 77 LINE",
"542 77 OFFCURVE",
"533 143 OFFCURVE",
"533 193 CURVE SMOOTH",
"533 295 LINE SMOOTH",
"533 345 OFFCURVE",
"543 477 OFFCURVE",
"543 477 CURVE",
"522 496 LINE",
"434 494 LINE SMOOTH",
"392 494 OFFCURVE",
"317 503 OFFCURVE",
"317 503 CURVE"
);
}
);
width = 622;
}
);
rightKerningGroup = u;
unicode = 0075;
},
{
glyphname = v;
lastChange = "2014-11-10 20:53:51 +0000";
layers = (
{
layerId = UUID0;
name = Regular;
paths = (
{
closed = 1;
nodes = (
"521 441 LINE",
"518 499 LINE",
"518 499 OFFCURVE",
"475 494 OFFCURVE",
"395 494 CURVE SMOOTH",
"375 494 OFFCURVE",
"311 497 OFFCURVE",
"311 497 CURVE",
"306 445 LINE",
"381 434 LINE",
"374 402 OFFCURVE",
"366 364 OFFCURVE",
"361 351 CURVE SMOOTH",
"278 103 LINE",
"192 349 LINE SMOOTH",
"187 362 OFFCURVE",
"177 400 OFFCURVE",
"168 434 CURVE",
"228 441 LINE",
"225 499 LINE",
"225 499 OFFCURVE",
"175 494 OFFCURVE",
"95 494 CURVE SMOOTH",
"75 494 OFFCURVE",
"6 497 OFFCURVE",
"6 497 CURVE",
"1 445 LINE",
"62 434 LINE",
"80 401 OFFCURVE",
"98 358 OFFCURVE",
"103 344 CURVE SMOOTH",
"111 322 OFFCURVE",
"234 0 OFFCURVE",
"234 0 CURVE",
"301 0 LINE",
"416 319 LINE SMOOTH",
"422 334 OFFCURVE",
"447 393 OFFCURVE",
"466 435 CURVE"
);
}
);
width = 530;
},
{
layerId = "16643525-C5DD-48EC-8E99-463BF28F5E85";
name = Bold;
paths = (
{
closed = 1;
nodes = (
"551 428 LINE",
"546 499 LINE",
"546 499 OFFCURVE",
"498 494 OFFCURVE",
"458 494 CURVE SMOOTH",
"388 494 OFFCURVE",
"329 499 OFFCURVE",
"329 499 CURVE",
"324 428 LINE",
"369 424 LINE",
"363 398 OFFCURVE",
"355 366 OFFCURVE",
"351 354 CURVE SMOOTH",
"283 148 LINE",
"227 354 LINE SMOOTH",
"224 366 OFFCURVE",
"219 393 OFFCURVE",
"215 424 CURVE",
"260 428 LINE",
"255 499 LINE",
"255 499 OFFCURVE",
"191 494 OFFCURVE",
"151 494 CURVE SMOOTH",
"81 494 OFFCURVE",
"2 503 OFFCURVE",
"2 503 CURVE",
"-3 434 LINE",
"62 423 LINE",
"76 392 OFFCURVE",
"88 357 OFFCURVE",
"92 344 CURVE SMOOTH",
"100 322 OFFCURVE",
"212 0 OFFCURVE",
"212 0 CURVE",
"339 0 LINE",
"459 319 LINE SMOOTH",
"464 333 OFFCURVE",
"487 382 OFFCURVE",
"506 422 CURVE"
);
}
);
width = 559;
}
);
leftKerningGroup = v;
rightKerningGroup = v;
unicode = 0076;
},
{
glyphname = w;
lastChange = "2014-11-10 20:53:51 +0000";
layers = (
{
anchors = (
{
name = top;
position = "{400, 494}";
}
);
layerId = UUID0;
name = Regular;
paths = (
{
closed = 1;
nodes = (
"796 441 LINE",
"793 499 LINE",
"793 499 OFFCURVE",
"760 494 OFFCURVE",
"680 494 CURVE SMOOTH",
"660 494 OFFCURVE",
"586 497 OFFCURVE",
"586 497 CURVE",
"581 445 LINE",
"666 434 LINE",
"659 402 OFFCURVE",
"651 364 OFFCURVE",
"646 351 CURVE",
"563 103 LINE",
"429 494 LINE",
"390 494 LINE",
"263 103 LINE",
"177 349 LINE SMOOTH",
"172 362 OFFCURVE",
"162 400 OFFCURVE",
"153 434 CURVE",
"233 441 LINE",
"230 499 LINE",
"230 499 OFFCURVE",
"160 494 OFFCURVE",
"80 494 CURVE SMOOTH",
"60 494 OFFCURVE",
"11 497 OFFCURVE",
"11 497 CURVE",
"6 445 LINE",
"47 434 LINE",
"65 401 OFFCURVE",
"83 358 OFFCURVE",
"88 344 CURVE SMOOTH",
"96 322 OFFCURVE",
"219 0 OFFCURVE",
"219 0 CURVE",
"286 0 LINE",
"400 335 LINE",
"518 0 LINE",
"586 0 LINE",
"701 319 LINE SMOOTH",
"707 334 OFFCURVE",
"732 393 OFFCURVE",
"751 435 CURVE"
);
}
);
width = 800;
},
{
anchors = (
{
name = top;
position = "{417, 494}";
}
);
layerId = "16643525-C5DD-48EC-8E99-463BF28F5E85";
name = Bold;
paths = (
{
closed = 1;
nodes = (
"828 428 LINE",
"823 499 LINE",
"823 499 OFFCURVE",
"777 494 OFFCURVE",
"737 494 CURVE SMOOTH",
"667 494 OFFCURVE",
"595 499 OFFCURVE",
"595 499 CURVE",
"590 428 LINE",
"648 424 LINE",
"642 398 OFFCURVE",
"634 367 OFFCURVE",
"630 355 CURVE",
"565 148 LINE",
"472 494 LINE",
"384 494 LINE",
"278 148 LINE",
"222 353 LINE SMOOTH",
"219 365 OFFCURVE",
"214 393 OFFCURVE",
"208 424 CURVE",
"274 428 LINE",
"269 499 LINE",
"269 499 OFFCURVE",
"186 494 OFFCURVE",
"146 494 CURVE SMOOTH",
"76 494 OFFCURVE",
"7 503 OFFCURVE",
"7 503 CURVE",
"2 434 LINE",
"57 423 LINE",
"71 392 OFFCURVE",
"83 357 OFFCURVE",
"87 344 CURVE SMOOTH",
"95 322 OFFCURVE",
"207 0 OFFCURVE",
"207 0 CURVE",
"336 0 LINE",
"417 241 LINE",
"491 0 LINE",
"621 0 LINE",
"738 319 LINE SMOOTH",
"743 333 OFFCURVE",
"766 382 OFFCURVE",
"785 422 CURVE"
);
}
);
width = 833;
}
);
leftKerningGroup = v;
rightKerningGroup = v;
unicode = 0077;
},
{
glyphname = x;
lastChange = "2014-11-10 20:53:51 +0000";
layers = (
{
layerId = UUID0;
name = Regular;
paths = (
{
closed = 1;
nodes = (
"211 387 LINE",
"394 149 LINE",
"482 59 LINE",
"543 54 LINE",
"536 -5 LINE",
"536 -5 OFFCURVE",
"483 0 OFFCURVE",
"403 0 CURVE SMOOTH",
"383 0 OFFCURVE",
"306 -5 OFFCURVE",
"306 -5 CURVE",
"301 45 LINE",
"363 60 LINE",
"331 115 LINE",
"147 353 LINE",
"74 435 LINE",
"23 445 LINE",
"28 497 LINE",
"28 497 OFFCURVE",
"98 494 OFFCURVE",
"118 494 CURVE SMOOTH",
"198 494 OFFCURVE",
"239 499 OFFCURVE",
"239 499 CURVE",
"242 441 LINE",
"182 434 LINE"
);
},
{
closed = 1;
nodes = (
"266 282 LINE",
"334 387 LINE",
"359 433 LINE",
"295 445 LINE",
"300 497 LINE",
"300 497 OFFCURVE",
"357 494 OFFCURVE",
"377 494 CURVE SMOOTH",
"457 494 OFFCURVE",
"501 499 OFFCURVE",
"501 499 CURVE",
"504 441 LINE",
"443 433 LINE",
"375 353 LINE",
"300 238 LINE",
"282 231 LINE",
"201 115 LINE",
"170 61 LINE",
"233 54 LINE",
"226 -5 LINE",
"226 -5 OFFCURVE",
"196 0 OFFCURVE",
"116 0 CURVE SMOOTH",
"96 0 OFFCURVE",
"19 -5 OFFCURVE",
"19 -5 CURVE",
"14 45 LINE",
"76 61 LINE",
"157 149 LINE",
"246 276 LINE"
);
}
);
width = 543;
},
{
layerId = "16643525-C5DD-48EC-8E99-463BF28F5E85";
name = Bold;
paths = (
{
closed = 1;
nodes = (
"260 384 LINE",
"298 322 LINE",
"334 381 LINE",
"362 425 LINE",
"328 429 LINE",
"333 499 LINE",
"333 499 OFFCURVE",
"391 494 OFFCURVE",
"459 494 CURVE SMOOTH",
"498 494 OFFCURVE",
"546 499 OFFCURVE",
"546 499 CURVE",
"551 429 LINE",
"515 423 LINE",
"419 311 LINE",
"377 254 LINE",
"438 171 LINE",
"526 75 LINE",
"567 64 LINE",
"564 -9 LINE",
"564 -9 OFFCURVE",
"476 0 OFFCURVE",
"408 0 CURVE SMOOTH",
"369 0 OFFCURVE",
"307 -5 OFFCURVE",
"307 -5 CURVE",
"302 69 LINE",
"342 73 LINE",
"329 95 LINE",
"272 181 LINE",
"213 90 LINE",
"205 73 LINE",
"237 70 LINE",
"232 -5 LINE",
"232 -5 OFFCURVE",
"175 0 OFFCURVE",
"106 0 CURVE SMOOTH",
"67 0 OFFCURVE",
"19 -5 OFFCURVE",
"19 -5 CURVE",
"14 69 LINE",
"52 76 LINE",
"144 184 LINE",
"194 252 LINE",
"144 323 LINE",
"50 427 LINE",
"17 435 LINE",
"22 503 LINE",
"22 503 OFFCURVE",
"109 494 OFFCURVE",
"177 494 CURVE SMOOTH",
"216 494 OFFCURVE",
"278 499 OFFCURVE",
"278 499 CURVE",
"283 429 LINE",
"236 425 LINE"
);
}
);
width = 575;
}
);
rightKerningGroup = x;
unicode = 0078;
},
{
glyphname = y;
lastChange = "2014-11-10 20:53:51 +0000";
layers = (
{
anchors = (
{
name = bottom;
position = "{420, 0}";
},
{
name = top;
position = "{270, 494}";
}
);
layerId = UUID0;
name = Regular;
paths = (
{
closed = 1;
nodes = (
"279 104 LINE",
"180 349 LINE SMOOTH",
"172 368 OFFCURVE",
"162 404 OFFCURVE",
"155 434 CURVE",
"227 441 LINE",
"224 499 LINE",
"224 499 OFFCURVE",
"167 494 OFFCURVE",
"87 494 CURVE SMOOTH",
"67 494 OFFCURVE",
"5 497 OFFCURVE",
"5 497 CURVE",
"0 445 LINE",
"49 433 LINE",
"68 400 OFFCURVE",
"90 358 OFFCURVE",
"100 333 CURVE SMOOTH",
"243 0 LINE",
"211 -89 LINE SMOOTH",
"205 -104 OFFCURVE",
"190 -133 OFFCURVE",
"173 -157 CURVE",
"152 -161 OFFCURVE",
"119 -167 OFFCURVE",
"106 -167 CURVE",
"66 -166 LINE",
"58 -224 LINE",
"219 -235 LINE",
"425 319 LINE SMOOTH",
"433 339 OFFCURVE",
"457 392 OFFCURVE",
"477 433 CURVE",
"530 441 LINE",
"527 499 LINE",
"527 499 OFFCURVE",
"488 494 OFFCURVE",
"412 494 CURVE SMOOTH",
"392 494 OFFCURVE",
"325 497 OFFCURVE",
"325 497 CURVE",
"320 445 LINE",
"393 433 LINE",
"386 401 OFFCURVE",
"373 355 OFFCURVE",
"366 336 CURVE SMOOTH"
);
}
);
width = 539;
},
{
anchors = (
{
name = bottom;
position = "{460, 0}";
},
{
name = top;
position = "{286, 494}";
}
);
layerId = "16643525-C5DD-48EC-8E99-463BF28F5E85";
name = Bold;
paths = (
{
closed = 1;
nodes = (
"301 158 LINE",
"238 356 LINE SMOOTH",
"233 370 OFFCURVE",
"226 402 OFFCURVE",
"224 423 CURVE",
"266 428 LINE",
"262 499 LINE",
"262 499 OFFCURVE",
"193 494 OFFCURVE",
"149 494 CURVE SMOOTH",
"84 494 OFFCURVE",
"10 503 OFFCURVE",
"10 503 CURVE",
"4 434 LINE",
"67 423 LINE",
"79 401 OFFCURVE",
"100 348 OFFCURVE",
"109 325 CURVE SMOOTH",
"233 0 LINE",
"202 -83 LINE SMOOTH",
"195 -103 OFFCURVE",
"184 -124 OFFCURVE",
"171 -139 CURVE",
"158 -143 OFFCURVE",
"141 -145 OFFCURVE",
"127 -145 CURVE",
"72 -143 LINE",
"61 -222 LINE",
"259 -235 LINE",
"477 328 LINE SMOOTH",
"484 348 OFFCURVE",
"508 404 OFFCURVE",
"519 423 CURVE",
"568 428 LINE",
"564 499 LINE",
"564 499 OFFCURVE",
"499 494 OFFCURVE",
"455 494 CURVE SMOOTH",
"390 494 OFFCURVE",
"336 499 OFFCURVE",
"336 499 CURVE",
"330 428 LINE",
"374 423 LINE",
"373 404 OFFCURVE",
"366 370 OFFCURVE",
"362 358 CURVE SMOOTH"
);
}
);
width = 571;
}
);
leftKerningGroup = v;
rightKerningGroup = v;
unicode = 0079;
},
{
glyphname = z;
lastChange = "2014-11-10 20:53:51 +0000";
layers = (
{
anchors = (
{
name = top;
position = "{230, 494}";
}
);
layerId = UUID0;
name = Regular;
paths = (
{
closed = 1;
nodes = (
"54 478 LINE",
"49 339 LINE",
"107 335 LINE",
"111 374 LINE SMOOTH",
"112 385 OFFCURVE",
"129 425 OFFCURVE",
"135 436 CURVE",
"157 439 OFFCURVE",
"182 442 OFFCURVE",
"188 442 CURVE SMOOTH",
"310 442 LINE",
"294 411 OFFCURVE",
"269 366 OFFCURVE",
"260 352 CURVE SMOOTH",
"136 168 LINE SMOOTH",
"121 146 OFFCURVE",
"41 58 OFFCURVE",
"41 58 CURVE",
"48 0 LINE",
"291 0 LINE SMOOTH",
"311 0 OFFCURVE",
"401 -3 OFFCURVE",
"401 -3 CURVE",
"419 16 LINE",
"428 143 LINE",
"370 149 LINE",
"367 130 OFFCURVE",
"365 112 OFFCURVE",
"364 109 CURVE SMOOTH",
"357 88 OFFCURVE",
"349 72 OFFCURVE",
"342 58 CURVE",
"318 55 OFFCURVE",
"288 52 OFFCURVE",
"283 52 CURVE SMOOTH",
"158 52 LINE",
"175 84 OFFCURVE",
"199 128 OFFCURVE",
"208 142 CURVE SMOOTH",
"330 327 LINE",
"416 436 LINE",
"409 494 LINE",
"167 494 LINE SMOOTH",
"147 494 OFFCURVE",
"72 497 OFFCURVE",
"72 497 CURVE"
);
}
);
width = 460;
},
{
anchors = (
{
name = top;
position = "{220, 494}";
}
);
layerId = "16643525-C5DD-48EC-8E99-463BF28F5E85";
name = Bold;
paths = (
{
closed = 1;
nodes = (
"28 477 LINE",
"23 307 LINE",
"99 304 LINE",
"103 361 LINE SMOOTH",
"103 368 OFFCURVE",
"112 394 OFFCURVE",
"116 403 CURVE",
"138 406 OFFCURVE",
"175 414 OFFCURVE",
"181 414 CURVE SMOOTH",
"260 414 LINE",
"248 388 OFFCURVE",
"234 362 OFFCURVE",
"227 352 CURVE SMOOTH",
"105 168 LINE SMOOTH",
"91 146 OFFCURVE",
"21 70 OFFCURVE",
"21 70 CURVE",
"35 0 LINE",
"326 0 LINE SMOOTH",
"346 0 OFFCURVE",
"420 -3 OFFCURVE",
"420 -3 CURVE",
"440 17 LINE",
"451 171 LINE",
"382 177 LINE",
"382 176 OFFCURVE",
"376 137 OFFCURVE",
"375 133 CURVE SMOOTH",
"375 127 OFFCURVE",
"362 98 OFFCURVE",
"359 91 CURVE",
"336 88 OFFCURVE",
"293 80 OFFCURVE",
"287 80 CURVE SMOOTH",
"206 80 LINE",
"218 106 OFFCURVE",
"231 132 OFFCURVE",
"238 142 CURVE SMOOTH",
"358 327 LINE",
"435 425 LINE",
"428 494 LINE",
"141 494 LINE SMOOTH",
"121 494 OFFCURVE",
"49 497 OFFCURVE",
"49 497 CURVE"
);
}
);
width = 460;
}
);
leftKerningGroup = z;
rightKerningGroup = z;
unicode = 007A;
},
{
glyphname = zero;
lastChange = "2014-11-10 20:53:51 +0000";
layers = (
{
layerId = UUID0;
name = Regular;
paths = (
{
closed = 1;
nodes = (
"50 506 OFFCURVE",
"117 662 OFFCURVE",
"290 662 CURVE SMOOTH",
"463 662 OFFCURVE",
"530 506 OFFCURVE",
"530 326 CURVE",
"530 146 OFFCURVE",
"463 -10 OFFCURVE",
"290 -10 CURVE SMOOTH",
"117 -10 OFFCURVE",
"50 146 OFFCURVE",
"50 326 CURVE"
);
},
{
closed = 1;
nodes = (
"431 454 OFFCURVE",
"408 602 OFFCURVE",
"290 602 CURVE SMOOTH",
"172 602 OFFCURVE",
"149 454 OFFCURVE",
"149 326 CURVE",
"149 198 OFFCURVE",
"172 50 OFFCURVE",
"290 50 CURVE SMOOTH",
"408 50 OFFCURVE",
"431 198 OFFCURVE",
"431 326 CURVE SMOOTH"
);
}
);
width = 580;
},
{
layerId = "16643525-C5DD-48EC-8E99-463BF28F5E85";
name = Bold;
paths = (
{
closed = 1;
nodes = (
"26 506 OFFCURVE",
"99 662 OFFCURVE",
"286 662 CURVE SMOOTH",
"473 662 OFFCURVE",
"546 506 OFFCURVE",
"546 326 CURVE",
"546 146 OFFCURVE",
"473 -10 OFFCURVE",
"286 -10 CURVE SMOOTH",
"99 -10 OFFCURVE",
"26 146 OFFCURVE",
"26 326 CURVE"
);
},
{
closed = 1;
nodes = (
"382 442 OFFCURVE",
"366 577 OFFCURVE",
"286 577 CURVE SMOOTH",
"206 577 OFFCURVE",
"190 442 OFFCURVE",
"190 326 CURVE",
"190 210 OFFCURVE",
"206 75 OFFCURVE",
"286 75 CURVE SMOOTH",
"366 75 OFFCURVE",
"382 210 OFFCURVE",
"382 326 CURVE SMOOTH"
);
}
);
width = 572;
}
);
unicode = 0030;
},
{
glyphname = one;
lastChange = "2014-11-10 20:53:51 +0000";
layers = (
{
layerId = UUID0;
name = Regular;
paths = (
{
closed = 1;
nodes = (
"337 54 LINE",
"255 61 LINE",
"253 75 OFFCURVE",
"248 125 OFFCURVE",
"248 167 CURVE SMOOTH",
"248 426 LINE SMOOTH",
"248 476 OFFCURVE",
"255 660 OFFCURVE",
"255 660 CURVE",
"208 672 LINE",
"208 672 OFFCURVE",
"172 624 OFFCURVE",
"161 615 CURVE SMOOTH",
"141 599 OFFCURVE",
"24 507 OFFCURVE",
"24 507 CURVE",
"51 465 LINE",
"165 524 LINE",
"165 137 LINE SMOOTH",
"165 120 OFFCURVE",
"158 74 OFFCURVE",
"156 61 CURVE",
"57 45 LINE",
"62 -5 LINE",
"62 -5 OFFCURVE",
"177 0 OFFCURVE",
"197 0 CURVE SMOOTH",
"277 0 OFFCURVE",
"330 -5 OFFCURVE",
"330 -5 CURVE"
);
}
);
width = 389;
},
{
layerId = "16643525-C5DD-48EC-8E99-463BF28F5E85";
name = Bold;
paths = (
{
closed = 1;
nodes = (
"409 71 LINE",
"331 77 LINE",
"330 77 OFFCURVE",
"321 143 OFFCURVE",
"321 193 CURVE SMOOTH",
"321 426 LINE SMOOTH",
"321 476 OFFCURVE",
"329 660 OFFCURVE",
"329 660 CURVE",
"226 672 LINE",
"226 672 OFFCURVE",
"188 624 OFFCURVE",
"177 615 CURVE SMOOTH",
"157 599 OFFCURVE",
"36 507 OFFCURVE",
"36 507 CURVE",
"73 445 LINE",
"176 484 LINE",
"176 163 LINE SMOOTH",
"176 143 OFFCURVE",
"167 77 OFFCURVE",
"167 77 CURVE",
"78 65 LINE",
"83 -5 LINE",
"83 -5 OFFCURVE",
"166 0 OFFCURVE",
"212 0 CURVE SMOOTH",
"326 0 OFFCURVE",
"403 -5 OFFCURVE",
"403 -5 CURVE"
);
}
);
width = 426;
}
);
unicode = 0031;
},
{
glyphname = two;
lastChange = "2014-11-10 20:53:51 +0000";
layers = (
{
layerId = UUID0;
name = Regular;
paths = (
{
closed = 1;
nodes = (
"173 662 OFFCURVE",
"125 653 OFFCURVE",
"57 626 CURVE",
"70 479 LINE",
"125 482 LINE",
"123 527 LINE",
"123 537 OFFCURVE",
"128 562 OFFCURVE",
"133 578 CURVE",
"167 598 OFFCURVE",
"196 606 OFFCURVE",
"233 606 CURVE SMOOTH",
"301 606 OFFCURVE",
"348 557 OFFCURVE",
"348 486 CURVE SMOOTH",
"348 399 OFFCURVE",
"314 353 OFFCURVE",
"36 73 CURVE",
"50 0 LINE",
"326 0 LINE SMOOTH",
"350 0 OFFCURVE",
"447 -3 OFFCURVE",
"447 -3 CURVE",
"466 17 LINE",
"475 159 LINE",
"420 163 LINE",
"415 116 LINE",
"413 111 OFFCURVE",
"410 102 OFFCURVE",
"401 81 CURVE",
"336 74 OFFCURVE",
"320 73 OFFCURVE",
"317 73 CURVE SMOOTH",
"129 73 LINE",
"376 300 OFFCURVE",
"443 381 OFFCURVE",
"443 501 CURVE SMOOTH",
"443 603 OFFCURVE",
"367 662 OFFCURVE",
"243 662 CURVE SMOOTH"
);
}
);
width = 515;
},
{
layerId = "16643525-C5DD-48EC-8E99-463BF28F5E85";
name = Bold;
paths = (
{
closed = 1;
nodes = (
"174 662 OFFCURVE",
"109 651 OFFCURVE",
"42 627 CURVE",
"49 454 LINE",
"128 459 LINE",
"128 502 LINE",
"128 509 OFFCURVE",
"130 521 OFFCURVE",
"136 540 CURVE",
"165 556 OFFCURVE",
"194 564 OFFCURVE",
"223 564 CURVE SMOOTH",
"277 564 OFFCURVE",
"313 534 OFFCURVE",
"313 477 CURVE SMOOTH",
"313 387 OFFCURVE",
"251 309 OFFCURVE",
"19 99 CURVE",
"33 0 LINE",
"359 0 LINE SMOOTH",
"378 0 OFFCURVE",
"468 -3 OFFCURVE",
"468 -3 CURVE",
"498 17 LINE",
"506 210 LINE",
"428 216 LINE",
"421 179 LINE SMOOTH",
"419 171 OFFCURVE",
"406 131 OFFCURVE",
"405 128 CURVE",
"401 127 OFFCURVE",
"348 118 OFFCURVE",
"318 118 CURVE SMOOTH",
"198 118 LINE",
"418 304 OFFCURVE",
"474 388 OFFCURVE",
"474 490 CURVE SMOOTH",
"474 599 OFFCURVE",
"392 662 OFFCURVE",
"244 662 CURVE SMOOTH"
);
}
);
width = 547;
}
);
unicode = 0032;
},
{
glyphname = three;
lastChange = "2014-11-10 20:53:51 +0000";
layers = (
{
layerId = UUID0;
name = Regular;
paths = (
{
closed = 1;
nodes = (
"136 662 OFFCURVE",
"91 654 OFFCURVE",
"30 633 CURVE",
"43 488 LINE",
"98 491 LINE",
"96 536 LINE",
"96 543 OFFCURVE",
"99 558 OFFCURVE",
"106 586 CURVE",
"131 602 OFFCURVE",
"151 608 OFFCURVE",
"185 608 CURVE SMOOTH",
"254 608 OFFCURVE",
"293 564 OFFCURVE",
"293 485 CURVE SMOOTH",
"293 399 OFFCURVE",
"230 350 OFFCURVE",
"100 334 CURVE",
"114 286 LINE",
"114 286 OFFCURVE",
"144 289 OFFCURVE",
"183 289 CURVE SMOOTH",
"265 289 OFFCURVE",
"320 240 OFFCURVE",
"320 166 CURVE SMOOTH",
"320 68 OFFCURVE",
"198 -22 OFFCURVE",
"13 -52 CURVE",
"31 -105 LINE",
"259 -80 OFFCURVE",
"415 32 OFFCURVE",
"415 168 CURVE SMOOTH",
"415 250 OFFCURVE",
"362 309 OFFCURVE",
"268 335 CURVE",
"344 367 OFFCURVE",
"387 426 OFFCURVE",
"387 499 CURVE SMOOTH",
"387 605 OFFCURVE",
"317 662 OFFCURVE",
"188 662 CURVE SMOOTH"
);
}
);
width = 470;
},
{
layerId = "16643525-C5DD-48EC-8E99-463BF28F5E85";
name = Bold;
paths = (
{
closed = 1;
nodes = (
"138 662 OFFCURVE",
"76 652 OFFCURVE",
"19 633 CURVE",
"33 465 LINE",
"112 470 LINE",
"112 523 LINE",
"112 527 OFFCURVE",
"120 562 OFFCURVE",
"120 562 CURVE",
"141 569 OFFCURVE",
"168 574 OFFCURVE",
"193 574 CURVE SMOOTH",
"244 574 OFFCURVE",
"272 546 OFFCURVE",
"272 493 CURVE SMOOTH",
"272 411 OFFCURVE",
"216 357 OFFCURVE",
"110 339 CURVE",
"124 266 LINE",
"124 266 OFFCURVE",
"160 270 OFFCURVE",
"186 270 CURVE SMOOTH",
"254 270 OFFCURVE",
"288 234 OFFCURVE",
"288 163 CURVE SMOOTH",
"288 65 OFFCURVE",
"181 -11 OFFCURVE",
"19 -29 CURVE",
"41 -105 LINE",
"277 -87 OFFCURVE",
"452 32 OFFCURVE",
"452 174 CURVE SMOOTH",
"452 247 OFFCURVE",
"392 315 OFFCURVE",
"313 332 CURVE",
"384 368 OFFCURVE",
"424 424 OFFCURVE",
"424 487 CURVE SMOOTH",
"424 602 OFFCURVE",
"346 662 OFFCURVE",
"199 662 CURVE SMOOTH"
);
}
);
width = 491;
}
);
unicode = 0033;
},
{
glyphname = four;
lastChange = "2014-11-10 20:53:51 +0000";
layers = (
{
layerId = UUID0;
name = Regular;
paths = (
{
closed = 1;
nodes = (
"365 739 LINE",
"5 254 LINE",
"49 201 LINE",
"308 201 LINE",
"308 137 LINE SMOOTH",
"308 120 OFFCURVE",
"301 75 OFFCURVE",
"299 61 CURVE",
"196 45 LINE",
"201 -5 LINE",
"201 -5 OFFCURVE",
"319 0 OFFCURVE",
"339 0 CURVE SMOOTH",
"419 0 OFFCURVE",
"469 -5 OFFCURVE",
"469 -5 CURVE",
"476 54 LINE",
"393 61 LINE",
"391 75 OFFCURVE",
"386 125 OFFCURVE",
"386 167 CURVE SMOOTH",
"386 201 LINE",
"478 201 LINE",
"478 268 LINE",
"386 262 LINE",
"386 426 LINE",
"308 399 LINE",
"308 257 LINE",
"108 254 LINE",
"295 534 LINE SMOOTH",
"310 557 OFFCURVE",
"434 688 OFFCURVE",
"434 688 CURVE"
);
}
);
width = 529;
},
{
layerId = "16643525-C5DD-48EC-8E99-463BF28F5E85";
name = Bold;
paths = (
{
closed = 1;
nodes = (
"364 739 LINE",
"10 274 LINE",
"84 182 LINE",
"294 182 LINE",
"294 161 LINE SMOOTH",
"294 142 OFFCURVE",
"285 78 OFFCURVE",
"285 77 CURVE",
"179 65 LINE",
"184 -5 LINE",
"184 -5 OFFCURVE",
"266 0 OFFCURVE",
"311 0 CURVE SMOOTH",
"421 0 OFFCURVE",
"525 -5 OFFCURVE",
"525 -5 CURVE",
"530 71 LINE",
"443 77 LINE",
"443 78 OFFCURVE",
"434 118 OFFCURVE",
"434 160 CURVE SMOOTH",
"434 182 LINE",
"528 182 LINE",
"528 287 LINE",
"434 282 LINE",
"434 418 LINE",
"294 370 LINE",
"294 273 LINE",
"155 273 LINE",
"345 530 LINE SMOOTH",
"360 553 OFFCURVE",
"464 655 OFFCURVE",
"464 655 CURVE"
);
}
);
width = 563;
}
);
unicode = 0034;
},
{
glyphname = five;
lastChange = "2014-11-10 20:53:51 +0000";
layers = (
{
layerId = UUID0;
name = Regular;
paths = (
{
closed = 1;
nodes = (
"157 652 LINE",
"89 652 LINE",
"70 634 LINE",
"70 634 OFFCURVE",
"53 305 OFFCURVE",
"53 305 CURVE",
"90 284 LINE",
"132 294 OFFCURVE",
"162 297 OFFCURVE",
"186 297 CURVE SMOOTH",
"280 297 OFFCURVE",
"332 251 OFFCURVE",
"332 166 CURVE SMOOTH",
"332 37 OFFCURVE",
"203 -29 OFFCURVE",
"42 -52 CURVE",
"60 -105 LINE",
"269 -83 OFFCURVE",
"427 11 OFFCURVE",
"427 176 CURVE SMOOTH",
"427 300 OFFCURVE",
"339 364 OFFCURVE",
"204 364 CURVE SMOOTH",
"173 364 OFFCURVE",
"145 360 OFFCURVE",
"122 355 CURVE",
"125 445 OFFCURVE",
"134 572 OFFCURVE",
"134 572 CURVE",
"198 572 LINE SMOOTH",
"228 572 OFFCURVE",
"406 595 OFFCURVE",
"406 595 CURVE",
"400 662 LINE"
);
}
);
width = 462;
},
{
layerId = "16643525-C5DD-48EC-8E99-463BF28F5E85";
name = Bold;
paths = (
{
closed = 1;
nodes = (
"174 652 LINE",
"86 652 LINE",
"67 634 LINE",
"42 320 LINE",
"89 266 LINE",
"127 277 OFFCURVE",
"156 280 OFFCURVE",
"178 280 CURVE SMOOTH",
"259 280 OFFCURVE",
"294 237 OFFCURVE",
"294 164 CURVE SMOOTH",
"294 65 OFFCURVE",
"220 9 OFFCURVE",
"43 -31 CURVE",
"65 -105 LINE",
"318 -66 OFFCURVE",
"450 31 OFFCURVE",
"450 187 CURVE SMOOTH",
"450 308 OFFCURVE",
"371 383 OFFCURVE",
"224 383 CURVE SMOOTH",
"207 383 OFFCURVE",
"182 382 OFFCURVE",
"162 379 CURVE",
"171 521 LINE",
"265 521 LINE SMOOTH",
"295 521 OFFCURVE",
"423 535 OFFCURVE",
"423 535 CURVE",
"417 662 LINE"
);
}
);
width = 486;
}
);
unicode = 0035;
},
{
glyphname = six;
lastChange = "2014-11-10 20:53:51 +0000";
layers = (
{
layerId = UUID0;
name = Regular;
paths = (
{
closed = 1;
nodes = (
"418 403 OFFCURVE",
"497 329 OFFCURVE",
"497 200 CURVE SMOOTH",
"497 78 OFFCURVE",
"398 -11 OFFCURVE",
"276 -11 CURVE SMOOTH",
"126 -11 OFFCURVE",
"45 96 OFFCURVE",
"45 246 CURVE SMOOTH",
"45 457 OFFCURVE",
"182 693 OFFCURVE",
"470 747 CURVE",
"482 696 LINE",
"220 620 OFFCURVE",
"139 417 OFFCURVE",
"139 246 CURVE SMOOTH",
"139 150 OFFCURVE",
"180 46 OFFCURVE",
"276 46 CURVE SMOOTH",
"356 46 OFFCURVE",
"402 120 OFFCURVE",
"402 200 CURVE SMOOTH",
"402 281 OFFCURVE",
"361 344 OFFCURVE",
"280 344 CURVE",
"260 344 OFFCURVE",
"215 339 OFFCURVE",
"215 339 CURVE",
"209 387 LINE",
"209 387 OFFCURVE",
"256 403 OFFCURVE",
"289 403 CURVE"
);
}
);
width = 522;
},
{
layerId = "16643525-C5DD-48EC-8E99-463BF28F5E85";
name = Bold;
paths = (
{
closed = 1;
nodes = (
"448 413 OFFCURVE",
"522 333 OFFCURVE",
"522 208 CURVE SMOOTH",
"522 76 OFFCURVE",
"414 -11 OFFCURVE",
"282 -11 CURVE SMOOTH",
"127 -11 OFFCURVE",
"30 91 OFFCURVE",
"30 246 CURVE SMOOTH",
"30 457 OFFCURVE",
"178 694 OFFCURVE",
"480 747 CURVE",
"496 681 LINE",
"269 607 OFFCURVE",
"189 411 OFFCURVE",
"189 246 CURVE SMOOTH",
"189 173 OFFCURVE",
"208 81 OFFCURVE",
"281 81 CURVE SMOOTH",
"343 81 OFFCURVE",
"362 146 OFFCURVE",
"362 208 CURVE SMOOTH",
"362 268 OFFCURVE",
"344 334 OFFCURVE",
"284 334 CURVE SMOOTH",
"270 334 OFFCURVE",
"250 331 OFFCURVE",
"250 331 CURVE",
"244 403 LINE",
"259 408 OFFCURVE",
"292 413 OFFCURVE",
"323 413 CURVE SMOOTH"
);
}
);
width = 552;
}
);
unicode = 0036;
},
{
glyphname = seven;
lastChange = "2014-11-10 20:53:51 +0000";
layers = (
{
layerId = UUID0;
name = Regular;
paths = (
{
closed = 1;
nodes = (
"69 641 LINE",
"60 493 LINE",
"115 489 LINE",
"120 539 LINE",
"121 545 OFFCURVE",
"127 559 OFFCURVE",
"134 573 CURVE",
"155 575 OFFCURVE",
"204 579 OFFCURVE",
"219 579 CURVE SMOOTH",
"387 579 LINE",
"374 529 OFFCURVE",
"352 442 OFFCURVE",
"343 422 CURVE SMOOTH",
"129 -80 LINE",
"207 -105 LINE",
"493 613 LINE",
"477 652 LINE",
"210 652 LINE SMOOTH",
"186 652 OFFCURVE",
"88 661 OFFCURVE",
"88 661 CURVE"
);
}
);
width = 506;
},
{
layerId = "16643525-C5DD-48EC-8E99-463BF28F5E85";
name = Bold;
paths = (
{
closed = 1;
nodes = (
"46 641 LINE",
"35 431 LINE",
"114 428 LINE",
"122 474 LINE",
"127 488 OFFCURVE",
"133 502 OFFCURVE",
"137 516 CURVE",
"159 518 OFFCURVE",
"183 520 OFFCURVE",
"193 520 CURVE SMOOTH",
"346 520 LINE",
"333 472 OFFCURVE",
"309 393 OFFCURVE",
"302 379 CURVE SMOOTH",
"77 -62 LINE",
"202 -105 LINE",
"518 583 LINE",
"502 652 LINE",
"184 652 LINE SMOOTH",
"161 652 OFFCURVE",
"64 661 OFFCURVE",
"64 661 CURVE"
);
}
);
width = 511;
}
);
unicode = 0037;
},
{
glyphname = eight;
lastChange = "2014-11-10 20:53:51 +0000";
layers = (
{
layerId = UUID0;
name = Regular;
paths = (
{
closed = 1;
nodes = (
"62 623 OFFCURVE",
"156 682 OFFCURVE",
"260 682 CURVE SMOOTH",
"362 682 OFFCURVE",
"458 624 OFFCURVE",
"458 519 CURVE SMOOTH",
"458 389 OFFCURVE",
"274 315 OFFCURVE",
"274 315 CURVE",
"255 347 LINE",
"255 347 OFFCURVE",
"371 412 OFFCURVE",
"371 519 CURVE SMOOTH",
"371 585 OFFCURVE",
"323 635 OFFCURVE",
"260 635 CURVE SMOOTH",
"202 635 OFFCURVE",
"149 584 OFFCURVE",
"149 523 CURVE SMOOTH",
"149 446 OFFCURVE",
"215 412 OFFCURVE",
"288 372 CURVE",
"378 329 OFFCURVE",
"480 277 OFFCURVE",
"480 162 CURVE SMOOTH",
"480 47 OFFCURVE",
"378 -10 OFFCURVE",
"260 -10 CURVE SMOOTH",
"144 -10 OFFCURVE",
"40 45 OFFCURVE",
"40 164 CURVE SMOOTH",
"40 305 OFFCURVE",
"256 383 OFFCURVE",
"256 383 CURVE",
"281 348 LINE",
"281 348 OFFCURVE",
"131 278 OFFCURVE",
"131 164 CURVE SMOOTH",
"131 87 OFFCURVE",
"186 37 OFFCURVE",
"260 37 CURVE SMOOTH",
"330 37 OFFCURVE",
"389 87 OFFCURVE",
"389 160 CURVE SMOOTH",
"389 235 OFFCURVE",
"318 274 OFFCURVE",
"242 316 CURVE",
"155 358 OFFCURVE",
"62 406 OFFCURVE",
"62 521 CURVE SMOOTH"
);
}
);
width = 520;
},
{
layerId = "16643525-C5DD-48EC-8E99-463BF28F5E85";
name = Bold;
paths = (
{
closed = 1;
nodes = (
"52 628 OFFCURVE",
"164 682 OFFCURVE",
"271 682 CURVE SMOOTH",
"378 682 OFFCURVE",
"489 626 OFFCURVE",
"489 519 CURVE SMOOTH",
"489 389 OFFCURVE",
"314 307 OFFCURVE",
"314 307 CURVE",
"217 339 LINE",
"217 339 OFFCURVE",
"345 411 OFFCURVE",
"345 518 CURVE SMOOTH",
"345 565 OFFCURVE",
"319 600 OFFCURVE",
"271 600 CURVE SMOOTH",
"226 600 OFFCURVE",
"196 565 OFFCURVE",
"196 521 CURVE SMOOTH",
"196 369 OFFCURVE",
"511 383 OFFCURVE",
"511 156 CURVE SMOOTH",
"511 42 OFFCURVE",
"385 -10 OFFCURVE",
"270 -10 CURVE SMOOTH",
"149 -10 OFFCURVE",
"30 43 OFFCURVE",
"30 164 CURVE SMOOTH",
"30 309 OFFCURVE",
"244 383 OFFCURVE",
"244 391 CURVE",
"340 340 LINE",
"340 340 OFFCURVE",
"177 278 OFFCURVE",
"177 165 CURVE SMOOTH",
"177 108 OFFCURVE",
"213 72 OFFCURVE",
"271 72 CURVE SMOOTH",
"328 72 OFFCURVE",
"363 104 OFFCURVE",
"363 162 CURVE SMOOTH",
"363 310 OFFCURVE",
"52 294 OFFCURVE",
"52 522 CURVE SMOOTH"
);
}
);
width = 543;
}
);
unicode = 0038;
},
{
glyphname = nine;
lastChange = "2014-11-10 20:53:51 +0000";
layers = (
{
layerId = UUID0;
name = Regular;
paths = (
{
closed = 1;
nodes = (
"116 248 OFFCURVE",
"25 326 OFFCURVE",
"25 449 CURVE SMOOTH",
"25 573 OFFCURVE",
"122 662 OFFCURVE",
"246 662 CURVE SMOOTH",
"398 662 OFFCURVE",
"480 553 OFFCURVE",
"480 401 CURVE SMOOTH",
"480 185 OFFCURVE",
"356 -45 OFFCURVE",
"62 -107 CURVE",
"48 -55 LINE",
"313 29 OFFCURVE",
"382 230 OFFCURVE",
"382 401 CURVE SMOOTH",
"382 498 OFFCURVE",
"340 605 OFFCURVE",
"244 605 CURVE SMOOTH",
"163 605 OFFCURVE",
"122 531 OFFCURVE",
"122 449 CURVE SMOOTH",
"122 374 OFFCURVE",
"173 307 OFFCURVE",
"248 307 CURVE SMOOTH",
"270 307 OFFCURVE",
"289 307 OFFCURVE",
"310 310 CURVE",
"317 263 LINE",
"296 254 OFFCURVE",
"268 248 OFFCURVE",
"239 248 CURVE SMOOTH"
);
}
);
width = 525;
},
{
layerId = "16643525-C5DD-48EC-8E99-463BF28F5E85";
name = Bold;
paths = (
{
closed = 1;
nodes = (
"109 238 OFFCURVE",
"30 313 OFFCURVE",
"30 443 CURVE SMOOTH",
"30 565 OFFCURVE",
"137 662 OFFCURVE",
"270 662 CURVE SMOOTH",
"433 662 OFFCURVE",
"522 555 OFFCURVE",
"522 405 CURVE SMOOTH",
"522 194 OFFCURVE",
"380 -52 OFFCURVE",
"78 -105 CURVE",
"56 -31 LINE",
"305 35 OFFCURVE",
"363 240 OFFCURVE",
"363 405 CURVE SMOOTH",
"363 490 OFFCURVE",
"336 570 OFFCURVE",
"271 570 CURVE SMOOTH",
"209 570 OFFCURVE",
"190 505 OFFCURVE",
"190 443 CURVE SMOOTH",
"190 373 OFFCURVE",
"220 317 OFFCURVE",
"268 317 CURVE SMOOTH",
"282 317 OFFCURVE",
"302 320 OFFCURVE",
"302 320 CURVE",
"308 248 LINE",
"293 243 OFFCURVE",
"270 238 OFFCURVE",
"239 238 CURVE SMOOTH"
);
}
);
width = 552;
}
);
unicode = 0039;
},
{
glyphname = acute;
lastChange = "2014-11-10 20:53:51 +0000";
layers = (
{
anchors = (
{
name = _top;
position = "{160, 494}";
}
);
layerId = UUID0;
name = Regular;
paths = (
{
closed = 1;
nodes = (
"246 755 LINE",
"66 605 LINE",
"99 564 LINE",
"172 624 LINE",
"187 635 OFFCURVE",
"293 695 OFFCURVE",
"293 695 CURVE"
);
}
);
width = 360;
},
{
anchors = (
{
name = _top;
position = "{160, 494}";
}
);
layerId = "16643525-C5DD-48EC-8E99-463BF28F5E85";
name = Bold;
paths = (
{
closed = 1;
nodes = (
"260 755 LINE",
"53 623 LINE",
"100 565 LINE",
"167 614 LINE",
"185 623 OFFCURVE",
"307 679 OFFCURVE",
"307 679 CURVE"
);
}
);
width = 360;
}
);
leftKerningGroup = asterisk;
rightKerningGroup = asterisk;
unicode = 00B4;
},
{
glyphname = cedilla;
lastChange = "2014-11-10 20:53:51 +0000";
layers = (
{
anchors = (
{
name = _bottom;
position = "{180, 0}";
}
);
layerId = UUID0;
name = Regular;
paths = (
{
closed = 1;
nodes = (
"208 10 LINE",
"160 10 LINE",
"151 -94 LINE",
"162 -104 LINE",
"162 -104 OFFCURVE",
"177 -103 OFFCURVE",
"183 -103 CURVE SMOOTH",
"210 -103 OFFCURVE",
"230 -116 OFFCURVE",
"230 -146 CURVE SMOOTH",
"230 -176 OFFCURVE",
"208 -193 OFFCURVE",
"176 -193 CURVE SMOOTH",
"156 -193 OFFCURVE",
"134 -187 OFFCURVE",
"118 -182 CURVE",
"105 -217 LINE",
"122 -225 OFFCURVE",
"151 -235 OFFCURVE",
"188 -235 CURVE SMOOTH",
"247 -235 OFFCURVE",
"295 -200 OFFCURVE",
"295 -146 CURVE SMOOTH",
"295 -92 OFFCURVE",
"253 -60 OFFCURVE",
"194 -59 CURVE"
);
}
);
width = 360;
},
{
anchors = (
{
name = _bottom;
position = "{180, 0}";
}
);
layerId = "16643525-C5DD-48EC-8E99-463BF28F5E85";
name = Bold;
paths = (
{
closed = 1;
nodes = (
"215 10 LINE",
"149 10 LINE",
"138 -102 LINE",
"149 -116 LINE",
"149 -116 OFFCURVE",
"164 -115 OFFCURVE",
"170 -115 CURVE SMOOTH",
"194 -115 OFFCURVE",
"212 -121 OFFCURVE",
"212 -146 CURVE SMOOTH",
"212 -171 OFFCURVE",
"189 -179 OFFCURVE",
"165 -179 CURVE SMOOTH",
"145 -179 OFFCURVE",
"126 -173 OFFCURVE",
"110 -168 CURVE",
"92 -217 LINE",
"109 -225 OFFCURVE",
"151 -235 OFFCURVE",
"188 -235 CURVE SMOOTH",
"251 -235 OFFCURVE",
"302 -209 OFFCURVE",
"302 -146 CURVE SMOOTH",
"302 -92 OFFCURVE",
"260 -60 OFFCURVE",
"201 -59 CURVE"
);
}
);
width = 360;
}
);
leftKerningGroup = period;
rightKerningGroup = period;
unicode = 00B8;
},
{
glyphname = circumflex;
lastChange = "2014-11-10 20:53:51 +0000";
layers = (
{
anchors = (
{
name = _top;
position = "{180, 494}";
}
);
layerId = UUID0;
name = Regular;
paths = (
{
closed = 1;
nodes = (
"346 596 LINE",
"180 765 LINE",
"131 703 LINE",
"131 703 OFFCURVE",
"224 637 OFFCURVE",
"239 625 CURVE",
"313 564 LINE"
);
},
{
closed = 1;
nodes = (
"180 765 LINE",
"14 596 LINE",
"47 564 LINE",
"121 625 LINE",
"136 637 OFFCURVE",
"229 703 OFFCURVE",
"229 703 CURVE"
);
}
);
width = 360;
},
{
anchors = (
{
name = _top;
position = "{180, 494}";
}
);
layerId = "16643525-C5DD-48EC-8E99-463BF28F5E85";
name = Bold;
paths = (
{
closed = 1;
nodes = (
"378 622 LINE",
"180 765 LINE",
"132 688 LINE",
"132 688 OFFCURVE",
"246 626 OFFCURVE",
"264 617 CURVE",
"331 564 LINE"
);
},
{
closed = 1;
nodes = (
"180 765 LINE",
"-18 622 LINE",
"29 564 LINE",
"96 617 LINE",
"114 626 OFFCURVE",
"228 688 OFFCURVE",
"228 688 CURVE"
);
}
);
width = 360;
}
);
leftKerningGroup = asterisk;
rightKerningGroup = asterisk;
unicode = 02C6;
},
{
glyphname = dieresis;
lastChange = "2014-11-10 20:53:51 +0000";
layers = (
{
anchors = (
{
name = _top;
position = "{180, 494}";
}
);
layerId = UUID0;
name = Regular;
paths = (
{
closed = 1;
nodes = (
"262 713 OFFCURVE",
"244 689 OFFCURVE",
"244 653 CURVE SMOOTH",
"244 617 OFFCURVE",
"262 594 OFFCURVE",
"298 594 CURVE SMOOTH",
"334 594 OFFCURVE",
"352 617 OFFCURVE",
"352 653 CURVE SMOOTH",
"352 692 OFFCURVE",
"333 713 OFFCURVE",
"298 713 CURVE SMOOTH"
);
},
{
closed = 1;
nodes = (
"26 713 OFFCURVE",
"8 689 OFFCURVE",
"8 653 CURVE SMOOTH",
"8 617 OFFCURVE",
"26 594 OFFCURVE",
"62 594 CURVE SMOOTH",
"98 594 OFFCURVE",
"116 617 OFFCURVE",
"116 653 CURVE SMOOTH",
"116 692 OFFCURVE",
"97 713 OFFCURVE",
"62 713 CURVE SMOOTH"
);
}
);
width = 360;
},
{
anchors = (
{
name = _top;
position = "{180, 494}";
}
);
layerId = "16643525-C5DD-48EC-8E99-463BF28F5E85";
name = Bold;
paths = (
{
closed = 1;
nodes = (
"18 725 OFFCURVE",
"-6 696 OFFCURVE",
"-6 655 CURVE SMOOTH",
"-6 614 OFFCURVE",
"18 586 OFFCURVE",
"62 586 CURVE SMOOTH",
"106 586 OFFCURVE",
"129 614 OFFCURVE",
"129 655 CURVE SMOOTH",
"129 699 OFFCURVE",
"104 725 OFFCURVE",
"62 725 CURVE SMOOTH"
);
},
{
closed = 1;
nodes = (
"255 725 OFFCURVE",
"232 696 OFFCURVE",
"232 655 CURVE SMOOTH",
"232 614 OFFCURVE",
"255 586 OFFCURVE",
"299 586 CURVE SMOOTH",
"343 586 OFFCURVE",
"366 614 OFFCURVE",
"366 655 CURVE SMOOTH",
"366 699 OFFCURVE",
"341 725 OFFCURVE",
"299 725 CURVE SMOOTH"
);
}
);
width = 360;
}
);
leftKerningGroup = asterisk;
rightKerningGroup = asterisk;
unicode = 00A8;
},
{
glyphname = grave;
lastChange = "2014-11-10 20:53:51 +0000";
layers = (
{
anchors = (
{
name = _top;
position = "{200, 494}";
}
);
layerId = UUID0;
name = Regular;
paths = (
{
closed = 1;
nodes = (
"293 605 LINE",
"113 755 LINE",
"66 695 LINE",
"66 695 OFFCURVE",
"172 635 OFFCURVE",
"187 624 CURVE",
"260 564 LINE"
);
}
);
width = 360;
},
{
anchors = (
{
name = _top;
position = "{200, 494}";
}
);
layerId = "16643525-C5DD-48EC-8E99-463BF28F5E85";
name = Bold;
paths = (
{
closed = 1;
nodes = (
"307 623 LINE",
"100 755 LINE",
"53 679 LINE",
"53 679 OFFCURVE",
"175 623 OFFCURVE",
"193 614 CURVE",
"260 565 LINE"
);
}
);
width = 360;
}
);
leftKerningGroup = asterisk;
rightKerningGroup = asterisk;
unicode = 0060;
},
{
glyphname = macron;
lastChange = "2014-11-10 20:53:51 +0000";
layers = (
{
anchors = (
{
name = _top;
position = "{180, 494}";
}
);
layerId = UUID0;
name = Regular;
paths = (
{
closed = 1;
nodes = (
"336 596 LINE",
"341 649 LINE",
"19 649 LINE",
"19 596 LINE"
);
}
);
width = 360;
},
{
anchors = (
{
name = _top;
position = "{180, 494}";
}
);
layerId = "16643525-C5DD-48EC-8E99-463BF28F5E85";
name = Bold;
paths = (
{
closed = 1;
nodes = (
"334 596 LINE",
"341 669 LINE",
"19 669 LINE",
"19 596 LINE"
);
}
);
width = 360;
}
);
leftKerningGroup = asterisk;
rightKerningGroup = asterisk;
unicode = 00AF;
},
{
glyphname = tilde;
lastChange = "2014-11-10 20:53:51 +0000";
layers = (
{
anchors = (
{
name = _top;
position = "{180, 494}";
}
);
layerId = UUID0;
name = Regular;
paths = (
{
closed = 1;
nodes = (
"307 723 LINE",
"307 723 OFFCURVE",
"281 673 OFFCURVE",
"254 673 CURVE SMOOTH",
"214 673 OFFCURVE",
"139 714 OFFCURVE",
"99 714 CURVE SMOOTH",
"59 714 OFFCURVE",
"17 612 OFFCURVE",
"17 612 CURVE",
"53 591 LINE",
"53 591 OFFCURVE",
"79 644 OFFCURVE",
"106 644 CURVE SMOOTH",
"146 644 OFFCURVE",
"220 603 OFFCURVE",
"260 603 CURVE SMOOTH",
"300 603 OFFCURVE",
"343 702 OFFCURVE",
"343 702 CURVE"
);
}
);
width = 360;
},
{
anchors = (
{
name = _top;
position = "{180, 494}";
}
);
layerId = "16643525-C5DD-48EC-8E99-463BF28F5E85";
name = Bold;
paths = (
{
closed = 1;
nodes = (
"305 723 LINE",
"305 723 OFFCURVE",
"283 685 OFFCURVE",
"259 685 CURVE SMOOTH",
"217 685 OFFCURVE",
"136 723 OFFCURVE",
"94 723 CURVE SMOOTH",
"51 723 OFFCURVE",
"5 618 OFFCURVE",
"5 618 CURVE",
"52 590 LINE",
"52 590 OFFCURVE",
"77 632 OFFCURVE",
"101 632 CURVE SMOOTH",
"144 632 OFFCURVE",
"223 594 OFFCURVE",
"266 594 CURVE SMOOTH",
"309 594 OFFCURVE",
"354 695 OFFCURVE",
"354 695 CURVE"
);
}
);
width = 360;
}
);
leftKerningGroup = asterisk;
rightKerningGroup = asterisk;
unicode = 02DC;
},
{
glyphname = ampersand;
lastChange = "2014-11-10 20:53:51 +0000";
layers = (
{
layerId = UUID0;
name = Regular;
paths = (
{
closed = 1;
nodes = (
"202 662 OFFCURVE",
"122 624 OFFCURVE",
"122 522 CURVE SMOOTH",
"122 478 OFFCURVE",
"142 433 OFFCURVE",
"175 386 CURVE",
"96 339 OFFCURVE",
"50 277 OFFCURVE",
"50 190 CURVE SMOOTH",
"50 66 OFFCURVE",
"152 -10 OFFCURVE",
"276 -10 CURVE SMOOTH",
"361 -10 OFFCURVE",
"434 20 OFFCURVE",
"485 71 CURVE",
"531 25 LINE",
"539 0 LINE",
"560 0 LINE SMOOTH",
"640 0 OFFCURVE",
"689 -5 OFFCURVE",
"689 -5 CURVE",
"696 54 LINE",
"617 61 LINE",
"595 77 OFFCURVE",
"563 100 OFFCURVE",
"559 104 CURVE",
"529 132 LINE",
"550 171 OFFCURVE",
"561 216 OFFCURVE",
"561 267 CURVE SMOOTH",
"561 307 OFFCURVE",
"565 329 OFFCURVE",
"566 336 CURVE",
"643 352 LINE",
"638 405 LINE",
"597 403 OFFCURVE",
"557 402 OFFCURVE",
"516 400 CURVE",
"486 400 OFFCURVE",
"455 400 OFFCURVE",
"425 400 CURVE",
"419 342 LINE",
"487 336 LINE",
"489 327 OFFCURVE",
"496 296 OFFCURVE",
"496 279 CURVE SMOOTH",
"496 241 OFFCURVE",
"491 206 OFFCURVE",
"480 177 CURVE",
"345 301 OFFCURVE",
"210 428 OFFCURVE",
"210 522 CURVE SMOOTH",
"210 577 OFFCURVE",
"249 613 OFFCURVE",
"304 613 CURVE SMOOTH",
"344 613 OFFCURVE",
"372 599 OFFCURVE",
"386 588 CURVE",
"386 588 OFFCURVE",
"396 547 OFFCURVE",
"396 540 CURVE SMOOTH",
"396 533 OFFCURVE",
"394 494 OFFCURVE",
"394 494 CURVE",
"449 491 LINE",
"462 631 LINE",
"433 642 OFFCURVE",
"354 662 OFFCURVE",
"304 662 CURVE SMOOTH"
);
},
{
closed = 1;
nodes = (
"274 264 OFFCURVE",
"361 188 OFFCURVE",
"441 112 CURVE",
"404 72 OFFCURVE",
"349 50 OFFCURVE",
"277 50 CURVE SMOOTH",
"194 50 OFFCURVE",
"139 114 OFFCURVE",
"139 197 CURVE SMOOTH",
"139 254 OFFCURVE",
"161 301 OFFCURVE",
"211 339 CURVE"
);
}
);
width = 725;
},
{
layerId = "16643525-C5DD-48EC-8E99-463BF28F5E85";
name = Bold;
paths = (
{
closed = 1;
nodes = (
"509 297 OFFCURVE",
"504 339 OFFCURVE",
"504 339 CURVE",
"620 339 LINE",
"620 339 OFFCURVE",
"619 332 OFFCURVE",
"613 267 CURVE SMOOTH",
"596 95 OFFCURVE",
"474 -10 OFFCURVE",
"283 -10 CURVE SMOOTH",
"146 -10 OFFCURVE",
"40 44 OFFCURVE",
"40 174 CURVE SMOOTH",
"40 290 OFFCURVE",
"124 356 OFFCURVE",
"264 410 CURVE",
"297 326 LINE",
"219 273 OFFCURVE",
"203 226 OFFCURVE",
"203 190 CURVE SMOOTH",
"203 122 OFFCURVE",
"262 95 OFFCURVE",
"318 95 CURVE SMOOTH",
"406 95 OFFCURVE",
"509 160 OFFCURVE",
"509 272 CURVE SMOOTH"
);
},
{
closed = 1;
nodes = (
"382 562 OFFCURVE",
"354 569 OFFCURVE",
"330 569 CURVE SMOOTH",
"286 569 OFFCURVE",
"270 544 OFFCURVE",
"270 510 CURVE SMOOTH",
"270 427 OFFCURVE",
"362 349 OFFCURVE",
"609 134 CURVE SMOOTH",
"628 118 OFFCURVE",
"685 74 OFFCURVE",
"685 74 CURVE",
"527 0 LINE",
"379 174 OFFCURVE",
"102 332 OFFCURVE",
"102 506 CURVE SMOOTH",
"102 611 OFFCURVE",
"204 662 OFFCURVE",
"314 662 CURVE SMOOTH",
"384 662 OFFCURVE",
"454 641 OFFCURVE",
"482 631 CURVE",
"470 474 LINE",
"405 478 LINE",
"405 521 LINE SMOOTH",
"405 526 OFFCURVE",
"391 560 OFFCURVE",
"391 560 CURVE"
);
},
{
closed = 1;
nodes = (
"668 77 LINE",
"733 71 LINE",
"728 -5 LINE",
"728 -5 OFFCURVE",
"656 0 OFFCURVE",
"543 0 CURVE SMOOTH",
"527 0 LINE"
);
},
{
closed = 1;
nodes = (
"506 330 LINE",
"456 336 LINE",
"461 407 LINE",
"461 407 OFFCURVE",
"526 402 OFFCURVE",
"581 402 CURVE SMOOTH",
"636 402 OFFCURVE",
"679 407 OFFCURVE",
"679 407 CURVE",
"684 336 LINE",
"619 330 LINE"
);
}
);
width = 758;
}
);
unicode = 0026;
},
{
glyphname = ordfeminine;
lastChange = "2014-11-10 20:53:51 +0000";
layers = (
{
anchors = (
{
name = ogonek;
position = "{0, 0}";
},
{
name = top;
position = "{0, 0}";
}
);
layerId = UUID0;
name = Regular;
paths = (
{
closed = 1;
nodes = (
"214 450 LINE",
"283 450 OFFCURVE",
"314 447 OFFCURVE",
"314 447 CURVE",
"318 489 LINE",
"278 493 LINE",
"278 493 OFFCURVE",
"272 531 OFFCURVE",
"272 561 CURVE SMOOTH",
"272 639 LINE SMOOTH",
"272 718 OFFCURVE",
"233 757 OFFCURVE",
"154 757 CURVE SMOOTH",
"122 757 OFFCURVE",
"78 751 OFFCURVE",
"41 741 CURVE",
"50 646 LINE",
"92 648 LINE",
"91 676 LINE",
"96 701 LINE",
"110 708 OFFCURVE",
"132 712 OFFCURVE",
"150 712 CURVE SMOOTH",
"184 712 OFFCURVE",
"201 691 OFFCURVE",
"201 644 CURVE SMOOTH",
"201 625 LINE",
"108 610 LINE SMOOTH",
"53 601 OFFCURVE",
"26 573 OFFCURVE",
"26 527 CURVE SMOOTH",
"26 476 OFFCURVE",
"61 444 OFFCURVE",
"117 444 CURVE SMOOTH",
"156 444 OFFCURVE",
"190 463 OFFCURVE",
"208 496 CURVE"
);
},
{
closed = 1;
nodes = (
"201 589 LINE",
"201 548 LINE",
"195 518 OFFCURVE",
"170 497 OFFCURVE",
"140 497 CURVE SMOOTH",
"114 497 OFFCURVE",
"101 511 OFFCURVE",
"101 539 CURVE SMOOTH",
"101 561 OFFCURVE",
"113 573 OFFCURVE",
"137 578 CURVE SMOOTH"
);
}
);
width = 331;
},
{
anchors = (
{
name = ogonek;
position = "{0, 0}";
},
{
name = top;
position = "{0, 0}";
}
);
layerId = "16643525-C5DD-48EC-8E99-463BF28F5E85";
name = Bold;
paths = (
{
closed = 1;
nodes = (
"210 450 LINE",
"307 450 OFFCURVE",
"339 447 OFFCURVE",
"339 447 CURVE",
"343 498 LINE",
"304 502 LINE",
"304 502 OFFCURVE",
"299 546 OFFCURVE",
"299 579 CURVE SMOOTH",
"299 664 LINE SMOOTH",
"299 733 OFFCURVE",
"244 777 OFFCURVE",
"155 777 CURVE SMOOTH",
"126 777 OFFCURVE",
"72 769 OFFCURVE",
"34 759 CURVE",
"44 645 LINE",
"96 647 LINE",
"95 680 LINE",
"100 705 LINE",
"115 712 OFFCURVE",
"137 717 OFFCURVE",
"152 717 CURVE SMOOTH",
"184 717 OFFCURVE",
"199 702 OFFCURVE",
"199 661 CURVE SMOOTH",
"199 642 LINE",
"107 628 LINE SMOOTH",
"49 619 OFFCURVE",
"20 589 OFFCURVE",
"20 538 CURVE SMOOTH",
"20 479 OFFCURVE",
"57 443 OFFCURVE",
"118 443 CURVE SMOOTH",
"159 443 OFFCURVE",
"185 459 OFFCURVE",
"206 496 CURVE"
);
},
{
closed = 1;
nodes = (
"199 598 LINE",
"199 551 LINE",
"192 528 OFFCURVE",
"178 516 OFFCURVE",
"159 516 CURVE SMOOTH",
"136 516 OFFCURVE",
"126 527 OFFCURVE",
"126 553 CURVE SMOOTH",
"126 577 OFFCURVE",
"135 588 OFFCURVE",
"159 593 CURVE SMOOTH"
);
}
);
width = 354;
}
);
unicode = 00AA;
},
{
glyphname = ordmasculine;
lastChange = "2014-11-10 20:53:51 +0000";
layers = (
{
anchors = (
{
name = top;
position = "{0, 0}";
}
);
layerId = UUID0;
name = Regular;
paths = (
{
closed = 1;
nodes = (
"321 698 OFFCURVE",
"269 757 OFFCURVE",
"172 757 CURVE SMOOTH",
"75 757 OFFCURVE",
"24 698 OFFCURVE",
"24 599 CURVE",
"24 502 OFFCURVE",
"75 442 OFFCURVE",
"172 442 CURVE",
"269 442 OFFCURVE",
"321 502 OFFCURVE",
"321 599 CURVE"
);
},
{
closed = 1;
nodes = (
"240 529 OFFCURVE",
"222 487 OFFCURVE",
"172 487 CURVE",
"123 487 OFFCURVE",
"105 529 OFFCURVE",
"105 599 CURVE",
"105 669 OFFCURVE",
"123 712 OFFCURVE",
"172 712 CURVE SMOOTH",
"222 712 OFFCURVE",
"240 669 OFFCURVE",
"240 599 CURVE"
);
}
);
width = 345;
},
{
anchors = (
{
name = top;
position = "{0, 0}";
}
);
layerId = "16643525-C5DD-48EC-8E99-463BF28F5E85";
name = Bold;
paths = (
{
closed = 1;
nodes = (
"349 718 OFFCURVE",
"289 777 OFFCURVE",
"184 777 CURVE SMOOTH",
"78 777 OFFCURVE",
"19 719 OFFCURVE",
"19 608 CURVE",
"19 499 OFFCURVE",
"78 440 OFFCURVE",
"184 440 CURVE",
"290 440 OFFCURVE",
"349 499 OFFCURVE",
"349 608 CURVE"
);
},
{
closed = 1;
nodes = (
"236 526 OFFCURVE",
"219 499 OFFCURVE",
"184 499 CURVE",
"148 499 OFFCURVE",
"132 526 OFFCURVE",
"132 608 CURVE",
"132 691 OFFCURVE",
"148 718 OFFCURVE",
"184 718 CURVE SMOOTH",
"219 718 OFFCURVE",
"236 691 OFFCURVE",
"236 608 CURVE"
);
}
);
width = 368;
}
);
unicode = 00BA;
},
{
glyphname = asterisk;
lastChange = "2014-11-10 20:53:51 +0000";
layers = (
{
layerId = UUID0;
name = Regular;
paths = (
{
closed = 1;
nodes = (
"61 674 LINE",
"44 634 LINE",
"92 607 LINE SMOOTH",
"98 603 OFFCURVE",
"155 558 OFFCURVE",
"164 550 CURVE",
"347 468 LINE",
"364 508 LINE",
"315 536 LINE SMOOTH",
"309 539 OFFCURVE",
"254 584 OFFCURVE",
"245 591 CURVE"
);
},
{
closed = 1;
nodes = (
"43 499 LINE",
"69 464 LINE",
"117 492 LINE SMOOTH",
"123 495 OFFCURVE",
"191 522 OFFCURVE",
"202 526 CURVE",
"365 643 LINE",
"339 678 LINE",
"290 650 LINE SMOOTH",
"284 646 OFFCURVE",
"218 621 OFFCURVE",
"207 617 CURVE"
);
},
{
closed = 1;
nodes = (
"186 396 LINE",
"229 401 LINE",
"229 456 LINE SMOOTH",
"229 463 OFFCURVE",
"240 535 OFFCURVE",
"242 547 CURVE",
"222 746 LINE",
"179 741 LINE",
"179 685 LINE SMOOTH",
"179 678 OFFCURVE",
"168 608 OFFCURVE",
"166 597 CURVE"
);
}
);
width = 409;
},
{
layerId = "16643525-C5DD-48EC-8E99-463BF28F5E85";
name = Bold;
paths = (
{
closed = 1;
nodes = (
"171 396 LINE",
"244 404 LINE",
"244 456 LINE SMOOTH",
"244 463 OFFCURVE",
"255 535 OFFCURVE",
"257 547 CURVE",
"237 746 LINE",
"164 738 LINE",
"164 685 LINE SMOOTH",
"164 678 OFFCURVE",
"153 608 OFFCURVE",
"151 597 CURVE"
);
},
{
closed = 1;
nodes = (
"339 455 LINE",
"369 522 LINE",
"324 548 LINE SMOOTH",
"318 552 OFFCURVE",
"261 597 OFFCURVE",
"251 605 CURVE",
"69 687 LINE",
"39 620 LINE",
"85 593 LINE SMOOTH",
"91 590 OFFCURVE",
"146 545 OFFCURVE",
"155 538 CURVE"
);
},
{
closed = 1;
nodes = (
"372 630 LINE",
"329 689 LINE",
"284 663 LINE SMOOTH",
"277 660 OFFCURVE",
"210 633 OFFCURVE",
"198 629 CURVE",
"36 512 LINE",
"79 453 LINE",
"125 479 LINE SMOOTH",
"131 483 OFFCURVE",
"198 508 OFFCURVE",
"208 512 CURVE"
);
}
);
width = 409;
}
);
leftKerningGroup = asterisk;
rightKerningGroup = asterisk;
unicode = 002A;
},
{
glyphname = backslash;
lastChange = "2014-11-10 20:53:51 +0000";
layers = (
{
layerId = UUID0;
name = Regular;
paths = (
{
closed = 1;
nodes = (
"317 -67 LINE",
"7 753 LINE",
"70 773 LINE",
"381 -47 LINE"
);
}
);
width = 398;
},
{
layerId = "16643525-C5DD-48EC-8E99-463BF28F5E85";
name = Bold;
paths = (
{
closed = 1;
nodes = (
"392 -35 LINE",
"86 773 LINE",
"-7 743 LINE",
"298 -65 LINE"
);
}
);
width = 398;
}
);
unicode = 005C;
},
{
glyphname = bullet;
lastChange = "2014-11-10 20:53:51 +0000";
layers = (
{
layerId = UUID0;
name = Regular;
paths = (
{
closed = 1;
nodes = (
"165 340 OFFCURVE",
"195 308 OFFCURVE",
"195 253 CURVE SMOOTH",
"195 202 OFFCURVE",
"166 167 OFFCURVE",
"115 167 CURVE SMOOTH",
"64 167 OFFCURVE",
"35 202 OFFCURVE",
"35 253 CURVE SMOOTH",
"35 304 OFFCURVE",
"64 340 OFFCURVE",
"115 340 CURVE SMOOTH"
);
}
);
width = 230;
},
{
layerId = "16643525-C5DD-48EC-8E99-463BF28F5E85";
name = Bold;
paths = (
{
closed = 1;
nodes = (
"174 355 OFFCURVE",
"210 317 OFFCURVE",
"210 253 CURVE SMOOTH",
"210 193 OFFCURVE",
"176 152 OFFCURVE",
"115 152 CURVE SMOOTH",
"54 152 OFFCURVE",
"20 193 OFFCURVE",
"20 253 CURVE SMOOTH",
"20 313 OFFCURVE",
"54 355 OFFCURVE",
"115 355 CURVE SMOOTH"
);
}
);
width = 230;
}
);
leftKerningGroup = hyphen;
rightKerningGroup = hyphen;
unicode = 2022;
},
{
glyphname = colon;
lastChange = "2014-11-10 20:53:51 +0000";
layers = (
{
layerId = UUID0;
name = Regular;
paths = (
{
closed = 1;
nodes = (
"136 472 OFFCURVE",
"158 448 OFFCURVE",
"158 407 CURVE SMOOTH",
"158 369 OFFCURVE",
"137 343 OFFCURVE",
"99 343 CURVE SMOOTH",
"61 343 OFFCURVE",
"40 369 OFFCURVE",
"40 407 CURVE SMOOTH",
"40 445 OFFCURVE",
"61 472 OFFCURVE",
"99 472 CURVE SMOOTH"
);
},
{
closed = 1;
nodes = (
"136 119 OFFCURVE",
"158 95 OFFCURVE",
"158 54 CURVE SMOOTH",
"158 16 OFFCURVE",
"137 -10 OFFCURVE",
"99 -10 CURVE SMOOTH",
"61 -10 OFFCURVE",
"40 16 OFFCURVE",
"40 54 CURVE SMOOTH",
"40 92 OFFCURVE",
"61 119 OFFCURVE",
"99 119 CURVE SMOOTH"
);
}
);
width = 203;
},
{
layerId = "16643525-C5DD-48EC-8E99-463BF28F5E85";
name = Bold;
paths = (
{
closed = 1;
nodes = (
"165 487 OFFCURVE",
"193 457 OFFCURVE",
"193 407 CURVE SMOOTH",
"193 360 OFFCURVE",
"167 328 OFFCURVE",
"119 328 CURVE SMOOTH",
"71 328 OFFCURVE",
"45 360 OFFCURVE",
"45 407 CURVE SMOOTH",
"45 454 OFFCURVE",
"71 487 OFFCURVE",
"119 487 CURVE SMOOTH"
);
},
{
closed = 1;
nodes = (
"165 144 OFFCURVE",
"193 114 OFFCURVE",
"193 64 CURVE SMOOTH",
"193 17 OFFCURVE",
"167 -15 OFFCURVE",
"119 -15 CURVE SMOOTH",
"71 -15 OFFCURVE",
"45 17 OFFCURVE",
"45 64 CURVE SMOOTH",
"45 111 OFFCURVE",
"71 144 OFFCURVE",
"119 144 CURVE SMOOTH"
);
}
);
width = 238;
}
);
unicode = 003A;
},
{
glyphname = comma;
lastChange = "2014-11-10 20:53:51 +0000";
layers = (
{
layerId = UUID0;
name = Regular;
paths = (
{
closed = 1;
nodes = (
"69 -7 OFFCURVE",
"50 24 OFFCURVE",
"50 60 CURVE SMOOTH",
"50 99 OFFCURVE",
"73 129 OFFCURVE",
"112 129 CURVE SMOOTH",
"159 129 OFFCURVE",
"175 87 OFFCURVE",
"175 40 CURVE SMOOTH",
"175 -34 OFFCURVE",
"132 -117 OFFCURVE",
"44 -136 CURVE",
"34 -104 LINE",
"77 -86 OFFCURVE",
"105 -52 OFFCURVE",
"105 -10 CURVE"
);
}
);
width = 220;
},
{
layerId = "16643525-C5DD-48EC-8E99-463BF28F5E85";
name = Bold;
paths = (
{
closed = 1;
nodes = (
"67 -7 OFFCURVE",
"45 30 OFFCURVE",
"45 71 CURVE SMOOTH",
"45 121 OFFCURVE",
"70 154 OFFCURVE",
"120 154 CURVE SMOOTH",
"178 154 OFFCURVE",
"196 107 OFFCURVE",
"196 52 CURVE SMOOTH",
"196 -27 OFFCURVE",
"146 -117 OFFCURVE",
"39 -136 CURVE",
"27 -104 LINE",
"79 -86 OFFCURVE",
"108 -55 OFFCURVE",
"113 -10 CURVE"
);
}
);
width = 239;
}
);
leftKerningGroup = period;
rightKerningGroup = period;
unicode = 002C;
},
{
glyphname = ellipsis;
lastChange = "2014-11-10 20:53:51 +0000";
layers = (
{
layerId = UUID0;
name = Regular;
paths = (
{
closed = 1;
nodes = (
"139 126 OFFCURVE",
"162 101 OFFCURVE",
"162 59 CURVE SMOOTH",
"162 20 OFFCURVE",
"140 -7 OFFCURVE",
"101 -7 CURVE SMOOTH",
"62 -7 OFFCURVE",
"40 20 OFFCURVE",
"40 59 CURVE SMOOTH",
"40 98 OFFCURVE",
"62 126 OFFCURVE",
"101 126 CURVE SMOOTH"
);
},
{
closed = 1;
nodes = (
"337 126 OFFCURVE",
"360 101 OFFCURVE",
"360 59 CURVE SMOOTH",
"360 20 OFFCURVE",
"338 -7 OFFCURVE",
"299 -7 CURVE SMOOTH",
"260 -7 OFFCURVE",
"238 20 OFFCURVE",
"238 59 CURVE SMOOTH",
"238 98 OFFCURVE",
"260 126 OFFCURVE",
"299 126 CURVE SMOOTH"
);
},
{
closed = 1;
nodes = (
"535 126 OFFCURVE",
"558 101 OFFCURVE",
"558 59 CURVE SMOOTH",
"558 20 OFFCURVE",
"536 -7 OFFCURVE",
"497 -7 CURVE SMOOTH",
"458 -7 OFFCURVE",
"436 20 OFFCURVE",
"436 59 CURVE SMOOTH",
"436 98 OFFCURVE",
"458 126 OFFCURVE",
"497 126 CURVE SMOOTH"
);
}
);
width = 603;
},
{
layerId = "16643525-C5DD-48EC-8E99-463BF28F5E85";
name = Bold;
paths = (
{
closed = 1;
nodes = (
"163 141 OFFCURVE",
"192 110 OFFCURVE",
"192 59 CURVE SMOOTH",
"192 11 OFFCURVE",
"165 -22 OFFCURVE",
"116 -22 CURVE SMOOTH",
"67 -22 OFFCURVE",
"40 11 OFFCURVE",
"40 59 CURVE SMOOTH",
"40 107 OFFCURVE",
"67 141 OFFCURVE",
"116 141 CURVE SMOOTH"
);
},
{
closed = 1;
nodes = (
"361 141 OFFCURVE",
"390 110 OFFCURVE",
"390 59 CURVE SMOOTH",
"390 11 OFFCURVE",
"363 -22 OFFCURVE",
"314 -22 CURVE SMOOTH",
"265 -22 OFFCURVE",
"238 11 OFFCURVE",
"238 59 CURVE SMOOTH",
"238 107 OFFCURVE",
"265 141 OFFCURVE",
"314 141 CURVE SMOOTH"
);
},
{
closed = 1;
nodes = (
"559 141 OFFCURVE",
"588 110 OFFCURVE",
"588 59 CURVE SMOOTH",
"588 11 OFFCURVE",
"561 -22 OFFCURVE",
"512 -22 CURVE SMOOTH",
"463 -22 OFFCURVE",
"436 11 OFFCURVE",
"436 59 CURVE SMOOTH",
"436 107 OFFCURVE",
"463 141 OFFCURVE",
"512 141 CURVE SMOOTH"
);
}
);
width = 633;
}
);
leftKerningGroup = period;
rightKerningGroup = period;
unicode = 2026;
},
{
glyphname = exclam;
lastChange = "2014-11-10 20:53:51 +0000";
layers = (
{
layerId = UUID0;
name = Regular;
paths = (
{
closed = 1;
nodes = (
"92 -10 OFFCURVE",
"70 14 OFFCURVE",
"70 55 CURVE SMOOTH",
"70 93 OFFCURVE",
"91 119 OFFCURVE",
"129 119 CURVE SMOOTH",
"167 119 OFFCURVE",
"188 93 OFFCURVE",
"188 55 CURVE SMOOTH",
"188 17 OFFCURVE",
"167 -10 OFFCURVE",
"129 -10 CURVE SMOOTH"
);
},
{
closed = 1;
nodes = (
"166 223 LINE",
"166 223 OFFCURVE",
"163 278 OFFCURVE",
"163 308 CURVE SMOOTH",
"163 465 OFFCURVE",
"188 702 OFFCURVE",
"188 702 CURVE",
"169 720 LINE",
"79 713 LINE",
"88 286 LINE SMOOTH",
"88 256 OFFCURVE",
"87 220 OFFCURVE",
"87 220 CURVE",
"126 220 OFFCURVE",
"153 218 OFFCURVE",
"159 217 CURVE"
);
}
);
width = 229;
},
{
layerId = "16643525-C5DD-48EC-8E99-463BF28F5E85";
name = Bold;
paths = (
{
closed = 1;
nodes = (
"191 241 LINE",
"191 241 OFFCURVE",
"188 288 OFFCURVE",
"188 318 CURVE SMOOTH",
"188 475 OFFCURVE",
"213 693 OFFCURVE",
"213 693 CURVE",
"184 721 LINE",
"64 712 LINE",
"73 296 LINE",
"73 266 OFFCURVE",
"72 230 OFFCURVE",
"72 230 CURVE",
"111 230 OFFCURVE",
"168 226 OFFCURVE",
"174 225 CURVE"
);
},
{
closed = 1;
nodes = (
"175 144 OFFCURVE",
"203 114 OFFCURVE",
"203 64 CURVE SMOOTH",
"203 17 OFFCURVE",
"177 -15 OFFCURVE",
"129 -15 CURVE SMOOTH",
"81 -15 OFFCURVE",
"55 17 OFFCURVE",
"55 64 CURVE SMOOTH",
"55 111 OFFCURVE",
"81 144 OFFCURVE",
"129 144 CURVE SMOOTH"
);
}
);
width = 239;
}
);
unicode = 0021;
},
{
glyphname = exclamdown;
lastChange = "2014-11-10 20:53:51 +0000";
layers = (
{
layerId = UUID0;
name = Regular;
paths = (
{
closed = 1;
nodes = (
"137 503 OFFCURVE",
"159 479 OFFCURVE",
"159 438 CURVE SMOOTH",
"159 400 OFFCURVE",
"138 374 OFFCURVE",
"100 374 CURVE SMOOTH",
"62 374 OFFCURVE",
"41 400 OFFCURVE",
"41 438 CURVE SMOOTH",
"41 476 OFFCURVE",
"62 503 OFFCURVE",
"100 503 CURVE SMOOTH"
);
},
{
closed = 1;
nodes = (
"63 270 LINE",
"63 270 OFFCURVE",
"66 215 OFFCURVE",
"66 185 CURVE SMOOTH",
"66 28 OFFCURVE",
"41 -209 OFFCURVE",
"41 -209 CURVE",
"60 -227 LINE",
"150 -220 LINE",
"141 207 LINE",
"141 237 OFFCURVE",
"142 273 OFFCURVE",
"142 273 CURVE",
"103 273 OFFCURVE",
"76 275 OFFCURVE",
"70 276 CURVE"
);
}
);
width = 229;
},
{
layerId = "16643525-C5DD-48EC-8E99-463BF28F5E85";
name = Bold;
paths = (
{
closed = 1;
nodes = (
"48 252 LINE",
"48 252 OFFCURVE",
"51 205 OFFCURVE",
"51 175 CURVE SMOOTH",
"51 18 OFFCURVE",
"26 -200 OFFCURVE",
"26 -200 CURVE",
"55 -228 LINE",
"175 -219 LINE",
"166 197 LINE",
"166 227 OFFCURVE",
"167 263 OFFCURVE",
"167 263 CURVE",
"128 263 OFFCURVE",
"71 267 OFFCURVE",
"65 268 CURVE"
);
},
{
closed = 1;
nodes = (
"156 508 OFFCURVE",
"184 478 OFFCURVE",
"184 428 CURVE SMOOTH",
"184 381 OFFCURVE",
"158 349 OFFCURVE",
"110 349 CURVE SMOOTH",
"62 349 OFFCURVE",
"36 381 OFFCURVE",
"36 428 CURVE SMOOTH",
"36 475 OFFCURVE",
"62 508 OFFCURVE",
"110 508 CURVE SMOOTH"
);
}
);
width = 239;
}
);
leftKerningGroup = questiondown;
rightKerningGroup = questiondown;
unicode = 00A1;
},
